G04 start of page 3 for group 1 idx 1 *
G04 Title: (unknown), solder *
G04 Creator: pcb 20140316 *
G04 CreationDate: Mon 17 Apr 2017 07:18:47 PM GMT UTC *
G04 For: ndholmes *
G04 Format: Gerber/RS-274X *
G04 PCB-Dimensions (mil): 2000.00 2800.00 *
G04 PCB-Coordinate-Origin: lower left *
%MOIN*%
%FSLAX25Y25*%
%LNBOTTOM*%
%ADD51C,0.0300*%
%ADD50C,0.1280*%
%ADD49C,0.0450*%
%ADD48C,0.0380*%
%ADD47C,0.0480*%
%ADD46C,0.1285*%
%ADD45C,0.0200*%
%ADD44C,0.0787*%
%ADD43C,0.0700*%
%ADD42C,0.1440*%
%ADD41C,0.0600*%
%ADD40C,0.0800*%
%ADD39C,0.2937*%
%ADD38C,0.0400*%
%ADD37C,0.0250*%
%ADD36C,0.0100*%
%ADD35C,0.0001*%
G54D35*G36*
X99502Y130986D02*X100206Y131042D01*
X100895Y131207D01*
X101549Y131478D01*
X102153Y131848D01*
X102692Y132308D01*
X103152Y132847D01*
X103500Y133415D01*
Y127450D01*
X103470Y127481D01*
X103375Y127551D01*
X103269Y127606D01*
X103157Y127643D01*
X103040Y127663D01*
X102921Y127664D01*
X102804Y127646D01*
X102691Y127610D01*
X102585Y127557D01*
X102488Y127488D01*
X102404Y127405D01*
X102333Y127309D01*
X102279Y127204D01*
X102241Y127092D01*
X102222Y126975D01*
X102221Y126856D01*
X102239Y126739D01*
X102277Y126626D01*
X102376Y126355D01*
X102444Y126075D01*
X102486Y125789D01*
X102500Y125500D01*
X102486Y125211D01*
X102444Y124925D01*
X102376Y124645D01*
X102280Y124372D01*
X102242Y124261D01*
X102225Y124144D01*
X102225Y124026D01*
X102245Y123909D01*
X102282Y123797D01*
X102336Y123693D01*
X102406Y123598D01*
X102491Y123515D01*
X102587Y123446D01*
X102692Y123393D01*
X102805Y123357D01*
X102921Y123340D01*
X103039Y123341D01*
X103156Y123360D01*
X103268Y123397D01*
X103373Y123452D01*
X103468Y123522D01*
X103500Y123555D01*
Y117585D01*
X103152Y118153D01*
X102692Y118692D01*
X102153Y119152D01*
X101549Y119522D01*
X100895Y119793D01*
X100206Y119958D01*
X99502Y120014D01*
Y120995D01*
X99933Y121016D01*
X100363Y121078D01*
X100784Y121182D01*
X101194Y121325D01*
X101300Y121378D01*
X101396Y121447D01*
X101481Y121530D01*
X101551Y121625D01*
X101606Y121731D01*
X101643Y121843D01*
X101663Y121960D01*
X101664Y122079D01*
X101646Y122196D01*
X101610Y122309D01*
X101557Y122415D01*
X101488Y122512D01*
X101405Y122596D01*
X101309Y122667D01*
X101204Y122721D01*
X101092Y122759D01*
X100975Y122778D01*
X100856Y122779D01*
X100739Y122761D01*
X100626Y122723D01*
X100355Y122624D01*
X100075Y122556D01*
X99789Y122514D01*
X99502Y122500D01*
Y128500D01*
X99789Y128486D01*
X100075Y128444D01*
X100355Y128376D01*
X100628Y128280D01*
X100739Y128242D01*
X100856Y128225D01*
X100974Y128225D01*
X101091Y128245D01*
X101203Y128282D01*
X101307Y128336D01*
X101402Y128406D01*
X101485Y128491D01*
X101554Y128587D01*
X101607Y128692D01*
X101643Y128805D01*
X101660Y128921D01*
X101659Y129039D01*
X101640Y129156D01*
X101603Y129268D01*
X101548Y129373D01*
X101478Y129468D01*
X101394Y129551D01*
X101298Y129619D01*
X101192Y129670D01*
X100784Y129818D01*
X100363Y129922D01*
X99933Y129984D01*
X99502Y130005D01*
Y130986D01*
G37*
G36*
Y140986D02*X100206Y141042D01*
X100895Y141207D01*
X101549Y141478D01*
X102153Y141848D01*
X102692Y142308D01*
X103152Y142847D01*
X103500Y143415D01*
Y137585D01*
X103152Y138153D01*
X102692Y138692D01*
X102153Y139152D01*
X101549Y139522D01*
X100895Y139793D01*
X100206Y139958D01*
X99502Y140014D01*
Y140986D01*
G37*
G36*
Y150986D02*X100206Y151042D01*
X100895Y151207D01*
X101549Y151478D01*
X102153Y151848D01*
X102692Y152308D01*
X103152Y152847D01*
X103500Y153415D01*
Y147585D01*
X103152Y148153D01*
X102692Y148692D01*
X102153Y149152D01*
X101549Y149522D01*
X100895Y149793D01*
X100206Y149958D01*
X99502Y150014D01*
Y150986D01*
G37*
G36*
Y160986D02*X100206Y161042D01*
X100895Y161207D01*
X101549Y161478D01*
X102153Y161848D01*
X102692Y162308D01*
X103152Y162847D01*
X103500Y163415D01*
Y157585D01*
X103152Y158153D01*
X102692Y158692D01*
X102153Y159152D01*
X101549Y159522D01*
X100895Y159793D01*
X100206Y159958D01*
X99502Y160014D01*
Y160986D01*
G37*
G36*
Y170986D02*X100206Y171042D01*
X100895Y171207D01*
X101549Y171478D01*
X102153Y171848D01*
X102692Y172308D01*
X103152Y172847D01*
X103500Y173415D01*
Y167585D01*
X103152Y168153D01*
X102692Y168692D01*
X102153Y169152D01*
X101549Y169522D01*
X100895Y169793D01*
X100206Y169958D01*
X99502Y170014D01*
Y170986D01*
G37*
G36*
Y201007D02*X102735Y201014D01*
X102965Y201069D01*
X103183Y201159D01*
X103384Y201283D01*
X103500Y201381D01*
Y197450D01*
X103470Y197481D01*
X103375Y197551D01*
X103269Y197606D01*
X103157Y197643D01*
X103040Y197663D01*
X102921Y197664D01*
X102804Y197646D01*
X102691Y197610D01*
X102585Y197557D01*
X102488Y197488D01*
X102404Y197405D01*
X102333Y197309D01*
X102279Y197204D01*
X102241Y197092D01*
X102222Y196975D01*
X102221Y196856D01*
X102239Y196739D01*
X102277Y196626D01*
X102376Y196355D01*
X102444Y196075D01*
X102486Y195789D01*
X102500Y195500D01*
X102486Y195211D01*
X102444Y194925D01*
X102376Y194645D01*
X102280Y194372D01*
X102242Y194261D01*
X102225Y194144D01*
X102225Y194026D01*
X102245Y193909D01*
X102282Y193797D01*
X102336Y193693D01*
X102406Y193598D01*
X102491Y193515D01*
X102587Y193446D01*
X102692Y193393D01*
X102805Y193357D01*
X102921Y193340D01*
X103039Y193341D01*
X103156Y193360D01*
X103268Y193397D01*
X103373Y193452D01*
X103468Y193522D01*
X103500Y193555D01*
Y187585D01*
X103152Y188153D01*
X102692Y188692D01*
X102153Y189152D01*
X101549Y189522D01*
X100895Y189793D01*
X100206Y189958D01*
X99502Y190014D01*
Y190995D01*
X99933Y191016D01*
X100363Y191078D01*
X100784Y191182D01*
X101194Y191325D01*
X101300Y191378D01*
X101396Y191447D01*
X101481Y191530D01*
X101551Y191625D01*
X101606Y191731D01*
X101643Y191843D01*
X101663Y191960D01*
X101664Y192079D01*
X101646Y192196D01*
X101610Y192309D01*
X101557Y192415D01*
X101488Y192512D01*
X101405Y192596D01*
X101309Y192667D01*
X101204Y192721D01*
X101092Y192759D01*
X100975Y192778D01*
X100856Y192779D01*
X100739Y192761D01*
X100626Y192723D01*
X100355Y192624D01*
X100075Y192556D01*
X99789Y192514D01*
X99502Y192500D01*
Y198500D01*
X99789Y198486D01*
X100075Y198444D01*
X100355Y198376D01*
X100628Y198280D01*
X100739Y198242D01*
X100856Y198225D01*
X100974Y198225D01*
X101091Y198245D01*
X101203Y198282D01*
X101307Y198336D01*
X101402Y198406D01*
X101485Y198491D01*
X101554Y198587D01*
X101607Y198692D01*
X101643Y198805D01*
X101660Y198921D01*
X101659Y199039D01*
X101640Y199156D01*
X101603Y199268D01*
X101548Y199373D01*
X101478Y199468D01*
X101394Y199551D01*
X101298Y199619D01*
X101192Y199670D01*
X100784Y199818D01*
X100363Y199922D01*
X99933Y199984D01*
X99502Y200005D01*
Y201007D01*
G37*
G36*
X103500Y278000D02*Y252650D01*
X103439Y252607D01*
X103326Y252496D01*
X103232Y252370D01*
X103158Y252230D01*
X103108Y252080D01*
X103081Y251924D01*
X103079Y251766D01*
X103102Y251610D01*
X103152Y251460D01*
X103278Y251108D01*
X103366Y250744D01*
X103419Y250374D01*
X103437Y250000D01*
X103419Y249626D01*
X103366Y249256D01*
X103278Y248892D01*
X103156Y248539D01*
X103106Y248389D01*
X103083Y248234D01*
X103085Y248076D01*
X103112Y247921D01*
X103162Y247772D01*
X103236Y247633D01*
X103330Y247507D01*
X103442Y247397D01*
X103500Y247356D01*
Y209619D01*
X103384Y209717D01*
X103183Y209841D01*
X102965Y209931D01*
X102735Y209986D01*
X102500Y210000D01*
X99502Y209993D01*
Y244056D01*
X100064Y244083D01*
X100623Y244163D01*
X101172Y244296D01*
X101706Y244481D01*
X101848Y244550D01*
X101977Y244642D01*
X102091Y244752D01*
X102185Y244879D01*
X102259Y245019D01*
X102309Y245168D01*
X102336Y245324D01*
X102338Y245482D01*
X102315Y245639D01*
X102268Y245790D01*
X102198Y245931D01*
X102107Y246061D01*
X101996Y246174D01*
X101870Y246268D01*
X101730Y246342D01*
X101580Y246392D01*
X101424Y246419D01*
X101266Y246421D01*
X101110Y246398D01*
X100960Y246348D01*
X100608Y246222D01*
X100244Y246134D01*
X99874Y246081D01*
X99502Y246063D01*
Y253937D01*
X99874Y253919D01*
X100244Y253866D01*
X100608Y253778D01*
X100961Y253656D01*
X101111Y253606D01*
X101266Y253583D01*
X101424Y253585D01*
X101579Y253612D01*
X101728Y253662D01*
X101867Y253736D01*
X101993Y253830D01*
X102103Y253942D01*
X102194Y254071D01*
X102264Y254212D01*
X102311Y254362D01*
X102333Y254518D01*
X102332Y254675D01*
X102305Y254831D01*
X102254Y254980D01*
X102181Y255119D01*
X102087Y255245D01*
X101975Y255355D01*
X101846Y255446D01*
X101704Y255513D01*
X101172Y255704D01*
X100623Y255837D01*
X100064Y255917D01*
X99502Y255944D01*
Y278000D01*
X103500D01*
G37*
G36*
X95887Y112802D02*X95931Y112750D01*
X95887D01*
Y112802D01*
G37*
G36*
Y132802D02*X96308Y132308D01*
X96847Y131848D01*
X97451Y131478D01*
X98105Y131207D01*
X98794Y131042D01*
X99500Y130986D01*
X99502Y130986D01*
Y130005D01*
X99500Y130005D01*
X99067Y129984D01*
X98637Y129922D01*
X98216Y129818D01*
X97806Y129675D01*
X97700Y129622D01*
X97604Y129553D01*
X97519Y129470D01*
X97449Y129375D01*
X97394Y129269D01*
X97357Y129157D01*
X97337Y129040D01*
X97336Y128921D01*
X97354Y128804D01*
X97390Y128691D01*
X97443Y128585D01*
X97512Y128488D01*
X97595Y128404D01*
X97691Y128333D01*
X97796Y128279D01*
X97908Y128241D01*
X98025Y128222D01*
X98144Y128221D01*
X98261Y128239D01*
X98374Y128277D01*
X98645Y128376D01*
X98925Y128444D01*
X99211Y128486D01*
X99500Y128500D01*
X99502Y128500D01*
Y122500D01*
X99500Y122500D01*
X99211Y122514D01*
X98925Y122556D01*
X98645Y122624D01*
X98372Y122720D01*
X98261Y122758D01*
X98144Y122775D01*
X98026Y122775D01*
X97909Y122755D01*
X97797Y122718D01*
X97693Y122664D01*
X97598Y122594D01*
X97515Y122509D01*
X97446Y122413D01*
X97393Y122308D01*
X97357Y122195D01*
X97340Y122079D01*
X97341Y121961D01*
X97360Y121844D01*
X97397Y121732D01*
X97452Y121627D01*
X97522Y121532D01*
X97606Y121449D01*
X97702Y121381D01*
X97808Y121330D01*
X98216Y121182D01*
X98637Y121078D01*
X99067Y121016D01*
X99500Y120995D01*
X99502Y120995D01*
Y120014D01*
X99500Y120014D01*
X98794Y119958D01*
X98105Y119793D01*
X97451Y119522D01*
X96847Y119152D01*
X96308Y118692D01*
X95887Y118198D01*
Y123349D01*
X95960Y123337D01*
X96079Y123336D01*
X96196Y123354D01*
X96309Y123390D01*
X96415Y123443D01*
X96512Y123512D01*
X96596Y123595D01*
X96667Y123691D01*
X96721Y123796D01*
X96759Y123908D01*
X96778Y124025D01*
X96779Y124144D01*
X96761Y124261D01*
X96723Y124374D01*
X96624Y124645D01*
X96556Y124925D01*
X96514Y125211D01*
X96500Y125500D01*
X96514Y125789D01*
X96556Y126075D01*
X96624Y126355D01*
X96720Y126628D01*
X96758Y126739D01*
X96775Y126856D01*
X96775Y126974D01*
X96755Y127091D01*
X96718Y127203D01*
X96664Y127307D01*
X96594Y127402D01*
X96509Y127485D01*
X96413Y127554D01*
X96308Y127607D01*
X96195Y127643D01*
X96079Y127660D01*
X95961Y127659D01*
X95887Y127647D01*
Y132802D01*
G37*
G36*
Y142802D02*X96308Y142308D01*
X96847Y141848D01*
X97451Y141478D01*
X98105Y141207D01*
X98794Y141042D01*
X99500Y140986D01*
X99502Y140986D01*
Y140014D01*
X99500Y140014D01*
X98794Y139958D01*
X98105Y139793D01*
X97451Y139522D01*
X96847Y139152D01*
X96308Y138692D01*
X95887Y138198D01*
Y142802D01*
G37*
G36*
Y152802D02*X96308Y152308D01*
X96847Y151848D01*
X97451Y151478D01*
X98105Y151207D01*
X98794Y151042D01*
X99500Y150986D01*
X99502Y150986D01*
Y150014D01*
X99500Y150014D01*
X98794Y149958D01*
X98105Y149793D01*
X97451Y149522D01*
X96847Y149152D01*
X96308Y148692D01*
X95887Y148198D01*
Y152802D01*
G37*
G36*
Y162802D02*X96308Y162308D01*
X96847Y161848D01*
X97451Y161478D01*
X98105Y161207D01*
X98794Y161042D01*
X99500Y160986D01*
X99502Y160986D01*
Y160014D01*
X99500Y160014D01*
X98794Y159958D01*
X98105Y159793D01*
X97451Y159522D01*
X96847Y159152D01*
X96308Y158692D01*
X95887Y158198D01*
Y162802D01*
G37*
G36*
Y172802D02*X96308Y172308D01*
X96847Y171848D01*
X97451Y171478D01*
X98105Y171207D01*
X98794Y171042D01*
X99500Y170986D01*
X99502Y170986D01*
Y170014D01*
X99500Y170014D01*
X98794Y169958D01*
X98105Y169793D01*
X97451Y169522D01*
X96847Y169152D01*
X96308Y168692D01*
X95887Y168198D01*
Y172802D01*
G37*
G36*
Y179000D02*X96669D01*
X96308Y178692D01*
X95887Y178198D01*
Y179000D01*
G37*
G36*
Y182802D02*X96308Y182308D01*
X96669Y182000D01*
X95887D01*
Y182802D01*
G37*
G36*
Y201130D02*X96035Y201069D01*
X96265Y201014D01*
X96500Y201000D01*
X99502Y201007D01*
Y200005D01*
X99500Y200005D01*
X99067Y199984D01*
X98637Y199922D01*
X98216Y199818D01*
X97806Y199675D01*
X97700Y199622D01*
X97604Y199553D01*
X97519Y199470D01*
X97449Y199375D01*
X97394Y199269D01*
X97357Y199157D01*
X97337Y199040D01*
X97336Y198921D01*
X97354Y198804D01*
X97390Y198691D01*
X97443Y198585D01*
X97512Y198488D01*
X97595Y198404D01*
X97691Y198333D01*
X97796Y198279D01*
X97908Y198241D01*
X98025Y198222D01*
X98144Y198221D01*
X98261Y198239D01*
X98374Y198277D01*
X98645Y198376D01*
X98925Y198444D01*
X99211Y198486D01*
X99500Y198500D01*
X99502Y198500D01*
Y192500D01*
X99500Y192500D01*
X99211Y192514D01*
X98925Y192556D01*
X98645Y192624D01*
X98372Y192720D01*
X98261Y192758D01*
X98144Y192775D01*
X98026Y192775D01*
X97909Y192755D01*
X97797Y192718D01*
X97693Y192664D01*
X97598Y192594D01*
X97515Y192509D01*
X97446Y192413D01*
X97393Y192308D01*
X97357Y192195D01*
X97340Y192079D01*
X97341Y191961D01*
X97360Y191844D01*
X97397Y191732D01*
X97452Y191627D01*
X97522Y191532D01*
X97606Y191449D01*
X97702Y191381D01*
X97808Y191330D01*
X98216Y191182D01*
X98637Y191078D01*
X99067Y191016D01*
X99500Y190995D01*
X99502Y190995D01*
Y190014D01*
X99500Y190014D01*
X98794Y189958D01*
X98105Y189793D01*
X97451Y189522D01*
X96847Y189152D01*
X96308Y188692D01*
X95887Y188198D01*
Y193349D01*
X95960Y193337D01*
X96079Y193336D01*
X96196Y193354D01*
X96309Y193390D01*
X96415Y193443D01*
X96512Y193512D01*
X96596Y193595D01*
X96667Y193691D01*
X96721Y193796D01*
X96759Y193908D01*
X96778Y194025D01*
X96779Y194144D01*
X96761Y194261D01*
X96723Y194374D01*
X96624Y194645D01*
X96556Y194925D01*
X96514Y195211D01*
X96500Y195500D01*
X96514Y195789D01*
X96556Y196075D01*
X96624Y196355D01*
X96720Y196628D01*
X96758Y196739D01*
X96775Y196856D01*
X96775Y196974D01*
X96755Y197091D01*
X96718Y197203D01*
X96664Y197307D01*
X96594Y197402D01*
X96509Y197485D01*
X96413Y197554D01*
X96308Y197607D01*
X96195Y197643D01*
X96079Y197660D01*
X95961Y197659D01*
X95887Y197647D01*
Y201130D01*
G37*
G36*
X99502Y209993D02*X96265Y209986D01*
X96035Y209931D01*
X95887Y209870D01*
Y247904D01*
X95892Y247920D01*
X95919Y248076D01*
X95921Y248234D01*
X95898Y248390D01*
X95887Y248425D01*
Y251589D01*
X95894Y251611D01*
X95917Y251766D01*
X95915Y251924D01*
X95888Y252079D01*
X95887Y252082D01*
Y278000D01*
X99502D01*
Y255944D01*
X99500Y255944D01*
X98936Y255917D01*
X98377Y255837D01*
X97828Y255704D01*
X97294Y255519D01*
X97152Y255450D01*
X97023Y255358D01*
X96909Y255248D01*
X96815Y255121D01*
X96741Y254981D01*
X96691Y254832D01*
X96664Y254676D01*
X96662Y254518D01*
X96685Y254361D01*
X96732Y254210D01*
X96802Y254069D01*
X96893Y253939D01*
X97004Y253826D01*
X97130Y253732D01*
X97270Y253658D01*
X97420Y253608D01*
X97576Y253581D01*
X97734Y253579D01*
X97890Y253602D01*
X98040Y253652D01*
X98392Y253778D01*
X98756Y253866D01*
X99126Y253919D01*
X99500Y253937D01*
X99502Y253937D01*
Y246063D01*
X99500Y246063D01*
X99126Y246081D01*
X98756Y246134D01*
X98392Y246222D01*
X98039Y246344D01*
X97889Y246394D01*
X97734Y246417D01*
X97576Y246415D01*
X97421Y246388D01*
X97272Y246338D01*
X97133Y246264D01*
X97007Y246170D01*
X96897Y246058D01*
X96806Y245929D01*
X96736Y245788D01*
X96689Y245638D01*
X96667Y245482D01*
X96668Y245325D01*
X96695Y245169D01*
X96746Y245020D01*
X96819Y244881D01*
X96913Y244755D01*
X97025Y244645D01*
X97154Y244554D01*
X97296Y244487D01*
X97828Y244296D01*
X98377Y244163D01*
X98936Y244083D01*
X99500Y244056D01*
X99502Y244056D01*
Y209993D01*
G37*
G36*
X95887Y248425D02*X95848Y248540D01*
X95722Y248892D01*
X95634Y249256D01*
X95581Y249626D01*
X95563Y250000D01*
X95581Y250374D01*
X95634Y250744D01*
X95722Y251108D01*
X95844Y251461D01*
X95887Y251589D01*
Y248425D01*
G37*
G36*
Y209870D02*X95817Y209841D01*
X95616Y209717D01*
X95436Y209564D01*
X95283Y209384D01*
X95159Y209183D01*
X95069Y208965D01*
X95014Y208735D01*
X95000Y208500D01*
X95014Y202265D01*
X95069Y202035D01*
X95159Y201817D01*
X95283Y201616D01*
X95436Y201436D01*
X95616Y201283D01*
X95817Y201159D01*
X95887Y201130D01*
Y197647D01*
X95844Y197640D01*
X95732Y197603D01*
X95627Y197548D01*
X95532Y197478D01*
X95449Y197394D01*
X95381Y197298D01*
X95330Y197192D01*
X95182Y196784D01*
X95078Y196363D01*
X95016Y195933D01*
X94995Y195500D01*
X95016Y195067D01*
X95078Y194637D01*
X95182Y194216D01*
X95325Y193806D01*
X95378Y193700D01*
X95447Y193604D01*
X95530Y193519D01*
X95625Y193449D01*
X95731Y193394D01*
X95843Y193357D01*
X95887Y193349D01*
Y188198D01*
X95848Y188153D01*
X95478Y187549D01*
X95207Y186895D01*
X95042Y186206D01*
X94986Y185500D01*
X95042Y184794D01*
X95207Y184105D01*
X95478Y183451D01*
X95848Y182847D01*
X95887Y182802D01*
Y182000D01*
X93599D01*
X93435Y182269D01*
X93128Y182628D01*
X92769Y182935D01*
X92366Y183181D01*
X91930Y183362D01*
X91471Y183472D01*
X91000Y183509D01*
X90529Y183472D01*
X90070Y183362D01*
X89634Y183181D01*
X89231Y182935D01*
X88872Y182628D01*
X88565Y182269D01*
X88319Y181866D01*
X88138Y181430D01*
X88028Y180971D01*
X87991Y180500D01*
X88028Y180029D01*
X88138Y179570D01*
X88319Y179134D01*
X88565Y178731D01*
X88872Y178372D01*
X89231Y178065D01*
X89634Y177819D01*
X90070Y177638D01*
X90529Y177528D01*
X91000Y177491D01*
X91471Y177528D01*
X91930Y177638D01*
X92366Y177819D01*
X92769Y178065D01*
X93128Y178372D01*
X93435Y178731D01*
X93599Y179000D01*
X95887D01*
Y178198D01*
X95848Y178153D01*
X95478Y177549D01*
X95207Y176895D01*
X95042Y176206D01*
X94986Y175500D01*
X95042Y174794D01*
X95207Y174105D01*
X95478Y173451D01*
X95848Y172847D01*
X95887Y172802D01*
Y168198D01*
X95848Y168153D01*
X95478Y167549D01*
X95207Y166895D01*
X95042Y166206D01*
X94986Y165500D01*
X95042Y164794D01*
X95207Y164105D01*
X95478Y163451D01*
X95848Y162847D01*
X95887Y162802D01*
Y158198D01*
X95848Y158153D01*
X95478Y157549D01*
X95207Y156895D01*
X95042Y156206D01*
X94986Y155500D01*
X95042Y154794D01*
X95207Y154105D01*
X95478Y153451D01*
X95848Y152847D01*
X95887Y152802D01*
Y148198D01*
X95848Y148153D01*
X95478Y147549D01*
X95207Y146895D01*
X95042Y146206D01*
X94986Y145500D01*
X95042Y144794D01*
X95207Y144105D01*
X95478Y143451D01*
X95848Y142847D01*
X95887Y142802D01*
Y138198D01*
X95848Y138153D01*
X95478Y137549D01*
X95207Y136895D01*
X95042Y136206D01*
X94986Y135500D01*
X95042Y134794D01*
X95207Y134105D01*
X95478Y133451D01*
X95848Y132847D01*
X95887Y132802D01*
Y127647D01*
X95844Y127640D01*
X95732Y127603D01*
X95627Y127548D01*
X95532Y127478D01*
X95449Y127394D01*
X95381Y127298D01*
X95330Y127192D01*
X95182Y126784D01*
X95078Y126363D01*
X95016Y125933D01*
X94995Y125500D01*
X95016Y125067D01*
X95078Y124637D01*
X95182Y124216D01*
X95325Y123806D01*
X95378Y123700D01*
X95447Y123604D01*
X95530Y123519D01*
X95625Y123449D01*
X95731Y123394D01*
X95843Y123357D01*
X95887Y123349D01*
Y118198D01*
X95848Y118153D01*
X95478Y117549D01*
X95207Y116895D01*
X95042Y116206D01*
X94986Y115500D01*
X95042Y114794D01*
X95207Y114105D01*
X95478Y113451D01*
X95848Y112847D01*
X95887Y112802D01*
Y112750D01*
X86915D01*
X86827Y112826D01*
X86525Y113011D01*
X86197Y113146D01*
X85853Y113229D01*
X85853Y113229D01*
X85500Y113257D01*
X85412Y113250D01*
X79899D01*
X79720Y113541D01*
Y118544D01*
X79771Y118583D01*
X79826Y118639D01*
X79870Y118704D01*
X80064Y119056D01*
X80221Y119426D01*
X80344Y119809D01*
X80433Y120200D01*
X80487Y120599D01*
X80504Y121000D01*
X80487Y121401D01*
X80433Y121800D01*
X80344Y122191D01*
X80221Y122574D01*
X80064Y122944D01*
X79874Y123298D01*
X79829Y123363D01*
X79774Y123420D01*
X79720Y123460D01*
Y128544D01*
X79771Y128583D01*
X79826Y128639D01*
X79870Y128704D01*
X80064Y129056D01*
X80221Y129426D01*
X80344Y129809D01*
X80433Y130200D01*
X80487Y130599D01*
X80504Y131000D01*
X80487Y131401D01*
X80433Y131800D01*
X80344Y132191D01*
X80221Y132574D01*
X80064Y132944D01*
X79874Y133298D01*
X79829Y133363D01*
X79774Y133420D01*
X79720Y133460D01*
Y278000D01*
X95887D01*
Y252082D01*
X95838Y252228D01*
X95764Y252367D01*
X95670Y252493D01*
X95558Y252603D01*
X95429Y252694D01*
X95422Y252698D01*
X95418Y254251D01*
X95345Y254557D01*
X95225Y254848D01*
X95060Y255116D01*
X94856Y255356D01*
X94616Y255560D01*
X94348Y255725D01*
X94057Y255845D01*
X93751Y255918D01*
X93437Y255937D01*
X85249Y255918D01*
X84943Y255845D01*
X84652Y255725D01*
X84384Y255560D01*
X84144Y255356D01*
X83940Y255116D01*
X83775Y254848D01*
X83655Y254557D01*
X83582Y254251D01*
X83563Y253937D01*
X83582Y245749D01*
X83655Y245443D01*
X83775Y245152D01*
X83940Y244884D01*
X84144Y244644D01*
X84384Y244440D01*
X84652Y244275D01*
X84943Y244155D01*
X85249Y244082D01*
X85563Y244063D01*
X93751Y244082D01*
X94057Y244155D01*
X94348Y244275D01*
X94616Y244440D01*
X94856Y244644D01*
X95060Y244884D01*
X95225Y245152D01*
X95345Y245443D01*
X95418Y245749D01*
X95437Y246063D01*
X95434Y247304D01*
X95561Y247393D01*
X95674Y247504D01*
X95768Y247630D01*
X95842Y247770D01*
X95887Y247904D01*
Y209870D01*
G37*
G36*
X79720Y113541D02*X79652Y113653D01*
X79192Y114192D01*
X78653Y114652D01*
X78049Y115022D01*
X77395Y115293D01*
X76706Y115458D01*
X76002Y115514D01*
Y116496D01*
X76401Y116513D01*
X76800Y116567D01*
X77191Y116656D01*
X77574Y116779D01*
X77944Y116936D01*
X78298Y117126D01*
X78363Y117171D01*
X78420Y117226D01*
X78468Y117290D01*
X78504Y117360D01*
X78530Y117435D01*
X78544Y117513D01*
X78545Y117592D01*
X78533Y117671D01*
X78510Y117746D01*
X78475Y117817D01*
X78429Y117882D01*
X78374Y117939D01*
X78311Y117987D01*
X78241Y118024D01*
X78166Y118049D01*
X78088Y118063D01*
X78008Y118064D01*
X77930Y118052D01*
X77854Y118029D01*
X77784Y117993D01*
X77510Y117843D01*
X77223Y117721D01*
X76926Y117625D01*
X76621Y117556D01*
X76312Y117514D01*
X76002Y117500D01*
Y124500D01*
X76312Y124486D01*
X76621Y124444D01*
X76926Y124375D01*
X77223Y124279D01*
X77510Y124157D01*
X77786Y124010D01*
X77855Y123974D01*
X77931Y123951D01*
X78009Y123940D01*
X78087Y123941D01*
X78165Y123954D01*
X78239Y123980D01*
X78309Y124016D01*
X78372Y124064D01*
X78427Y124120D01*
X78472Y124184D01*
X78507Y124255D01*
X78530Y124330D01*
X78541Y124408D01*
X78540Y124487D01*
X78527Y124564D01*
X78501Y124639D01*
X78465Y124708D01*
X78417Y124771D01*
X78361Y124826D01*
X78296Y124870D01*
X77944Y125064D01*
X77574Y125221D01*
X77191Y125344D01*
X76800Y125433D01*
X76401Y125487D01*
X76002Y125504D01*
Y126496D01*
X76401Y126513D01*
X76800Y126567D01*
X77191Y126656D01*
X77574Y126779D01*
X77944Y126936D01*
X78298Y127126D01*
X78363Y127171D01*
X78420Y127226D01*
X78468Y127290D01*
X78504Y127360D01*
X78530Y127435D01*
X78544Y127513D01*
X78545Y127592D01*
X78533Y127671D01*
X78510Y127746D01*
X78475Y127817D01*
X78429Y127882D01*
X78374Y127939D01*
X78311Y127987D01*
X78241Y128024D01*
X78166Y128049D01*
X78088Y128063D01*
X78008Y128064D01*
X77930Y128052D01*
X77854Y128029D01*
X77784Y127993D01*
X77510Y127843D01*
X77223Y127721D01*
X76926Y127625D01*
X76621Y127556D01*
X76312Y127514D01*
X76002Y127500D01*
Y134500D01*
X76312Y134486D01*
X76621Y134444D01*
X76926Y134375D01*
X77223Y134279D01*
X77510Y134157D01*
X77786Y134010D01*
X77855Y133974D01*
X77931Y133951D01*
X78009Y133940D01*
X78087Y133941D01*
X78165Y133954D01*
X78239Y133980D01*
X78309Y134016D01*
X78372Y134064D01*
X78427Y134120D01*
X78472Y134184D01*
X78507Y134255D01*
X78530Y134330D01*
X78541Y134408D01*
X78540Y134487D01*
X78527Y134564D01*
X78501Y134639D01*
X78465Y134708D01*
X78417Y134771D01*
X78361Y134826D01*
X78296Y134870D01*
X77944Y135064D01*
X77574Y135221D01*
X77191Y135344D01*
X76800Y135433D01*
X76401Y135487D01*
X76002Y135504D01*
Y278000D01*
X79720D01*
Y133460D01*
X79710Y133468D01*
X79640Y133504D01*
X79565Y133530D01*
X79487Y133544D01*
X79408Y133545D01*
X79329Y133533D01*
X79254Y133510D01*
X79183Y133475D01*
X79118Y133429D01*
X79061Y133374D01*
X79013Y133311D01*
X78976Y133241D01*
X78951Y133166D01*
X78937Y133088D01*
X78936Y133008D01*
X78948Y132930D01*
X78971Y132854D01*
X79007Y132784D01*
X79157Y132510D01*
X79279Y132223D01*
X79375Y131926D01*
X79444Y131621D01*
X79486Y131312D01*
X79500Y131000D01*
X79486Y130688D01*
X79444Y130379D01*
X79375Y130074D01*
X79279Y129777D01*
X79157Y129490D01*
X79010Y129214D01*
X78974Y129145D01*
X78951Y129069D01*
X78940Y128991D01*
X78941Y128913D01*
X78954Y128835D01*
X78980Y128761D01*
X79016Y128691D01*
X79064Y128628D01*
X79120Y128573D01*
X79184Y128528D01*
X79255Y128493D01*
X79330Y128470D01*
X79408Y128459D01*
X79487Y128460D01*
X79564Y128473D01*
X79639Y128499D01*
X79708Y128535D01*
X79720Y128544D01*
Y123460D01*
X79710Y123468D01*
X79640Y123504D01*
X79565Y123530D01*
X79487Y123544D01*
X79408Y123545D01*
X79329Y123533D01*
X79254Y123510D01*
X79183Y123475D01*
X79118Y123429D01*
X79061Y123374D01*
X79013Y123311D01*
X78976Y123241D01*
X78951Y123166D01*
X78937Y123088D01*
X78936Y123008D01*
X78948Y122930D01*
X78971Y122854D01*
X79007Y122784D01*
X79157Y122510D01*
X79279Y122223D01*
X79375Y121926D01*
X79444Y121621D01*
X79486Y121312D01*
X79500Y121000D01*
X79486Y120688D01*
X79444Y120379D01*
X79375Y120074D01*
X79279Y119777D01*
X79157Y119490D01*
X79010Y119214D01*
X78974Y119145D01*
X78951Y119069D01*
X78940Y118991D01*
X78941Y118913D01*
X78954Y118835D01*
X78980Y118761D01*
X79016Y118691D01*
X79064Y118628D01*
X79120Y118573D01*
X79184Y118528D01*
X79255Y118493D01*
X79330Y118470D01*
X79408Y118459D01*
X79487Y118460D01*
X79564Y118473D01*
X79639Y118499D01*
X79708Y118535D01*
X79720Y118544D01*
Y113541D01*
G37*
G36*
X72280Y108459D02*X72348Y108347D01*
X72808Y107808D01*
X73169Y107500D01*
X72280D01*
Y108459D01*
G37*
G36*
X76002Y115514D02*X76000Y115514D01*
X75294Y115458D01*
X74605Y115293D01*
X73951Y115022D01*
X73347Y114652D01*
X72808Y114192D01*
X72348Y113653D01*
X72280Y113541D01*
Y118540D01*
X72290Y118532D01*
X72360Y118496D01*
X72435Y118470D01*
X72513Y118456D01*
X72592Y118455D01*
X72671Y118467D01*
X72746Y118490D01*
X72817Y118525D01*
X72882Y118571D01*
X72939Y118626D01*
X72987Y118689D01*
X73024Y118759D01*
X73049Y118834D01*
X73063Y118912D01*
X73064Y118992D01*
X73052Y119070D01*
X73029Y119146D01*
X72993Y119216D01*
X72843Y119490D01*
X72721Y119777D01*
X72625Y120074D01*
X72556Y120379D01*
X72514Y120688D01*
X72500Y121000D01*
X72514Y121312D01*
X72556Y121621D01*
X72625Y121926D01*
X72721Y122223D01*
X72843Y122510D01*
X72990Y122786D01*
X73026Y122855D01*
X73049Y122931D01*
X73060Y123009D01*
X73059Y123087D01*
X73046Y123165D01*
X73020Y123239D01*
X72984Y123309D01*
X72936Y123372D01*
X72880Y123427D01*
X72816Y123472D01*
X72745Y123507D01*
X72670Y123530D01*
X72592Y123541D01*
X72513Y123540D01*
X72436Y123527D01*
X72361Y123501D01*
X72292Y123465D01*
X72280Y123456D01*
Y128540D01*
X72290Y128532D01*
X72360Y128496D01*
X72435Y128470D01*
X72513Y128456D01*
X72592Y128455D01*
X72671Y128467D01*
X72746Y128490D01*
X72817Y128525D01*
X72882Y128571D01*
X72939Y128626D01*
X72987Y128689D01*
X73024Y128759D01*
X73049Y128834D01*
X73063Y128912D01*
X73064Y128992D01*
X73052Y129070D01*
X73029Y129146D01*
X72993Y129216D01*
X72843Y129490D01*
X72721Y129777D01*
X72625Y130074D01*
X72556Y130379D01*
X72514Y130688D01*
X72500Y131000D01*
X72514Y131312D01*
X72556Y131621D01*
X72625Y131926D01*
X72721Y132223D01*
X72843Y132510D01*
X72990Y132786D01*
X73026Y132855D01*
X73049Y132931D01*
X73060Y133009D01*
X73059Y133087D01*
X73046Y133165D01*
X73020Y133239D01*
X72984Y133309D01*
X72936Y133372D01*
X72880Y133427D01*
X72816Y133472D01*
X72745Y133507D01*
X72670Y133530D01*
X72592Y133541D01*
X72513Y133540D01*
X72436Y133527D01*
X72361Y133501D01*
X72292Y133465D01*
X72280Y133456D01*
Y278000D01*
X76002D01*
Y135504D01*
X76000Y135504D01*
X75599Y135487D01*
X75200Y135433D01*
X74809Y135344D01*
X74426Y135221D01*
X74056Y135064D01*
X73702Y134874D01*
X73637Y134829D01*
X73580Y134774D01*
X73532Y134710D01*
X73496Y134640D01*
X73470Y134565D01*
X73456Y134487D01*
X73455Y134408D01*
X73467Y134329D01*
X73490Y134254D01*
X73525Y134183D01*
X73571Y134118D01*
X73626Y134061D01*
X73689Y134013D01*
X73759Y133976D01*
X73834Y133951D01*
X73912Y133937D01*
X73992Y133936D01*
X74070Y133948D01*
X74146Y133971D01*
X74216Y134007D01*
X74490Y134157D01*
X74777Y134279D01*
X75074Y134375D01*
X75379Y134444D01*
X75688Y134486D01*
X76000Y134500D01*
X76002Y134500D01*
Y127500D01*
X76000Y127500D01*
X75688Y127514D01*
X75379Y127556D01*
X75074Y127625D01*
X74777Y127721D01*
X74490Y127843D01*
X74214Y127990D01*
X74145Y128026D01*
X74069Y128049D01*
X73991Y128060D01*
X73913Y128059D01*
X73835Y128046D01*
X73761Y128020D01*
X73691Y127984D01*
X73628Y127936D01*
X73573Y127880D01*
X73528Y127816D01*
X73493Y127745D01*
X73470Y127670D01*
X73459Y127592D01*
X73460Y127513D01*
X73473Y127436D01*
X73499Y127361D01*
X73535Y127292D01*
X73583Y127229D01*
X73639Y127174D01*
X73704Y127130D01*
X74056Y126936D01*
X74426Y126779D01*
X74809Y126656D01*
X75200Y126567D01*
X75599Y126513D01*
X76000Y126496D01*
X76002Y126496D01*
Y125504D01*
X76000Y125504D01*
X75599Y125487D01*
X75200Y125433D01*
X74809Y125344D01*
X74426Y125221D01*
X74056Y125064D01*
X73702Y124874D01*
X73637Y124829D01*
X73580Y124774D01*
X73532Y124710D01*
X73496Y124640D01*
X73470Y124565D01*
X73456Y124487D01*
X73455Y124408D01*
X73467Y124329D01*
X73490Y124254D01*
X73525Y124183D01*
X73571Y124118D01*
X73626Y124061D01*
X73689Y124013D01*
X73759Y123977D01*
X73834Y123951D01*
X73912Y123937D01*
X73992Y123936D01*
X74070Y123948D01*
X74146Y123971D01*
X74216Y124007D01*
X74490Y124157D01*
X74777Y124279D01*
X75074Y124375D01*
X75379Y124444D01*
X75688Y124486D01*
X76000Y124500D01*
X76002Y124500D01*
Y117500D01*
X76000Y117500D01*
X75688Y117514D01*
X75379Y117556D01*
X75074Y117625D01*
X74777Y117721D01*
X74490Y117843D01*
X74214Y117990D01*
X74145Y118026D01*
X74069Y118049D01*
X73991Y118060D01*
X73913Y118059D01*
X73835Y118046D01*
X73761Y118020D01*
X73691Y117984D01*
X73628Y117936D01*
X73573Y117880D01*
X73528Y117816D01*
X73493Y117745D01*
X73470Y117670D01*
X73459Y117592D01*
X73460Y117513D01*
X73473Y117436D01*
X73499Y117361D01*
X73535Y117292D01*
X73583Y117229D01*
X73639Y117174D01*
X73704Y117130D01*
X74056Y116936D01*
X74426Y116779D01*
X74809Y116656D01*
X75200Y116567D01*
X75599Y116513D01*
X76000Y116496D01*
X76002Y116496D01*
Y115514D01*
G37*
G36*
X72280Y113541D02*X71978Y113049D01*
X71707Y112395D01*
X71542Y111706D01*
X71486Y111000D01*
X71542Y110294D01*
X71707Y109605D01*
X71978Y108951D01*
X72280Y108459D01*
Y107500D01*
X70249D01*
X70022Y108049D01*
X69652Y108653D01*
X69192Y109192D01*
X68653Y109652D01*
X68049Y110022D01*
X67395Y110293D01*
X66706Y110458D01*
X66000Y110514D01*
X65294Y110458D01*
X64605Y110293D01*
X63951Y110022D01*
X63347Y109652D01*
X63000Y109356D01*
Y112644D01*
X63347Y112348D01*
X63951Y111978D01*
X64605Y111707D01*
X65294Y111542D01*
X66000Y111486D01*
X66706Y111542D01*
X67395Y111707D01*
X68049Y111978D01*
X68653Y112348D01*
X69192Y112808D01*
X69652Y113347D01*
X70022Y113951D01*
X70293Y114605D01*
X70458Y115294D01*
X70500Y116000D01*
X70458Y116706D01*
X70293Y117395D01*
X70022Y118049D01*
X69652Y118653D01*
X69192Y119192D01*
X68653Y119652D01*
X68049Y120022D01*
X67395Y120293D01*
X66706Y120458D01*
X66000Y120514D01*
X65294Y120458D01*
X64605Y120293D01*
X63951Y120022D01*
X63347Y119652D01*
X63000Y119356D01*
Y122644D01*
X63347Y122348D01*
X63951Y121978D01*
X64605Y121707D01*
X65294Y121542D01*
X66000Y121486D01*
X66706Y121542D01*
X67395Y121707D01*
X68049Y121978D01*
X68653Y122348D01*
X69192Y122808D01*
X69652Y123347D01*
X70022Y123951D01*
X70293Y124605D01*
X70458Y125294D01*
X70500Y126000D01*
X70458Y126706D01*
X70293Y127395D01*
X70022Y128049D01*
X69652Y128653D01*
X69192Y129192D01*
X68653Y129652D01*
X68049Y130022D01*
X67395Y130293D01*
X66706Y130458D01*
X66000Y130514D01*
X65294Y130458D01*
X64605Y130293D01*
X63951Y130022D01*
X63347Y129652D01*
X63000Y129356D01*
Y254007D01*
X67235Y254014D01*
X67465Y254069D01*
X67683Y254159D01*
X67884Y254283D01*
X68064Y254436D01*
X68217Y254616D01*
X68341Y254817D01*
X68431Y255035D01*
X68486Y255265D01*
X68500Y255500D01*
X68486Y263735D01*
X68431Y263965D01*
X68341Y264183D01*
X68217Y264384D01*
X68064Y264564D01*
X67884Y264717D01*
X67683Y264841D01*
X67465Y264931D01*
X67235Y264986D01*
X67000Y265000D01*
X63000Y264993D01*
Y278000D01*
X72280D01*
Y133456D01*
X72229Y133417D01*
X72174Y133361D01*
X72130Y133296D01*
X71936Y132944D01*
X71779Y132574D01*
X71656Y132191D01*
X71567Y131800D01*
X71513Y131401D01*
X71496Y131000D01*
X71513Y130599D01*
X71567Y130200D01*
X71656Y129809D01*
X71779Y129426D01*
X71936Y129056D01*
X72126Y128702D01*
X72171Y128637D01*
X72226Y128580D01*
X72280Y128540D01*
Y123456D01*
X72229Y123417D01*
X72174Y123361D01*
X72130Y123296D01*
X71936Y122944D01*
X71779Y122574D01*
X71656Y122191D01*
X71567Y121800D01*
X71513Y121401D01*
X71496Y121000D01*
X71513Y120599D01*
X71567Y120200D01*
X71656Y119809D01*
X71779Y119426D01*
X71936Y119056D01*
X72126Y118702D01*
X72171Y118637D01*
X72226Y118580D01*
X72280Y118540D01*
Y113541D01*
G37*
G36*
X63000Y109356D02*X62808Y109192D01*
X62348Y108653D01*
X61978Y108049D01*
X61751Y107500D01*
X47493D01*
Y133476D01*
X47654Y133665D01*
X48329Y134766D01*
X48823Y135958D01*
X49124Y137213D01*
X49200Y138500D01*
X49124Y139787D01*
X48823Y141042D01*
X48329Y142234D01*
X47654Y143335D01*
X47493Y143524D01*
Y256645D01*
X47578Y256681D01*
X47679Y256743D01*
X47769Y256819D01*
X47845Y256909D01*
X47905Y257011D01*
X48122Y257480D01*
X48289Y257969D01*
X48409Y258472D01*
X48482Y258984D01*
X48506Y259500D01*
X48482Y260016D01*
X48409Y260528D01*
X48289Y261031D01*
X48122Y261520D01*
X47910Y261992D01*
X47849Y262093D01*
X47772Y262184D01*
X47682Y262261D01*
X47580Y262323D01*
X47493Y262360D01*
Y278000D01*
X63000D01*
Y264993D01*
X58765Y264986D01*
X58535Y264931D01*
X58317Y264841D01*
X58116Y264717D01*
X57936Y264564D01*
X57783Y264384D01*
X57659Y264183D01*
X57569Y263965D01*
X57514Y263735D01*
X57500Y263500D01*
X57514Y255265D01*
X57569Y255035D01*
X57659Y254817D01*
X57783Y254616D01*
X57936Y254436D01*
X58116Y254283D01*
X58317Y254159D01*
X58535Y254069D01*
X58765Y254014D01*
X59000Y254000D01*
X63000Y254007D01*
Y129356D01*
X62808Y129192D01*
X62348Y128653D01*
X61978Y128049D01*
X61707Y127395D01*
X61542Y126706D01*
X61486Y126000D01*
X61542Y125294D01*
X61707Y124605D01*
X61978Y123951D01*
X62348Y123347D01*
X62808Y122808D01*
X63000Y122644D01*
Y119356D01*
X62808Y119192D01*
X62348Y118653D01*
X61978Y118049D01*
X61707Y117395D01*
X61542Y116706D01*
X61486Y116000D01*
X61542Y115294D01*
X61707Y114605D01*
X61978Y113951D01*
X62348Y113347D01*
X62808Y112808D01*
X63000Y112644D01*
Y109356D01*
G37*
G36*
X47493Y143524D02*X46816Y144316D01*
X45835Y145154D01*
X44734Y145829D01*
X43542Y146323D01*
X43002Y146452D01*
Y253994D01*
X43516Y254018D01*
X44028Y254091D01*
X44531Y254211D01*
X45020Y254378D01*
X45492Y254590D01*
X45593Y254651D01*
X45684Y254728D01*
X45761Y254818D01*
X45823Y254920D01*
X45869Y255029D01*
X45897Y255145D01*
X45906Y255263D01*
X45897Y255381D01*
X45870Y255497D01*
X45824Y255607D01*
X45762Y255708D01*
X45686Y255798D01*
X45595Y255876D01*
X45494Y255938D01*
X45385Y255984D01*
X45269Y256011D01*
X45151Y256021D01*
X45032Y256012D01*
X44917Y255984D01*
X44808Y255937D01*
X44468Y255779D01*
X44112Y255658D01*
X43747Y255570D01*
X43375Y255518D01*
X43002Y255500D01*
Y263500D01*
X43375Y263482D01*
X43747Y263430D01*
X44112Y263342D01*
X44468Y263221D01*
X44810Y263067D01*
X44918Y263020D01*
X45033Y262993D01*
X45151Y262983D01*
X45268Y262993D01*
X45383Y263021D01*
X45492Y263066D01*
X45593Y263128D01*
X45682Y263205D01*
X45759Y263295D01*
X45820Y263395D01*
X45865Y263504D01*
X45893Y263619D01*
X45902Y263737D01*
X45892Y263855D01*
X45865Y263969D01*
X45819Y264078D01*
X45757Y264179D01*
X45681Y264269D01*
X45591Y264345D01*
X45489Y264405D01*
X45020Y264622D01*
X44531Y264789D01*
X44028Y264909D01*
X43516Y264982D01*
X43002Y265006D01*
Y278000D01*
X47493D01*
Y262360D01*
X47471Y262369D01*
X47355Y262397D01*
X47237Y262406D01*
X47119Y262397D01*
X47003Y262370D01*
X46893Y262324D01*
X46792Y262262D01*
X46702Y262186D01*
X46624Y262095D01*
X46562Y261994D01*
X46516Y261885D01*
X46489Y261769D01*
X46479Y261651D01*
X46488Y261532D01*
X46516Y261417D01*
X46563Y261308D01*
X46721Y260968D01*
X46842Y260612D01*
X46930Y260247D01*
X46982Y259875D01*
X47000Y259500D01*
X46982Y259125D01*
X46930Y258753D01*
X46842Y258388D01*
X46721Y258032D01*
X46567Y257690D01*
X46520Y257582D01*
X46493Y257467D01*
X46483Y257349D01*
X46493Y257232D01*
X46521Y257117D01*
X46566Y257008D01*
X46628Y256907D01*
X46705Y256818D01*
X46795Y256741D01*
X46895Y256680D01*
X47004Y256635D01*
X47119Y256607D01*
X47237Y256598D01*
X47355Y256608D01*
X47469Y256635D01*
X47493Y256645D01*
Y143524D01*
G37*
G36*
Y107500D02*X43002D01*
Y130548D01*
X43542Y130677D01*
X44734Y131171D01*
X45835Y131846D01*
X46816Y132684D01*
X47493Y133476D01*
Y107500D01*
G37*
G36*
X40993Y254374D02*X41469Y254211D01*
X41972Y254091D01*
X42484Y254018D01*
X43000Y253994D01*
X43002Y253994D01*
Y146452D01*
X42287Y146624D01*
X41000Y146725D01*
X40993Y146725D01*
Y158145D01*
X41078Y158181D01*
X41179Y158243D01*
X41269Y158319D01*
X41345Y158409D01*
X41405Y158511D01*
X41622Y158980D01*
X41789Y159469D01*
X41909Y159972D01*
X41982Y160484D01*
X42006Y161000D01*
X41982Y161516D01*
X41909Y162028D01*
X41789Y162531D01*
X41622Y163020D01*
X41410Y163492D01*
X41349Y163593D01*
X41272Y163684D01*
X41182Y163761D01*
X41080Y163823D01*
X40993Y163860D01*
Y167805D01*
X41416Y168495D01*
X41747Y169295D01*
X41949Y170137D01*
X42000Y171000D01*
X41949Y171863D01*
X41747Y172705D01*
X41416Y173505D01*
X40993Y174195D01*
Y177805D01*
X41416Y178495D01*
X41747Y179295D01*
X41949Y180137D01*
X42000Y181000D01*
X41949Y181863D01*
X41747Y182705D01*
X41416Y183505D01*
X40993Y184195D01*
Y187805D01*
X41416Y188495D01*
X41747Y189295D01*
X41949Y190137D01*
X42000Y191000D01*
X41949Y191863D01*
X41747Y192705D01*
X41416Y193505D01*
X40993Y194195D01*
Y197805D01*
X41416Y198495D01*
X41747Y199295D01*
X41949Y200137D01*
X42000Y201000D01*
X41949Y201863D01*
X41747Y202705D01*
X41416Y203505D01*
X40993Y204195D01*
Y207805D01*
X41416Y208495D01*
X41747Y209295D01*
X41949Y210137D01*
X42000Y211000D01*
X41949Y211863D01*
X41747Y212705D01*
X41416Y213505D01*
X40993Y214195D01*
Y217805D01*
X41416Y218495D01*
X41747Y219295D01*
X41949Y220137D01*
X42000Y221000D01*
X41949Y221863D01*
X41747Y222705D01*
X41416Y223505D01*
X40993Y224195D01*
Y225580D01*
X41183Y225659D01*
X41384Y225783D01*
X41564Y225936D01*
X41717Y226116D01*
X41841Y226317D01*
X41931Y226535D01*
X41986Y226765D01*
X42000Y227000D01*
X41986Y235235D01*
X41931Y235465D01*
X41841Y235683D01*
X41717Y235884D01*
X41564Y236064D01*
X41384Y236217D01*
X41183Y236341D01*
X40993Y236420D01*
Y254374D01*
G37*
G36*
Y262994D02*X41083Y263016D01*
X41192Y263063D01*
X41532Y263221D01*
X41888Y263342D01*
X42253Y263430D01*
X42625Y263482D01*
X43000Y263500D01*
X43002Y263500D01*
Y255500D01*
X43000Y255500D01*
X42625Y255518D01*
X42253Y255570D01*
X41888Y255658D01*
X41532Y255779D01*
X41190Y255933D01*
X41082Y255980D01*
X40993Y256001D01*
Y262994D01*
G37*
G36*
Y278000D02*X43002D01*
Y265006D01*
X43000Y265006D01*
X42484Y264982D01*
X41972Y264909D01*
X41469Y264789D01*
X40993Y264626D01*
Y278000D01*
G37*
G36*
Y224195D02*X40963Y224243D01*
X40401Y224901D01*
X39743Y225463D01*
X39663Y225512D01*
X40735Y225514D01*
X40965Y225569D01*
X40993Y225580D01*
Y224195D01*
G37*
G36*
Y214195D02*X40963Y214243D01*
X40401Y214901D01*
X39743Y215463D01*
X39005Y215916D01*
X38801Y216000D01*
X39005Y216084D01*
X39743Y216537D01*
X40401Y217099D01*
X40963Y217757D01*
X40993Y217805D01*
Y214195D01*
G37*
G36*
Y204195D02*X40963Y204243D01*
X40401Y204901D01*
X39743Y205463D01*
X39005Y205916D01*
X38801Y206000D01*
X39005Y206084D01*
X39743Y206537D01*
X40401Y207099D01*
X40963Y207757D01*
X40993Y207805D01*
Y204195D01*
G37*
G36*
Y194195D02*X40963Y194243D01*
X40401Y194901D01*
X39743Y195463D01*
X39005Y195916D01*
X38801Y196000D01*
X39005Y196084D01*
X39743Y196537D01*
X40401Y197099D01*
X40963Y197757D01*
X40993Y197805D01*
Y194195D01*
G37*
G36*
Y184195D02*X40963Y184243D01*
X40401Y184901D01*
X39743Y185463D01*
X39005Y185916D01*
X38801Y186000D01*
X39005Y186084D01*
X39743Y186537D01*
X40401Y187099D01*
X40963Y187757D01*
X40993Y187805D01*
Y184195D01*
G37*
G36*
Y174195D02*X40963Y174243D01*
X40401Y174901D01*
X39743Y175463D01*
X39005Y175916D01*
X38801Y176000D01*
X39005Y176084D01*
X39743Y176537D01*
X40401Y177099D01*
X40963Y177757D01*
X40993Y177805D01*
Y174195D01*
G37*
G36*
Y146725D02*X39713Y146624D01*
X38507Y146335D01*
Y155874D01*
X38520Y155878D01*
X38992Y156090D01*
X39093Y156151D01*
X39184Y156228D01*
X39261Y156318D01*
X39323Y156420D01*
X39369Y156529D01*
X39397Y156645D01*
X39406Y156763D01*
X39397Y156881D01*
X39370Y156997D01*
X39324Y157107D01*
X39262Y157208D01*
X39186Y157298D01*
X39095Y157376D01*
X38994Y157438D01*
X38885Y157484D01*
X38769Y157511D01*
X38651Y157521D01*
X38532Y157512D01*
X38507Y157506D01*
Y164499D01*
X38533Y164493D01*
X38651Y164483D01*
X38768Y164493D01*
X38883Y164521D01*
X38992Y164566D01*
X39093Y164628D01*
X39182Y164705D01*
X39259Y164795D01*
X39320Y164895D01*
X39365Y165004D01*
X39393Y165119D01*
X39402Y165237D01*
X39392Y165355D01*
X39365Y165469D01*
X39319Y165578D01*
X39257Y165679D01*
X39181Y165769D01*
X39091Y165845D01*
X38989Y165905D01*
X38792Y165996D01*
X39005Y166084D01*
X39743Y166537D01*
X40401Y167099D01*
X40963Y167757D01*
X40993Y167805D01*
Y163860D01*
X40971Y163869D01*
X40855Y163897D01*
X40737Y163906D01*
X40619Y163897D01*
X40503Y163870D01*
X40393Y163824D01*
X40292Y163762D01*
X40202Y163686D01*
X40124Y163595D01*
X40062Y163494D01*
X40016Y163385D01*
X39989Y163269D01*
X39979Y163151D01*
X39988Y163032D01*
X40016Y162917D01*
X40063Y162808D01*
X40221Y162468D01*
X40342Y162112D01*
X40430Y161747D01*
X40482Y161375D01*
X40500Y161000D01*
X40482Y160625D01*
X40430Y160253D01*
X40342Y159888D01*
X40221Y159532D01*
X40067Y159190D01*
X40020Y159082D01*
X39993Y158967D01*
X39983Y158849D01*
X39993Y158732D01*
X40021Y158617D01*
X40066Y158508D01*
X40128Y158407D01*
X40205Y158318D01*
X40295Y158241D01*
X40395Y158180D01*
X40504Y158135D01*
X40619Y158107D01*
X40737Y158098D01*
X40855Y158108D01*
X40969Y158135D01*
X40993Y158145D01*
Y146725D01*
G37*
G36*
X38507Y278000D02*X40993D01*
Y264626D01*
X40980Y264622D01*
X40508Y264410D01*
X40407Y264349D01*
X40316Y264272D01*
X40239Y264182D01*
X40177Y264080D01*
X40131Y263971D01*
X40103Y263855D01*
X40094Y263737D01*
X40103Y263619D01*
X40130Y263503D01*
X40176Y263393D01*
X40238Y263292D01*
X40314Y263202D01*
X40405Y263124D01*
X40506Y263062D01*
X40615Y263016D01*
X40731Y262989D01*
X40849Y262979D01*
X40968Y262988D01*
X40993Y262994D01*
Y256001D01*
X40967Y256007D01*
X40849Y256017D01*
X40732Y256007D01*
X40617Y255979D01*
X40508Y255934D01*
X40407Y255872D01*
X40318Y255795D01*
X40241Y255705D01*
X40180Y255605D01*
X40135Y255496D01*
X40107Y255381D01*
X40098Y255263D01*
X40108Y255145D01*
X40135Y255031D01*
X40181Y254922D01*
X40243Y254821D01*
X40319Y254731D01*
X40409Y254655D01*
X40511Y254595D01*
X40980Y254378D01*
X40993Y254374D01*
Y236420D01*
X40965Y236431D01*
X40735Y236486D01*
X40500Y236500D01*
X38507Y236497D01*
Y256640D01*
X38529Y256631D01*
X38645Y256603D01*
X38763Y256594D01*
X38881Y256603D01*
X38997Y256630D01*
X39107Y256676D01*
X39208Y256738D01*
X39298Y256814D01*
X39376Y256905D01*
X39438Y257006D01*
X39484Y257115D01*
X39511Y257231D01*
X39521Y257349D01*
X39512Y257468D01*
X39484Y257583D01*
X39437Y257692D01*
X39279Y258032D01*
X39158Y258388D01*
X39070Y258753D01*
X39018Y259125D01*
X39000Y259500D01*
X39018Y259875D01*
X39070Y260247D01*
X39158Y260612D01*
X39279Y260968D01*
X39433Y261310D01*
X39480Y261418D01*
X39507Y261533D01*
X39517Y261651D01*
X39507Y261768D01*
X39479Y261883D01*
X39434Y261992D01*
X39372Y262093D01*
X39295Y262182D01*
X39205Y262259D01*
X39105Y262320D01*
X38996Y262365D01*
X38881Y262393D01*
X38763Y262402D01*
X38645Y262392D01*
X38531Y262365D01*
X38507Y262355D01*
Y278000D01*
G37*
G36*
X43002Y107500D02*X38507D01*
Y130665D01*
X39713Y130376D01*
X41000Y130275D01*
X42287Y130376D01*
X43002Y130548D01*
Y107500D01*
G37*
G36*
X32007Y177805D02*X32037Y177757D01*
X32599Y177099D01*
X33257Y176537D01*
X33995Y176084D01*
X34199Y176000D01*
X33995Y175916D01*
X33257Y175463D01*
X32599Y174901D01*
X32037Y174243D01*
X32007Y174195D01*
Y177805D01*
G37*
G36*
Y187805D02*X32037Y187757D01*
X32599Y187099D01*
X33257Y186537D01*
X33995Y186084D01*
X34199Y186000D01*
X33995Y185916D01*
X33257Y185463D01*
X32599Y184901D01*
X32037Y184243D01*
X32007Y184195D01*
Y187805D01*
G37*
G36*
Y197805D02*X32037Y197757D01*
X32599Y197099D01*
X33257Y196537D01*
X33995Y196084D01*
X34199Y196000D01*
X33995Y195916D01*
X33257Y195463D01*
X32599Y194901D01*
X32037Y194243D01*
X32007Y194195D01*
Y197805D01*
G37*
G36*
Y207805D02*X32037Y207757D01*
X32599Y207099D01*
X33257Y206537D01*
X33995Y206084D01*
X34199Y206000D01*
X33995Y205916D01*
X33257Y205463D01*
X32599Y204901D01*
X32037Y204243D01*
X32007Y204195D01*
Y207805D01*
G37*
G36*
Y217805D02*X32037Y217757D01*
X32599Y217099D01*
X33257Y216537D01*
X33995Y216084D01*
X34199Y216000D01*
X33995Y215916D01*
X33257Y215463D01*
X32599Y214901D01*
X32037Y214243D01*
X32007Y214195D01*
Y217805D01*
G37*
G36*
Y225580D02*X32035Y225569D01*
X32265Y225514D01*
X32500Y225500D01*
X33319Y225501D01*
X33257Y225463D01*
X32599Y224901D01*
X32037Y224243D01*
X32007Y224195D01*
Y225580D01*
G37*
G36*
Y258326D02*X32539Y260539D01*
X32684Y263000D01*
X32539Y265461D01*
X32007Y267674D01*
Y278000D01*
X38507D01*
Y262355D01*
X38422Y262319D01*
X38321Y262257D01*
X38231Y262181D01*
X38155Y262091D01*
X38095Y261989D01*
X37878Y261520D01*
X37711Y261031D01*
X37591Y260528D01*
X37518Y260016D01*
X37494Y259500D01*
X37518Y258984D01*
X37591Y258472D01*
X37711Y257969D01*
X37878Y257480D01*
X38090Y257008D01*
X38151Y256907D01*
X38228Y256816D01*
X38318Y256739D01*
X38420Y256677D01*
X38507Y256640D01*
Y236497D01*
X32265Y236486D01*
X32035Y236431D01*
X32007Y236420D01*
Y258326D01*
G37*
G36*
X38507Y107500D02*X32007D01*
Y158140D01*
X32029Y158131D01*
X32145Y158103D01*
X32263Y158094D01*
X32381Y158103D01*
X32497Y158130D01*
X32607Y158176D01*
X32708Y158238D01*
X32798Y158314D01*
X32876Y158405D01*
X32938Y158506D01*
X32984Y158615D01*
X33011Y158731D01*
X33021Y158849D01*
X33012Y158968D01*
X32984Y159083D01*
X32937Y159192D01*
X32779Y159532D01*
X32658Y159888D01*
X32570Y160253D01*
X32518Y160625D01*
X32500Y161000D01*
X32518Y161375D01*
X32570Y161747D01*
X32658Y162112D01*
X32779Y162468D01*
X32933Y162810D01*
X32980Y162918D01*
X33007Y163033D01*
X33017Y163151D01*
X33007Y163268D01*
X32979Y163383D01*
X32934Y163492D01*
X32872Y163593D01*
X32795Y163682D01*
X32705Y163759D01*
X32605Y163820D01*
X32496Y163865D01*
X32381Y163893D01*
X32263Y163902D01*
X32145Y163892D01*
X32031Y163865D01*
X32007Y163855D01*
Y167805D01*
X32037Y167757D01*
X32599Y167099D01*
X33257Y166537D01*
X33995Y166084D01*
X34204Y165998D01*
X34008Y165910D01*
X33907Y165849D01*
X33816Y165772D01*
X33739Y165682D01*
X33677Y165580D01*
X33631Y165471D01*
X33603Y165355D01*
X33594Y165237D01*
X33603Y165119D01*
X33630Y165003D01*
X33676Y164893D01*
X33738Y164792D01*
X33814Y164702D01*
X33905Y164624D01*
X34006Y164562D01*
X34115Y164516D01*
X34231Y164489D01*
X34349Y164479D01*
X34468Y164488D01*
X34583Y164516D01*
X34692Y164563D01*
X35032Y164721D01*
X35388Y164842D01*
X35753Y164930D01*
X36125Y164982D01*
X36500Y165000D01*
X36875Y164982D01*
X37247Y164930D01*
X37612Y164842D01*
X37968Y164721D01*
X38310Y164567D01*
X38418Y164520D01*
X38507Y164499D01*
Y157506D01*
X38417Y157484D01*
X38308Y157437D01*
X37968Y157279D01*
X37612Y157158D01*
X37247Y157070D01*
X36875Y157018D01*
X36500Y157000D01*
X36125Y157018D01*
X35753Y157070D01*
X35388Y157158D01*
X35032Y157279D01*
X34690Y157433D01*
X34582Y157480D01*
X34467Y157507D01*
X34349Y157517D01*
X34232Y157507D01*
X34117Y157479D01*
X34008Y157434D01*
X33907Y157372D01*
X33818Y157295D01*
X33741Y157205D01*
X33680Y157105D01*
X33635Y156996D01*
X33607Y156881D01*
X33598Y156763D01*
X33608Y156645D01*
X33635Y156531D01*
X33681Y156422D01*
X33743Y156321D01*
X33819Y156231D01*
X33909Y156155D01*
X34011Y156095D01*
X34480Y155878D01*
X34969Y155711D01*
X35472Y155591D01*
X35984Y155518D01*
X36500Y155494D01*
X37016Y155518D01*
X37528Y155591D01*
X38031Y155711D01*
X38507Y155874D01*
Y146335D01*
X38458Y146323D01*
X37266Y145829D01*
X36165Y145154D01*
X35184Y144316D01*
X34346Y143335D01*
X33671Y142234D01*
X33177Y141042D01*
X32876Y139787D01*
X32775Y138500D01*
X32876Y137213D01*
X33177Y135958D01*
X33671Y134766D01*
X34346Y133665D01*
X35184Y132684D01*
X36165Y131846D01*
X37266Y131171D01*
X38458Y130677D01*
X38507Y130665D01*
Y107500D01*
G37*
G36*
X32007Y267674D02*X31962Y267862D01*
X31018Y270142D01*
X29728Y272247D01*
X28124Y274124D01*
X26247Y275728D01*
X24142Y277018D01*
X21862Y277962D01*
X21705Y278000D01*
X32007D01*
Y267674D01*
G37*
G36*
Y107500D02*X3500D01*
Y255013D01*
X4272Y253753D01*
X5876Y251876D01*
X7753Y250272D01*
X9858Y248982D01*
X12138Y248038D01*
X14539Y247461D01*
X17000Y247268D01*
X19461Y247461D01*
X21862Y248038D01*
X24142Y248982D01*
X26247Y250272D01*
X28124Y251876D01*
X29728Y253753D01*
X31018Y255858D01*
X31962Y258138D01*
X32007Y258326D01*
Y236420D01*
X31817Y236341D01*
X31616Y236217D01*
X31436Y236064D01*
X31283Y235884D01*
X31159Y235683D01*
X31069Y235465D01*
X31014Y235235D01*
X31000Y235000D01*
X31014Y226765D01*
X31069Y226535D01*
X31159Y226317D01*
X31283Y226116D01*
X31436Y225936D01*
X31616Y225783D01*
X31817Y225659D01*
X32007Y225580D01*
Y224195D01*
X31584Y223505D01*
X31253Y222705D01*
X31051Y221863D01*
X30983Y221000D01*
X31051Y220137D01*
X31253Y219295D01*
X31584Y218495D01*
X32007Y217805D01*
Y214195D01*
X31584Y213505D01*
X31253Y212705D01*
X31051Y211863D01*
X30983Y211000D01*
X31051Y210137D01*
X31253Y209295D01*
X31584Y208495D01*
X32007Y207805D01*
Y204195D01*
X31584Y203505D01*
X31253Y202705D01*
X31051Y201863D01*
X30983Y201000D01*
X31051Y200137D01*
X31253Y199295D01*
X31584Y198495D01*
X32007Y197805D01*
Y194195D01*
X31584Y193505D01*
X31253Y192705D01*
X31051Y191863D01*
X30983Y191000D01*
X31051Y190137D01*
X31253Y189295D01*
X31584Y188495D01*
X32007Y187805D01*
Y184195D01*
X31584Y183505D01*
X31253Y182705D01*
X31051Y181863D01*
X30983Y181000D01*
X31051Y180137D01*
X31253Y179295D01*
X31584Y178495D01*
X32007Y177805D01*
Y174195D01*
X31584Y173505D01*
X31253Y172705D01*
X31051Y171863D01*
X30983Y171000D01*
X31051Y170137D01*
X31253Y169295D01*
X31584Y168495D01*
X32007Y167805D01*
Y163855D01*
X31922Y163819D01*
X31821Y163757D01*
X31731Y163681D01*
X31655Y163591D01*
X31595Y163489D01*
X31378Y163020D01*
X31211Y162531D01*
X31091Y162028D01*
X31018Y161516D01*
X30994Y161000D01*
X31018Y160484D01*
X31091Y159972D01*
X31211Y159469D01*
X31378Y158980D01*
X31590Y158508D01*
X31651Y158407D01*
X31728Y158316D01*
X31818Y158239D01*
X31920Y158177D01*
X32007Y158140D01*
Y107500D01*
G37*
G36*
X40987Y130276D02*X41000Y130275D01*
X42287Y130376D01*
X43542Y130677D01*
X44734Y131171D01*
X45835Y131846D01*
X46816Y132684D01*
X47654Y133665D01*
X48329Y134766D01*
X48823Y135958D01*
X49124Y137213D01*
X49200Y138500D01*
X49141Y139500D01*
X52500D01*
Y52000D01*
X40987D01*
Y72776D01*
X41000Y72775D01*
X42287Y72876D01*
X43542Y73177D01*
X44734Y73671D01*
X45835Y74346D01*
X46816Y75184D01*
X47654Y76165D01*
X48329Y77266D01*
X48823Y78458D01*
X49124Y79713D01*
X49200Y81000D01*
X49124Y82287D01*
X48823Y83542D01*
X48329Y84734D01*
X47654Y85835D01*
X46816Y86816D01*
X45835Y87654D01*
X44734Y88329D01*
X43542Y88823D01*
X42287Y89124D01*
X41000Y89225D01*
X40987Y89224D01*
Y90276D01*
X41000Y90275D01*
X42287Y90376D01*
X43542Y90677D01*
X44734Y91171D01*
X45835Y91846D01*
X46816Y92684D01*
X47654Y93665D01*
X48329Y94766D01*
X48823Y95958D01*
X49124Y97213D01*
X49200Y98500D01*
X49124Y99787D01*
X48823Y101042D01*
X48329Y102234D01*
X47654Y103335D01*
X46816Y104316D01*
X45835Y105154D01*
X44734Y105829D01*
X43542Y106323D01*
X42287Y106624D01*
X41000Y106725D01*
X40987Y106724D01*
Y130276D01*
G37*
G36*
X3500Y139500D02*X32853D01*
X32775Y138500D01*
X32876Y137213D01*
X33177Y135958D01*
X33671Y134766D01*
X34346Y133665D01*
X35184Y132684D01*
X36165Y131846D01*
X37266Y131171D01*
X38458Y130677D01*
X39713Y130376D01*
X40987Y130276D01*
Y106724D01*
X39713Y106624D01*
X38458Y106323D01*
X37266Y105829D01*
X36165Y105154D01*
X35184Y104316D01*
X34346Y103335D01*
X33671Y102234D01*
X33177Y101042D01*
X32876Y99787D01*
X32775Y98500D01*
X32876Y97213D01*
X33177Y95958D01*
X33671Y94766D01*
X34346Y93665D01*
X35184Y92684D01*
X36165Y91846D01*
X37266Y91171D01*
X38458Y90677D01*
X39713Y90376D01*
X40987Y90276D01*
Y89224D01*
X39713Y89124D01*
X38458Y88823D01*
X37266Y88329D01*
X36165Y87654D01*
X35184Y86816D01*
X34346Y85835D01*
X33671Y84734D01*
X33177Y83542D01*
X32876Y82287D01*
X32775Y81000D01*
X32876Y79713D01*
X33177Y78458D01*
X33671Y77266D01*
X34346Y76165D01*
X35184Y75184D01*
X36165Y74346D01*
X37266Y73671D01*
X38458Y73177D01*
X39713Y72876D01*
X40987Y72776D01*
Y52000D01*
X3500D01*
Y139500D01*
G37*
G36*
X76002Y48986D02*X76706Y49042D01*
X77395Y49207D01*
X78049Y49478D01*
X78653Y49848D01*
X79192Y50308D01*
X79652Y50847D01*
X79922Y51287D01*
X80197Y51354D01*
X80525Y51489D01*
X80827Y51674D01*
X81096Y51904D01*
X81153Y51971D01*
X84500Y55318D01*
Y32500D01*
X76002D01*
Y48986D01*
G37*
G36*
X79720Y98250D02*X84500D01*
Y89682D01*
X82971Y88153D01*
X82904Y88096D01*
X82674Y87827D01*
X82489Y87525D01*
X82354Y87197D01*
X82271Y86853D01*
X82271Y86853D01*
X82243Y86500D01*
X82250Y86412D01*
Y59432D01*
X79720Y56902D01*
Y61044D01*
X79771Y61083D01*
X79826Y61139D01*
X79870Y61204D01*
X80064Y61556D01*
X80221Y61926D01*
X80344Y62309D01*
X80433Y62700D01*
X80487Y63099D01*
X80504Y63500D01*
X80487Y63901D01*
X80433Y64300D01*
X80344Y64691D01*
X80221Y65074D01*
X80064Y65444D01*
X79874Y65798D01*
X79829Y65863D01*
X79774Y65920D01*
X79720Y65960D01*
Y71044D01*
X79771Y71083D01*
X79826Y71139D01*
X79870Y71204D01*
X80064Y71556D01*
X80221Y71926D01*
X80344Y72309D01*
X80433Y72700D01*
X80487Y73099D01*
X80504Y73500D01*
X80487Y73901D01*
X80433Y74300D01*
X80344Y74691D01*
X80221Y75074D01*
X80064Y75444D01*
X79874Y75798D01*
X79829Y75863D01*
X79774Y75920D01*
X79720Y75960D01*
Y98250D01*
G37*
G36*
X76002Y95320D02*X78932Y98250D01*
X79720D01*
Y75960D01*
X79710Y75968D01*
X79640Y76004D01*
X79565Y76030D01*
X79487Y76044D01*
X79408Y76045D01*
X79329Y76033D01*
X79254Y76010D01*
X79183Y75975D01*
X79118Y75929D01*
X79061Y75874D01*
X79013Y75811D01*
X78976Y75741D01*
X78951Y75666D01*
X78937Y75588D01*
X78936Y75508D01*
X78948Y75430D01*
X78971Y75354D01*
X79007Y75284D01*
X79157Y75010D01*
X79279Y74723D01*
X79375Y74426D01*
X79444Y74121D01*
X79486Y73812D01*
X79500Y73500D01*
X79486Y73188D01*
X79444Y72879D01*
X79375Y72574D01*
X79279Y72277D01*
X79157Y71990D01*
X79010Y71714D01*
X78974Y71645D01*
X78951Y71569D01*
X78940Y71491D01*
X78941Y71413D01*
X78954Y71335D01*
X78980Y71261D01*
X79016Y71191D01*
X79064Y71128D01*
X79120Y71073D01*
X79184Y71028D01*
X79255Y70993D01*
X79330Y70970D01*
X79408Y70959D01*
X79487Y70960D01*
X79564Y70973D01*
X79639Y70999D01*
X79708Y71035D01*
X79720Y71044D01*
Y65960D01*
X79710Y65968D01*
X79640Y66004D01*
X79565Y66030D01*
X79487Y66044D01*
X79408Y66045D01*
X79329Y66033D01*
X79254Y66010D01*
X79183Y65975D01*
X79118Y65929D01*
X79061Y65874D01*
X79013Y65811D01*
X78976Y65741D01*
X78951Y65666D01*
X78937Y65588D01*
X78936Y65508D01*
X78948Y65430D01*
X78971Y65354D01*
X79007Y65284D01*
X79157Y65010D01*
X79279Y64723D01*
X79375Y64426D01*
X79444Y64121D01*
X79486Y63812D01*
X79500Y63500D01*
X79486Y63188D01*
X79444Y62879D01*
X79375Y62574D01*
X79279Y62277D01*
X79157Y61990D01*
X79010Y61714D01*
X78974Y61645D01*
X78951Y61569D01*
X78940Y61491D01*
X78941Y61413D01*
X78954Y61335D01*
X78980Y61261D01*
X79016Y61191D01*
X79064Y61128D01*
X79120Y61073D01*
X79184Y61028D01*
X79255Y60993D01*
X79330Y60970D01*
X79408Y60959D01*
X79487Y60960D01*
X79564Y60973D01*
X79639Y60999D01*
X79708Y61035D01*
X79720Y61044D01*
Y56902D01*
X79338Y56520D01*
X79192Y56692D01*
X78653Y57152D01*
X78049Y57522D01*
X77395Y57793D01*
X76706Y57958D01*
X76002Y58014D01*
Y58996D01*
X76401Y59013D01*
X76800Y59067D01*
X77191Y59156D01*
X77574Y59279D01*
X77944Y59436D01*
X78298Y59626D01*
X78363Y59671D01*
X78420Y59726D01*
X78468Y59790D01*
X78504Y59860D01*
X78530Y59935D01*
X78544Y60013D01*
X78545Y60092D01*
X78533Y60171D01*
X78510Y60246D01*
X78475Y60317D01*
X78429Y60382D01*
X78374Y60439D01*
X78311Y60487D01*
X78241Y60524D01*
X78166Y60549D01*
X78088Y60563D01*
X78008Y60564D01*
X77930Y60552D01*
X77854Y60529D01*
X77784Y60493D01*
X77510Y60343D01*
X77223Y60221D01*
X76926Y60125D01*
X76621Y60056D01*
X76312Y60014D01*
X76002Y60000D01*
Y67000D01*
X76312Y66986D01*
X76621Y66944D01*
X76926Y66875D01*
X77223Y66779D01*
X77510Y66657D01*
X77786Y66510D01*
X77855Y66474D01*
X77931Y66451D01*
X78009Y66440D01*
X78087Y66441D01*
X78165Y66454D01*
X78239Y66480D01*
X78309Y66516D01*
X78372Y66564D01*
X78427Y66620D01*
X78472Y66684D01*
X78507Y66755D01*
X78530Y66830D01*
X78541Y66908D01*
X78540Y66987D01*
X78527Y67064D01*
X78501Y67139D01*
X78465Y67208D01*
X78417Y67271D01*
X78361Y67326D01*
X78296Y67370D01*
X77944Y67564D01*
X77574Y67721D01*
X77191Y67844D01*
X76800Y67933D01*
X76401Y67987D01*
X76002Y68004D01*
Y68996D01*
X76401Y69013D01*
X76800Y69067D01*
X77191Y69156D01*
X77574Y69279D01*
X77944Y69436D01*
X78298Y69626D01*
X78363Y69671D01*
X78420Y69726D01*
X78468Y69790D01*
X78504Y69860D01*
X78530Y69935D01*
X78544Y70013D01*
X78545Y70092D01*
X78533Y70171D01*
X78510Y70246D01*
X78475Y70317D01*
X78429Y70382D01*
X78374Y70439D01*
X78311Y70487D01*
X78241Y70524D01*
X78166Y70549D01*
X78088Y70563D01*
X78008Y70564D01*
X77930Y70552D01*
X77854Y70529D01*
X77784Y70493D01*
X77510Y70343D01*
X77223Y70221D01*
X76926Y70125D01*
X76621Y70056D01*
X76312Y70014D01*
X76002Y70000D01*
Y77000D01*
X76312Y76986D01*
X76621Y76944D01*
X76926Y76875D01*
X77223Y76779D01*
X77510Y76657D01*
X77786Y76510D01*
X77855Y76474D01*
X77931Y76451D01*
X78009Y76440D01*
X78087Y76441D01*
X78165Y76454D01*
X78239Y76480D01*
X78309Y76516D01*
X78372Y76564D01*
X78427Y76620D01*
X78472Y76684D01*
X78507Y76755D01*
X78530Y76830D01*
X78541Y76908D01*
X78540Y76987D01*
X78527Y77064D01*
X78501Y77139D01*
X78465Y77208D01*
X78417Y77271D01*
X78361Y77326D01*
X78296Y77370D01*
X77944Y77564D01*
X77574Y77721D01*
X77191Y77844D01*
X76800Y77933D01*
X76401Y77987D01*
X76002Y78004D01*
Y95320D01*
G37*
G36*
Y106486D02*X76706Y106542D01*
X77395Y106707D01*
X78049Y106978D01*
X78653Y107348D01*
X79192Y107808D01*
X79652Y108347D01*
X79899Y108750D01*
X84500D01*
Y102750D01*
X78088D01*
X78000Y102757D01*
X77647Y102729D01*
X77303Y102646D01*
X76975Y102511D01*
X76673Y102326D01*
X76673Y102326D01*
X76404Y102096D01*
X76347Y102029D01*
X76002Y101684D01*
Y106486D01*
G37*
G36*
Y120000D02*X79351D01*
X79279Y119777D01*
X79157Y119490D01*
X79010Y119214D01*
X78974Y119145D01*
X78951Y119069D01*
X78940Y118991D01*
X78941Y118913D01*
X78954Y118835D01*
X78980Y118761D01*
X79016Y118691D01*
X79064Y118628D01*
X79120Y118573D01*
X79184Y118528D01*
X79255Y118493D01*
X79330Y118470D01*
X79408Y118459D01*
X79487Y118460D01*
X79564Y118473D01*
X79639Y118499D01*
X79708Y118535D01*
X79771Y118583D01*
X79826Y118639D01*
X79870Y118704D01*
X80064Y119056D01*
X80221Y119426D01*
X80344Y119809D01*
X80387Y120000D01*
X84500D01*
Y113250D01*
X79899D01*
X79652Y113653D01*
X79192Y114192D01*
X78653Y114652D01*
X78049Y115022D01*
X77395Y115293D01*
X76706Y115458D01*
X76002Y115514D01*
Y116496D01*
X76401Y116513D01*
X76800Y116567D01*
X77191Y116656D01*
X77574Y116779D01*
X77944Y116936D01*
X78298Y117126D01*
X78363Y117171D01*
X78420Y117226D01*
X78468Y117290D01*
X78504Y117360D01*
X78530Y117435D01*
X78544Y117513D01*
X78545Y117592D01*
X78533Y117671D01*
X78510Y117746D01*
X78475Y117817D01*
X78429Y117882D01*
X78374Y117939D01*
X78311Y117987D01*
X78241Y118024D01*
X78166Y118049D01*
X78088Y118063D01*
X78008Y118064D01*
X77930Y118052D01*
X77854Y118029D01*
X77784Y117993D01*
X77510Y117843D01*
X77223Y117721D01*
X76926Y117625D01*
X76621Y117556D01*
X76312Y117514D01*
X76002Y117500D01*
Y120000D01*
G37*
G36*
X72280Y50959D02*X72348Y50847D01*
X72808Y50308D01*
X73347Y49848D01*
X73951Y49478D01*
X74605Y49207D01*
X75294Y49042D01*
X76000Y48986D01*
X76002Y48986D01*
Y32500D01*
X72280D01*
Y50959D01*
G37*
G36*
Y91598D02*X76002Y95320D01*
Y78004D01*
X76000Y78004D01*
X75599Y77987D01*
X75200Y77933D01*
X74809Y77844D01*
X74426Y77721D01*
X74056Y77564D01*
X73702Y77374D01*
X73637Y77329D01*
X73580Y77274D01*
X73532Y77210D01*
X73496Y77140D01*
X73470Y77065D01*
X73456Y76987D01*
X73455Y76908D01*
X73467Y76829D01*
X73490Y76754D01*
X73525Y76683D01*
X73571Y76618D01*
X73626Y76561D01*
X73689Y76513D01*
X73759Y76476D01*
X73834Y76451D01*
X73912Y76437D01*
X73992Y76436D01*
X74070Y76448D01*
X74146Y76471D01*
X74216Y76507D01*
X74490Y76657D01*
X74777Y76779D01*
X75074Y76875D01*
X75379Y76944D01*
X75688Y76986D01*
X76000Y77000D01*
X76002Y77000D01*
Y70000D01*
X76000Y70000D01*
X75688Y70014D01*
X75379Y70056D01*
X75074Y70125D01*
X74777Y70221D01*
X74490Y70343D01*
X74214Y70490D01*
X74145Y70526D01*
X74069Y70549D01*
X73991Y70560D01*
X73913Y70559D01*
X73835Y70546D01*
X73761Y70520D01*
X73691Y70484D01*
X73628Y70436D01*
X73573Y70380D01*
X73528Y70316D01*
X73493Y70245D01*
X73470Y70170D01*
X73459Y70092D01*
X73460Y70013D01*
X73473Y69936D01*
X73499Y69861D01*
X73535Y69792D01*
X73583Y69729D01*
X73639Y69674D01*
X73704Y69630D01*
X74056Y69436D01*
X74426Y69279D01*
X74809Y69156D01*
X75200Y69067D01*
X75599Y69013D01*
X76000Y68996D01*
X76002Y68996D01*
Y68004D01*
X76000Y68004D01*
X75599Y67987D01*
X75200Y67933D01*
X74809Y67844D01*
X74426Y67721D01*
X74056Y67564D01*
X73702Y67374D01*
X73637Y67329D01*
X73580Y67274D01*
X73532Y67210D01*
X73496Y67140D01*
X73470Y67065D01*
X73456Y66987D01*
X73455Y66908D01*
X73467Y66829D01*
X73490Y66754D01*
X73525Y66683D01*
X73571Y66618D01*
X73626Y66561D01*
X73689Y66513D01*
X73759Y66476D01*
X73834Y66451D01*
X73912Y66437D01*
X73992Y66436D01*
X74070Y66448D01*
X74146Y66471D01*
X74216Y66507D01*
X74490Y66657D01*
X74777Y66779D01*
X75074Y66875D01*
X75379Y66944D01*
X75688Y66986D01*
X76000Y67000D01*
X76002Y67000D01*
Y60000D01*
X76000Y60000D01*
X75688Y60014D01*
X75379Y60056D01*
X75074Y60125D01*
X74777Y60221D01*
X74490Y60343D01*
X74214Y60490D01*
X74145Y60526D01*
X74069Y60549D01*
X73991Y60560D01*
X73913Y60559D01*
X73835Y60546D01*
X73761Y60520D01*
X73691Y60484D01*
X73628Y60436D01*
X73573Y60380D01*
X73528Y60316D01*
X73493Y60245D01*
X73470Y60170D01*
X73459Y60092D01*
X73460Y60013D01*
X73473Y59936D01*
X73499Y59861D01*
X73535Y59792D01*
X73583Y59729D01*
X73639Y59674D01*
X73704Y59630D01*
X74056Y59436D01*
X74426Y59279D01*
X74809Y59156D01*
X75200Y59067D01*
X75599Y59013D01*
X76000Y58996D01*
X76002Y58996D01*
Y58014D01*
X76000Y58014D01*
X75294Y57958D01*
X74605Y57793D01*
X73951Y57522D01*
X73347Y57152D01*
X72808Y56692D01*
X72348Y56153D01*
X72280Y56041D01*
Y61040D01*
X72290Y61032D01*
X72360Y60996D01*
X72435Y60970D01*
X72513Y60956D01*
X72592Y60955D01*
X72671Y60967D01*
X72746Y60990D01*
X72817Y61025D01*
X72882Y61071D01*
X72939Y61126D01*
X72987Y61189D01*
X73024Y61259D01*
X73049Y61334D01*
X73063Y61412D01*
X73064Y61492D01*
X73052Y61570D01*
X73029Y61646D01*
X72993Y61716D01*
X72843Y61990D01*
X72721Y62277D01*
X72625Y62574D01*
X72556Y62879D01*
X72514Y63188D01*
X72500Y63500D01*
X72514Y63812D01*
X72556Y64121D01*
X72625Y64426D01*
X72721Y64723D01*
X72843Y65010D01*
X72990Y65286D01*
X73026Y65355D01*
X73049Y65431D01*
X73060Y65509D01*
X73059Y65587D01*
X73046Y65665D01*
X73020Y65739D01*
X72984Y65809D01*
X72936Y65872D01*
X72880Y65927D01*
X72816Y65972D01*
X72745Y66007D01*
X72670Y66030D01*
X72592Y66041D01*
X72513Y66040D01*
X72436Y66027D01*
X72361Y66001D01*
X72292Y65965D01*
X72280Y65956D01*
Y71040D01*
X72290Y71032D01*
X72360Y70996D01*
X72435Y70970D01*
X72513Y70956D01*
X72592Y70955D01*
X72671Y70967D01*
X72746Y70990D01*
X72817Y71025D01*
X72882Y71071D01*
X72939Y71126D01*
X72987Y71189D01*
X73024Y71259D01*
X73049Y71334D01*
X73063Y71412D01*
X73064Y71492D01*
X73052Y71570D01*
X73029Y71646D01*
X72993Y71716D01*
X72843Y71990D01*
X72721Y72277D01*
X72625Y72574D01*
X72556Y72879D01*
X72514Y73188D01*
X72500Y73500D01*
X72514Y73812D01*
X72556Y74121D01*
X72625Y74426D01*
X72721Y74723D01*
X72843Y75010D01*
X72990Y75286D01*
X73026Y75355D01*
X73049Y75431D01*
X73060Y75509D01*
X73059Y75587D01*
X73046Y75665D01*
X73020Y75739D01*
X72984Y75809D01*
X72936Y75872D01*
X72880Y75927D01*
X72816Y75972D01*
X72745Y76007D01*
X72670Y76030D01*
X72592Y76041D01*
X72513Y76040D01*
X72436Y76027D01*
X72361Y76001D01*
X72292Y75965D01*
X72280Y75956D01*
Y91598D01*
G37*
G36*
X65993Y63987D02*X66000Y63986D01*
X66706Y64042D01*
X67395Y64207D01*
X68049Y64478D01*
X68653Y64848D01*
X69192Y65308D01*
X69652Y65847D01*
X70022Y66451D01*
X70293Y67105D01*
X70458Y67794D01*
X70500Y68500D01*
X70458Y69206D01*
X70293Y69895D01*
X70022Y70549D01*
X69652Y71153D01*
X69192Y71692D01*
X68653Y72152D01*
X68250Y72399D01*
Y87568D01*
X72280Y91598D01*
Y75956D01*
X72229Y75917D01*
X72174Y75861D01*
X72130Y75796D01*
X71936Y75444D01*
X71779Y75074D01*
X71656Y74691D01*
X71567Y74300D01*
X71513Y73901D01*
X71496Y73500D01*
X71513Y73099D01*
X71567Y72700D01*
X71656Y72309D01*
X71779Y71926D01*
X71936Y71556D01*
X72126Y71202D01*
X72171Y71137D01*
X72226Y71080D01*
X72280Y71040D01*
Y65956D01*
X72229Y65917D01*
X72174Y65861D01*
X72130Y65796D01*
X71936Y65444D01*
X71779Y65074D01*
X71656Y64691D01*
X71567Y64300D01*
X71513Y63901D01*
X71496Y63500D01*
X71513Y63099D01*
X71567Y62700D01*
X71656Y62309D01*
X71779Y61926D01*
X71936Y61556D01*
X72126Y61202D01*
X72171Y61137D01*
X72226Y61080D01*
X72280Y61040D01*
Y56041D01*
X71978Y55549D01*
X71707Y54895D01*
X71542Y54206D01*
X71486Y53500D01*
X71542Y52794D01*
X71707Y52105D01*
X71978Y51451D01*
X72280Y50959D01*
Y32500D01*
X65993D01*
Y43987D01*
X66000Y43986D01*
X66706Y44042D01*
X67395Y44207D01*
X68049Y44478D01*
X68653Y44848D01*
X69192Y45308D01*
X69652Y45847D01*
X70022Y46451D01*
X70293Y47105D01*
X70458Y47794D01*
X70500Y48500D01*
X70458Y49206D01*
X70293Y49895D01*
X70022Y50549D01*
X69652Y51153D01*
X69192Y51692D01*
X68653Y52152D01*
X68049Y52522D01*
X67395Y52793D01*
X66706Y52958D01*
X66000Y53014D01*
X65993Y53013D01*
Y53987D01*
X66000Y53986D01*
X66706Y54042D01*
X67395Y54207D01*
X68049Y54478D01*
X68653Y54848D01*
X69192Y55308D01*
X69652Y55847D01*
X70022Y56451D01*
X70293Y57105D01*
X70458Y57794D01*
X70500Y58500D01*
X70458Y59206D01*
X70293Y59895D01*
X70022Y60549D01*
X69652Y61153D01*
X69192Y61692D01*
X68653Y62152D01*
X68049Y62522D01*
X67395Y62793D01*
X66706Y62958D01*
X66000Y63014D01*
X65993Y63013D01*
Y63987D01*
G37*
G36*
Y111487D02*X66000Y111486D01*
X66706Y111542D01*
X67395Y111707D01*
X68049Y111978D01*
X68653Y112348D01*
X69192Y112808D01*
X69652Y113347D01*
X70022Y113951D01*
X70293Y114605D01*
X70458Y115294D01*
X70500Y116000D01*
X70458Y116706D01*
X70293Y117395D01*
X70022Y118049D01*
X69652Y118653D01*
X69192Y119192D01*
X68653Y119652D01*
X68085Y120000D01*
X71613D01*
X71656Y119809D01*
X71779Y119426D01*
X71936Y119056D01*
X72126Y118702D01*
X72171Y118637D01*
X72226Y118580D01*
X72290Y118532D01*
X72360Y118496D01*
X72435Y118470D01*
X72513Y118456D01*
X72592Y118455D01*
X72671Y118467D01*
X72746Y118490D01*
X72817Y118525D01*
X72882Y118571D01*
X72939Y118626D01*
X72987Y118689D01*
X73024Y118759D01*
X73049Y118834D01*
X73063Y118912D01*
X73064Y118992D01*
X73052Y119070D01*
X73029Y119146D01*
X72993Y119216D01*
X72843Y119490D01*
X72721Y119777D01*
X72649Y120000D01*
X76002D01*
Y117500D01*
X76000Y117500D01*
X75688Y117514D01*
X75379Y117556D01*
X75074Y117625D01*
X74777Y117721D01*
X74490Y117843D01*
X74214Y117990D01*
X74145Y118026D01*
X74069Y118049D01*
X73991Y118060D01*
X73913Y118059D01*
X73835Y118046D01*
X73761Y118020D01*
X73691Y117984D01*
X73628Y117936D01*
X73573Y117880D01*
X73528Y117816D01*
X73493Y117745D01*
X73470Y117670D01*
X73459Y117592D01*
X73460Y117513D01*
X73473Y117436D01*
X73499Y117361D01*
X73535Y117292D01*
X73583Y117229D01*
X73639Y117174D01*
X73704Y117130D01*
X74056Y116936D01*
X74426Y116779D01*
X74809Y116656D01*
X75200Y116567D01*
X75599Y116513D01*
X76000Y116496D01*
X76002Y116496D01*
Y115514D01*
X76000Y115514D01*
X75294Y115458D01*
X74605Y115293D01*
X73951Y115022D01*
X73347Y114652D01*
X72808Y114192D01*
X72348Y113653D01*
X71978Y113049D01*
X71707Y112395D01*
X71542Y111706D01*
X71486Y111000D01*
X71542Y110294D01*
X71707Y109605D01*
X71978Y108951D01*
X72348Y108347D01*
X72808Y107808D01*
X73347Y107348D01*
X73951Y106978D01*
X74605Y106707D01*
X75294Y106542D01*
X76000Y106486D01*
X76002Y106486D01*
Y101684D01*
X65993Y91675D01*
Y101487D01*
X66000Y101486D01*
X66706Y101542D01*
X67395Y101707D01*
X68049Y101978D01*
X68653Y102348D01*
X69192Y102808D01*
X69652Y103347D01*
X70022Y103951D01*
X70293Y104605D01*
X70458Y105294D01*
X70500Y106000D01*
X70458Y106706D01*
X70293Y107395D01*
X70022Y108049D01*
X69652Y108653D01*
X69192Y109192D01*
X68653Y109652D01*
X68049Y110022D01*
X67395Y110293D01*
X66706Y110458D01*
X66000Y110514D01*
X65993Y110513D01*
Y111487D01*
G37*
G36*
X35500Y120000D02*X63915D01*
X63347Y119652D01*
X62808Y119192D01*
X62348Y118653D01*
X61978Y118049D01*
X61707Y117395D01*
X61542Y116706D01*
X61486Y116000D01*
X61542Y115294D01*
X61707Y114605D01*
X61978Y113951D01*
X62348Y113347D01*
X62808Y112808D01*
X63347Y112348D01*
X63951Y111978D01*
X64605Y111707D01*
X65294Y111542D01*
X65993Y111487D01*
Y110513D01*
X65294Y110458D01*
X64605Y110293D01*
X63951Y110022D01*
X63347Y109652D01*
X62808Y109192D01*
X62348Y108653D01*
X61978Y108049D01*
X61707Y107395D01*
X61542Y106706D01*
X61486Y106000D01*
X61542Y105294D01*
X61707Y104605D01*
X61978Y103951D01*
X62348Y103347D01*
X62808Y102808D01*
X63347Y102348D01*
X63951Y101978D01*
X64605Y101707D01*
X65294Y101542D01*
X65993Y101487D01*
Y91675D01*
X64471Y90153D01*
X64404Y90096D01*
X64174Y89827D01*
X63989Y89525D01*
X63854Y89197D01*
X63771Y88853D01*
X63771Y88853D01*
X63743Y88500D01*
X63750Y88412D01*
Y72399D01*
X63347Y72152D01*
X62808Y71692D01*
X62348Y71153D01*
X61978Y70549D01*
X61707Y69895D01*
X61542Y69206D01*
X61486Y68500D01*
X61542Y67794D01*
X61707Y67105D01*
X61978Y66451D01*
X62348Y65847D01*
X62808Y65308D01*
X63347Y64848D01*
X63951Y64478D01*
X64605Y64207D01*
X65294Y64042D01*
X65993Y63987D01*
Y63013D01*
X65294Y62958D01*
X64605Y62793D01*
X63951Y62522D01*
X63347Y62152D01*
X62808Y61692D01*
X62348Y61153D01*
X61978Y60549D01*
X61707Y59895D01*
X61542Y59206D01*
X61486Y58500D01*
X61542Y57794D01*
X61707Y57105D01*
X61978Y56451D01*
X62348Y55847D01*
X62808Y55308D01*
X63347Y54848D01*
X63951Y54478D01*
X64605Y54207D01*
X65294Y54042D01*
X65993Y53987D01*
Y53013D01*
X65294Y52958D01*
X64605Y52793D01*
X63951Y52522D01*
X63347Y52152D01*
X62808Y51692D01*
X62348Y51153D01*
X61978Y50549D01*
X61707Y49895D01*
X61542Y49206D01*
X61486Y48500D01*
X61542Y47794D01*
X61707Y47105D01*
X61978Y46451D01*
X62348Y45847D01*
X62808Y45308D01*
X63347Y44848D01*
X63951Y44478D01*
X64605Y44207D01*
X65294Y44042D01*
X65993Y43987D01*
Y32500D01*
X35500D01*
Y34914D01*
X36165Y34346D01*
X37266Y33671D01*
X38458Y33177D01*
X39713Y32876D01*
X41000Y32775D01*
X42287Y32876D01*
X43542Y33177D01*
X44734Y33671D01*
X45835Y34346D01*
X46816Y35184D01*
X47654Y36165D01*
X48329Y37266D01*
X48823Y38458D01*
X49124Y39713D01*
X49200Y41000D01*
X49124Y42287D01*
X48823Y43542D01*
X48329Y44734D01*
X47654Y45835D01*
X46816Y46816D01*
X45835Y47654D01*
X44734Y48329D01*
X43542Y48823D01*
X42287Y49124D01*
X41000Y49225D01*
X39713Y49124D01*
X38458Y48823D01*
X37266Y48329D01*
X36165Y47654D01*
X35500Y47086D01*
Y74914D01*
X36165Y74346D01*
X37266Y73671D01*
X38458Y73177D01*
X39713Y72876D01*
X41000Y72775D01*
X42287Y72876D01*
X43542Y73177D01*
X44734Y73671D01*
X45835Y74346D01*
X46816Y75184D01*
X47654Y76165D01*
X48329Y77266D01*
X48823Y78458D01*
X49124Y79713D01*
X49200Y81000D01*
X49124Y82287D01*
X48823Y83542D01*
X48329Y84734D01*
X47654Y85835D01*
X46816Y86816D01*
X45835Y87654D01*
X44734Y88329D01*
X43542Y88823D01*
X42287Y89124D01*
X41000Y89225D01*
X39713Y89124D01*
X38458Y88823D01*
X37266Y88329D01*
X36165Y87654D01*
X35500Y87086D01*
Y92414D01*
X36165Y91846D01*
X37266Y91171D01*
X38458Y90677D01*
X39713Y90376D01*
X41000Y90275D01*
X42287Y90376D01*
X43542Y90677D01*
X44734Y91171D01*
X45835Y91846D01*
X46816Y92684D01*
X47654Y93665D01*
X48329Y94766D01*
X48823Y95958D01*
X49124Y97213D01*
X49200Y98500D01*
X49124Y99787D01*
X48823Y101042D01*
X48329Y102234D01*
X47654Y103335D01*
X46816Y104316D01*
X45835Y105154D01*
X44734Y105829D01*
X43542Y106323D01*
X42287Y106624D01*
X41000Y106725D01*
X39713Y106624D01*
X38458Y106323D01*
X37266Y105829D01*
X36165Y105154D01*
X35500Y104586D01*
Y120000D01*
G37*
G36*
X40987Y66500D02*X52500D01*
Y32500D01*
X40987D01*
Y32776D01*
X41000Y32775D01*
X42287Y32876D01*
X43542Y33177D01*
X44734Y33671D01*
X45835Y34346D01*
X46816Y35184D01*
X47654Y36165D01*
X48329Y37266D01*
X48823Y38458D01*
X49124Y39713D01*
X49200Y41000D01*
X49124Y42287D01*
X48823Y43542D01*
X48329Y44734D01*
X47654Y45835D01*
X46816Y46816D01*
X45835Y47654D01*
X44734Y48329D01*
X43542Y48823D01*
X42287Y49124D01*
X41000Y49225D01*
X40987Y49224D01*
Y66500D01*
G37*
G36*
X3500D02*X40987D01*
Y49224D01*
X39713Y49124D01*
X38458Y48823D01*
X37266Y48329D01*
X36165Y47654D01*
X35184Y46816D01*
X34346Y45835D01*
X33671Y44734D01*
X33177Y43542D01*
X32876Y42287D01*
X32775Y41000D01*
X32876Y39713D01*
X33177Y38458D01*
X33671Y37266D01*
X34346Y36165D01*
X35184Y35184D01*
X36165Y34346D01*
X37266Y33671D01*
X38458Y33177D01*
X39713Y32876D01*
X40987Y32776D01*
Y32500D01*
X19622D01*
X19461Y32539D01*
X17000Y32732D01*
X14539Y32539D01*
X14378Y32500D01*
X3500D01*
Y66500D01*
G37*
G36*
X189493Y110987D02*X189500Y110986D01*
X190206Y111042D01*
X190895Y111207D01*
X191549Y111478D01*
X192153Y111848D01*
X192692Y112308D01*
X193152Y112847D01*
X193522Y113451D01*
X193750Y114001D01*
Y107500D01*
X193542D01*
X193522Y107549D01*
X193152Y108153D01*
X192692Y108692D01*
X192153Y109152D01*
X191549Y109522D01*
X190895Y109793D01*
X190206Y109958D01*
X189500Y110014D01*
X189493Y110013D01*
Y110987D01*
G37*
G36*
Y120987D02*X189500Y120986D01*
X190206Y121042D01*
X190895Y121207D01*
X191549Y121478D01*
X192153Y121848D01*
X192692Y122308D01*
X193152Y122847D01*
X193522Y123451D01*
X193750Y124001D01*
Y116999D01*
X193522Y117549D01*
X193152Y118153D01*
X192692Y118692D01*
X192153Y119152D01*
X191549Y119522D01*
X190895Y119793D01*
X190206Y119958D01*
X189500Y120014D01*
X189493Y120013D01*
Y120987D01*
G37*
G36*
Y130987D02*X189500Y130986D01*
X190206Y131042D01*
X190895Y131207D01*
X191549Y131478D01*
X192153Y131848D01*
X192692Y132308D01*
X193152Y132847D01*
X193522Y133451D01*
X193750Y134001D01*
Y126999D01*
X193522Y127549D01*
X193152Y128153D01*
X192692Y128692D01*
X192153Y129152D01*
X191549Y129522D01*
X190895Y129793D01*
X190206Y129958D01*
X189500Y130014D01*
X189493Y130013D01*
Y130987D01*
G37*
G36*
Y140987D02*X189500Y140986D01*
X190206Y141042D01*
X190895Y141207D01*
X191549Y141478D01*
X192153Y141848D01*
X192692Y142308D01*
X193152Y142847D01*
X193522Y143451D01*
X193750Y144001D01*
Y136999D01*
X193522Y137549D01*
X193152Y138153D01*
X192692Y138692D01*
X192153Y139152D01*
X191549Y139522D01*
X190895Y139793D01*
X190206Y139958D01*
X189500Y140014D01*
X189493Y140013D01*
Y140987D01*
G37*
G36*
Y160987D02*X189500Y160986D01*
X190206Y161042D01*
X190895Y161207D01*
X191549Y161478D01*
X192153Y161848D01*
X192692Y162308D01*
X193152Y162847D01*
X193522Y163451D01*
X193750Y164001D01*
Y156979D01*
X193675Y157194D01*
X193622Y157300D01*
X193553Y157396D01*
X193470Y157481D01*
X193375Y157551D01*
X193269Y157606D01*
X193157Y157643D01*
X193040Y157663D01*
X192921Y157664D01*
X192804Y157646D01*
X192691Y157610D01*
X192585Y157557D01*
X192488Y157488D01*
X192404Y157405D01*
X192333Y157309D01*
X192279Y157204D01*
X192241Y157092D01*
X192222Y156975D01*
X192221Y156856D01*
X192239Y156739D01*
X192277Y156626D01*
X192376Y156355D01*
X192444Y156075D01*
X192486Y155789D01*
X192500Y155500D01*
X192486Y155211D01*
X192444Y154925D01*
X192376Y154645D01*
X192280Y154372D01*
X192242Y154261D01*
X192225Y154144D01*
X192225Y154026D01*
X192245Y153909D01*
X192282Y153797D01*
X192336Y153693D01*
X192406Y153598D01*
X192491Y153515D01*
X192587Y153446D01*
X192692Y153393D01*
X192805Y153357D01*
X192921Y153340D01*
X193039Y153341D01*
X193156Y153360D01*
X193268Y153397D01*
X193373Y153452D01*
X193468Y153522D01*
X193551Y153606D01*
X193619Y153702D01*
X193670Y153808D01*
X193750Y154028D01*
Y146999D01*
X193522Y147549D01*
X193152Y148153D01*
X192692Y148692D01*
X192153Y149152D01*
X191549Y149522D01*
X190895Y149793D01*
X190206Y149958D01*
X189500Y150014D01*
X189493Y150013D01*
Y150995D01*
X189500Y150995D01*
X189933Y151016D01*
X190363Y151078D01*
X190784Y151182D01*
X191194Y151325D01*
X191300Y151378D01*
X191396Y151447D01*
X191481Y151530D01*
X191551Y151625D01*
X191606Y151731D01*
X191643Y151843D01*
X191663Y151960D01*
X191664Y152079D01*
X191646Y152196D01*
X191610Y152309D01*
X191557Y152415D01*
X191488Y152512D01*
X191405Y152596D01*
X191309Y152667D01*
X191204Y152721D01*
X191092Y152759D01*
X190975Y152778D01*
X190856Y152779D01*
X190739Y152761D01*
X190626Y152723D01*
X190355Y152624D01*
X190075Y152556D01*
X189789Y152514D01*
X189500Y152500D01*
X189493Y152500D01*
Y158500D01*
X189500Y158500D01*
X189789Y158486D01*
X190075Y158444D01*
X190355Y158376D01*
X190628Y158280D01*
X190739Y158242D01*
X190856Y158225D01*
X190974Y158225D01*
X191091Y158245D01*
X191203Y158282D01*
X191307Y158336D01*
X191402Y158406D01*
X191485Y158491D01*
X191554Y158587D01*
X191607Y158692D01*
X191643Y158805D01*
X191660Y158921D01*
X191659Y159039D01*
X191640Y159156D01*
X191603Y159268D01*
X191548Y159373D01*
X191478Y159468D01*
X191394Y159551D01*
X191298Y159619D01*
X191192Y159670D01*
X190784Y159818D01*
X190363Y159922D01*
X189933Y159984D01*
X189500Y160005D01*
X189493Y160005D01*
Y160987D01*
G37*
G36*
X193113Y251012D02*X194124Y251876D01*
X195728Y253753D01*
X197018Y255858D01*
X197962Y258138D01*
X198000Y258295D01*
Y170043D01*
X197826Y170327D01*
X197596Y170596D01*
X197529Y170653D01*
X196153Y172029D01*
X196096Y172096D01*
X195827Y172326D01*
X195827Y172326D01*
X195712Y172396D01*
X195525Y172511D01*
X195293Y172607D01*
X195197Y172646D01*
X194853Y172729D01*
X194500Y172757D01*
X194412Y172750D01*
X193113D01*
Y172802D01*
X193152Y172847D01*
X193522Y173451D01*
X193793Y174105D01*
X193958Y174794D01*
X194000Y175500D01*
X193958Y176206D01*
X193793Y176895D01*
X193522Y177549D01*
X193152Y178153D01*
X193113Y178198D01*
Y182802D01*
X193152Y182847D01*
X193522Y183451D01*
X193793Y184105D01*
X193958Y184794D01*
X194000Y185500D01*
X193958Y186206D01*
X193793Y186895D01*
X193522Y187549D01*
X193152Y188153D01*
X193113Y188198D01*
Y193353D01*
X193156Y193360D01*
X193268Y193397D01*
X193373Y193452D01*
X193468Y193522D01*
X193551Y193606D01*
X193619Y193702D01*
X193670Y193808D01*
X193818Y194216D01*
X193922Y194637D01*
X193984Y195067D01*
X194005Y195500D01*
X193984Y195933D01*
X193922Y196363D01*
X193818Y196784D01*
X193675Y197194D01*
X193622Y197300D01*
X193553Y197396D01*
X193470Y197481D01*
X193375Y197551D01*
X193269Y197606D01*
X193157Y197643D01*
X193113Y197651D01*
Y202802D01*
X193152Y202847D01*
X193522Y203451D01*
X193793Y204105D01*
X193958Y204794D01*
X194000Y205500D01*
X193958Y206206D01*
X193793Y206895D01*
X193522Y207549D01*
X193152Y208153D01*
X193113Y208198D01*
Y251012D01*
G37*
G36*
Y188198D02*X192692Y188692D01*
X192153Y189152D01*
X191549Y189522D01*
X190895Y189793D01*
X190206Y189958D01*
X189500Y190014D01*
X189493Y190013D01*
Y190995D01*
X189500Y190995D01*
X189933Y191016D01*
X190363Y191078D01*
X190784Y191182D01*
X191194Y191325D01*
X191300Y191378D01*
X191396Y191447D01*
X191481Y191530D01*
X191551Y191625D01*
X191606Y191731D01*
X191643Y191843D01*
X191663Y191960D01*
X191664Y192079D01*
X191646Y192196D01*
X191610Y192309D01*
X191557Y192415D01*
X191488Y192512D01*
X191405Y192596D01*
X191309Y192667D01*
X191204Y192721D01*
X191092Y192759D01*
X190975Y192778D01*
X190856Y192779D01*
X190739Y192761D01*
X190626Y192723D01*
X190355Y192624D01*
X190075Y192556D01*
X189789Y192514D01*
X189500Y192500D01*
X189493Y192500D01*
Y198500D01*
X189500Y198500D01*
X189789Y198486D01*
X190075Y198444D01*
X190355Y198376D01*
X190628Y198280D01*
X190739Y198242D01*
X190856Y198225D01*
X190974Y198225D01*
X191091Y198245D01*
X191203Y198282D01*
X191307Y198336D01*
X191402Y198406D01*
X191485Y198491D01*
X191554Y198587D01*
X191607Y198692D01*
X191643Y198805D01*
X191660Y198921D01*
X191659Y199039D01*
X191640Y199156D01*
X191603Y199268D01*
X191548Y199373D01*
X191478Y199468D01*
X191394Y199551D01*
X191298Y199619D01*
X191192Y199670D01*
X190784Y199818D01*
X190363Y199922D01*
X189933Y199984D01*
X189500Y200005D01*
X189493Y200005D01*
Y200987D01*
X189500Y200986D01*
X190206Y201042D01*
X190895Y201207D01*
X191549Y201478D01*
X192153Y201848D01*
X192692Y202308D01*
X193113Y202802D01*
Y197651D01*
X193040Y197663D01*
X192921Y197664D01*
X192804Y197646D01*
X192691Y197610D01*
X192585Y197557D01*
X192488Y197488D01*
X192404Y197405D01*
X192333Y197309D01*
X192279Y197204D01*
X192241Y197092D01*
X192222Y196975D01*
X192221Y196856D01*
X192239Y196739D01*
X192277Y196626D01*
X192376Y196355D01*
X192444Y196075D01*
X192486Y195789D01*
X192500Y195500D01*
X192486Y195211D01*
X192444Y194925D01*
X192376Y194645D01*
X192280Y194372D01*
X192242Y194261D01*
X192225Y194144D01*
X192225Y194026D01*
X192245Y193909D01*
X192282Y193797D01*
X192336Y193693D01*
X192406Y193598D01*
X192491Y193515D01*
X192587Y193446D01*
X192692Y193393D01*
X192805Y193357D01*
X192921Y193340D01*
X193039Y193341D01*
X193113Y193353D01*
Y188198D01*
G37*
G36*
Y178198D02*X192692Y178692D01*
X192153Y179152D01*
X191549Y179522D01*
X190895Y179793D01*
X190206Y179958D01*
X189500Y180014D01*
X189493Y180013D01*
Y180987D01*
X189500Y180986D01*
X190206Y181042D01*
X190895Y181207D01*
X191549Y181478D01*
X192153Y181848D01*
X192692Y182308D01*
X193113Y182802D01*
Y178198D01*
G37*
G36*
Y172750D02*X193069D01*
X193113Y172802D01*
Y172750D01*
G37*
G36*
X189493Y248713D02*X190142Y248982D01*
X192247Y250272D01*
X193113Y251012D01*
Y208198D01*
X192692Y208692D01*
X192153Y209152D01*
X191549Y209522D01*
X190895Y209793D01*
X190206Y209958D01*
X189500Y210014D01*
X189493Y210013D01*
Y248713D01*
G37*
G36*
X185887Y112802D02*X186308Y112308D01*
X186847Y111848D01*
X187451Y111478D01*
X188105Y111207D01*
X188794Y111042D01*
X189493Y110987D01*
Y110013D01*
X188794Y109958D01*
X188105Y109793D01*
X187451Y109522D01*
X186847Y109152D01*
X186308Y108692D01*
X185887Y108198D01*
Y112802D01*
G37*
G36*
Y122802D02*X186308Y122308D01*
X186847Y121848D01*
X187451Y121478D01*
X188105Y121207D01*
X188794Y121042D01*
X189493Y120987D01*
Y120013D01*
X188794Y119958D01*
X188105Y119793D01*
X187451Y119522D01*
X186847Y119152D01*
X186308Y118692D01*
X185887Y118198D01*
Y122802D01*
G37*
G36*
Y132802D02*X186308Y132308D01*
X186847Y131848D01*
X187451Y131478D01*
X188105Y131207D01*
X188794Y131042D01*
X189493Y130987D01*
Y130013D01*
X188794Y129958D01*
X188105Y129793D01*
X187451Y129522D01*
X186847Y129152D01*
X186308Y128692D01*
X185887Y128198D01*
Y132802D01*
G37*
G36*
Y142802D02*X186308Y142308D01*
X186847Y141848D01*
X187451Y141478D01*
X188105Y141207D01*
X188794Y141042D01*
X189493Y140987D01*
Y140013D01*
X188794Y139958D01*
X188105Y139793D01*
X187451Y139522D01*
X186847Y139152D01*
X186308Y138692D01*
X185887Y138198D01*
Y142802D01*
G37*
G36*
Y162500D02*X186144D01*
X186308Y162308D01*
X186847Y161848D01*
X187451Y161478D01*
X188105Y161207D01*
X188794Y161042D01*
X189493Y160987D01*
Y160005D01*
X189067Y159984D01*
X188637Y159922D01*
X188216Y159818D01*
X187806Y159675D01*
X187700Y159622D01*
X187604Y159553D01*
X187519Y159470D01*
X187449Y159375D01*
X187394Y159269D01*
X187357Y159157D01*
X187337Y159040D01*
X187336Y158921D01*
X187354Y158804D01*
X187390Y158691D01*
X187443Y158585D01*
X187512Y158488D01*
X187595Y158404D01*
X187691Y158333D01*
X187796Y158279D01*
X187908Y158241D01*
X188025Y158222D01*
X188144Y158221D01*
X188261Y158239D01*
X188374Y158277D01*
X188645Y158376D01*
X188925Y158444D01*
X189211Y158486D01*
X189493Y158500D01*
Y152500D01*
X189211Y152514D01*
X188925Y152556D01*
X188645Y152624D01*
X188372Y152720D01*
X188261Y152758D01*
X188144Y152775D01*
X188026Y152775D01*
X187909Y152755D01*
X187797Y152718D01*
X187693Y152664D01*
X187598Y152594D01*
X187515Y152509D01*
X187446Y152413D01*
X187393Y152308D01*
X187357Y152195D01*
X187340Y152079D01*
X187341Y151961D01*
X187360Y151844D01*
X187397Y151732D01*
X187452Y151627D01*
X187522Y151532D01*
X187606Y151449D01*
X187702Y151381D01*
X187808Y151330D01*
X188216Y151182D01*
X188637Y151078D01*
X189067Y151016D01*
X189493Y150995D01*
Y150013D01*
X188794Y149958D01*
X188105Y149793D01*
X187451Y149522D01*
X186847Y149152D01*
X186308Y148692D01*
X185887Y148198D01*
Y153349D01*
X185960Y153337D01*
X186079Y153336D01*
X186196Y153354D01*
X186309Y153390D01*
X186415Y153443D01*
X186512Y153512D01*
X186596Y153595D01*
X186667Y153691D01*
X186721Y153796D01*
X186759Y153908D01*
X186778Y154025D01*
X186779Y154144D01*
X186761Y154261D01*
X186723Y154374D01*
X186624Y154645D01*
X186556Y154925D01*
X186514Y155211D01*
X186500Y155500D01*
X186514Y155789D01*
X186556Y156075D01*
X186624Y156355D01*
X186720Y156628D01*
X186758Y156739D01*
X186775Y156856D01*
X186775Y156974D01*
X186755Y157091D01*
X186718Y157203D01*
X186664Y157307D01*
X186594Y157402D01*
X186509Y157485D01*
X186413Y157554D01*
X186308Y157607D01*
X186195Y157643D01*
X186079Y157660D01*
X185961Y157659D01*
X185887Y157647D01*
Y162500D01*
G37*
G36*
Y172802D02*X185931Y172750D01*
X185887D01*
Y172802D01*
G37*
G36*
Y182802D02*X186308Y182308D01*
X186847Y181848D01*
X187451Y181478D01*
X188105Y181207D01*
X188794Y181042D01*
X189493Y180987D01*
Y180013D01*
X188794Y179958D01*
X188105Y179793D01*
X187451Y179522D01*
X186847Y179152D01*
X186308Y178692D01*
X185887Y178198D01*
Y182802D01*
G37*
G36*
Y202802D02*X186308Y202308D01*
X186847Y201848D01*
X187451Y201478D01*
X188105Y201207D01*
X188794Y201042D01*
X189493Y200987D01*
Y200005D01*
X189067Y199984D01*
X188637Y199922D01*
X188216Y199818D01*
X187806Y199675D01*
X187700Y199622D01*
X187604Y199553D01*
X187519Y199470D01*
X187449Y199375D01*
X187394Y199269D01*
X187357Y199157D01*
X187337Y199040D01*
X187336Y198921D01*
X187354Y198804D01*
X187390Y198691D01*
X187443Y198585D01*
X187512Y198488D01*
X187595Y198404D01*
X187691Y198333D01*
X187796Y198279D01*
X187908Y198241D01*
X188025Y198222D01*
X188144Y198221D01*
X188261Y198239D01*
X188374Y198277D01*
X188645Y198376D01*
X188925Y198444D01*
X189211Y198486D01*
X189493Y198500D01*
Y192500D01*
X189211Y192514D01*
X188925Y192556D01*
X188645Y192624D01*
X188372Y192720D01*
X188261Y192758D01*
X188144Y192775D01*
X188026Y192775D01*
X187909Y192755D01*
X187797Y192718D01*
X187693Y192664D01*
X187598Y192594D01*
X187515Y192509D01*
X187446Y192413D01*
X187393Y192308D01*
X187357Y192195D01*
X187340Y192079D01*
X187341Y191961D01*
X187360Y191844D01*
X187397Y191732D01*
X187452Y191627D01*
X187522Y191532D01*
X187606Y191449D01*
X187702Y191381D01*
X187808Y191330D01*
X188216Y191182D01*
X188637Y191078D01*
X189067Y191016D01*
X189493Y190995D01*
Y190013D01*
X188794Y189958D01*
X188105Y189793D01*
X187451Y189522D01*
X186847Y189152D01*
X186308Y188692D01*
X185887Y188198D01*
Y193349D01*
X185960Y193337D01*
X186079Y193336D01*
X186196Y193354D01*
X186309Y193390D01*
X186415Y193443D01*
X186512Y193512D01*
X186596Y193595D01*
X186667Y193691D01*
X186721Y193796D01*
X186759Y193908D01*
X186778Y194025D01*
X186779Y194144D01*
X186761Y194261D01*
X186723Y194374D01*
X186624Y194645D01*
X186556Y194925D01*
X186514Y195211D01*
X186500Y195500D01*
X186514Y195789D01*
X186556Y196075D01*
X186624Y196355D01*
X186720Y196628D01*
X186758Y196739D01*
X186775Y196856D01*
X186775Y196974D01*
X186755Y197091D01*
X186718Y197203D01*
X186664Y197307D01*
X186594Y197402D01*
X186509Y197485D01*
X186413Y197554D01*
X186308Y197607D01*
X186195Y197643D01*
X186079Y197660D01*
X185961Y197659D01*
X185887Y197647D01*
Y202802D01*
G37*
G36*
Y247564D02*X187862Y248038D01*
X189493Y248713D01*
Y210013D01*
X188794Y209958D01*
X188105Y209793D01*
X187451Y209522D01*
X186847Y209152D01*
X186308Y208692D01*
X185887Y208198D01*
Y247564D01*
G37*
G36*
X149745Y278000D02*X178295D01*
X178138Y277962D01*
X175858Y277018D01*
X173753Y275728D01*
X171876Y274124D01*
X170272Y272247D01*
X168982Y270142D01*
X168038Y267862D01*
X167461Y265461D01*
X167268Y263000D01*
X167461Y260539D01*
X168038Y258138D01*
X168982Y255858D01*
X170272Y253753D01*
X171876Y251876D01*
X173753Y250272D01*
X175858Y248982D01*
X178138Y248038D01*
X180539Y247461D01*
X183000Y247268D01*
X185461Y247461D01*
X185887Y247564D01*
Y208198D01*
X185848Y208153D01*
X185478Y207549D01*
X185207Y206895D01*
X185042Y206206D01*
X184986Y205500D01*
X185042Y204794D01*
X185207Y204105D01*
X185478Y203451D01*
X185848Y202847D01*
X185887Y202802D01*
Y197647D01*
X185844Y197640D01*
X185732Y197603D01*
X185627Y197548D01*
X185532Y197478D01*
X185449Y197394D01*
X185381Y197298D01*
X185330Y197192D01*
X185182Y196784D01*
X185078Y196363D01*
X185016Y195933D01*
X184995Y195500D01*
X185016Y195067D01*
X185078Y194637D01*
X185182Y194216D01*
X185325Y193806D01*
X185378Y193700D01*
X185447Y193604D01*
X185530Y193519D01*
X185625Y193449D01*
X185731Y193394D01*
X185843Y193357D01*
X185887Y193349D01*
Y188198D01*
X185848Y188153D01*
X185478Y187549D01*
X185207Y186895D01*
X185042Y186206D01*
X184986Y185500D01*
X185042Y184794D01*
X185207Y184105D01*
X185478Y183451D01*
X185848Y182847D01*
X185887Y182802D01*
Y178198D01*
X185848Y178153D01*
X185478Y177549D01*
X185207Y176895D01*
X185042Y176206D01*
X184986Y175500D01*
X185042Y174794D01*
X185207Y174105D01*
X185478Y173451D01*
X185848Y172847D01*
X185887Y172802D01*
Y172750D01*
X170485D01*
X170269Y172935D01*
X169866Y173181D01*
X169430Y173362D01*
X168971Y173472D01*
X168500Y173509D01*
X168029Y173472D01*
X167570Y173362D01*
X167134Y173181D01*
X166731Y172935D01*
X166372Y172628D01*
X166065Y172269D01*
X165819Y171866D01*
X165638Y171430D01*
X165528Y170971D01*
X165491Y170500D01*
X165528Y170029D01*
X165638Y169570D01*
X165819Y169134D01*
X166065Y168731D01*
X166372Y168372D01*
X166612Y168168D01*
X166231Y167935D01*
X165872Y167628D01*
X165565Y167269D01*
X165319Y166866D01*
X165138Y166430D01*
X165028Y165971D01*
X164991Y165500D01*
X165028Y165029D01*
X165138Y164570D01*
X165319Y164134D01*
X165565Y163731D01*
X165872Y163372D01*
X166231Y163065D01*
X166634Y162819D01*
X167070Y162638D01*
X167529Y162528D01*
X168000Y162491D01*
X168118Y162500D01*
X173382D01*
X173500Y162491D01*
X173618Y162500D01*
X185887D01*
Y157647D01*
X185844Y157640D01*
X185732Y157603D01*
X185627Y157548D01*
X185532Y157478D01*
X185449Y157394D01*
X185381Y157298D01*
X185330Y157192D01*
X185182Y156784D01*
X185078Y156363D01*
X185016Y155933D01*
X184995Y155500D01*
X185016Y155067D01*
X185078Y154637D01*
X185182Y154216D01*
X185325Y153806D01*
X185378Y153700D01*
X185447Y153604D01*
X185530Y153519D01*
X185625Y153449D01*
X185731Y153394D01*
X185843Y153357D01*
X185887Y153349D01*
Y148198D01*
X185848Y148153D01*
X185478Y147549D01*
X185207Y146895D01*
X185042Y146206D01*
X184986Y145500D01*
X185042Y144794D01*
X185207Y144105D01*
X185478Y143451D01*
X185848Y142847D01*
X185887Y142802D01*
Y138198D01*
X185848Y138153D01*
X185478Y137549D01*
X185207Y136895D01*
X185042Y136206D01*
X184986Y135500D01*
X185042Y134794D01*
X185207Y134105D01*
X185478Y133451D01*
X185848Y132847D01*
X185887Y132802D01*
Y128198D01*
X185848Y128153D01*
X185478Y127549D01*
X185207Y126895D01*
X185042Y126206D01*
X184986Y125500D01*
X185042Y124794D01*
X185207Y124105D01*
X185478Y123451D01*
X185848Y122847D01*
X185887Y122802D01*
Y118198D01*
X185848Y118153D01*
X185478Y117549D01*
X185207Y116895D01*
X185042Y116206D01*
X184986Y115500D01*
X185042Y114794D01*
X185207Y114105D01*
X185478Y113451D01*
X185848Y112847D01*
X185887Y112802D01*
Y108198D01*
X185848Y108153D01*
X185478Y107549D01*
X185458Y107500D01*
X149745D01*
Y116063D01*
X155687Y122006D01*
X155971Y122028D01*
X156430Y122138D01*
X156866Y122319D01*
X157269Y122565D01*
X157628Y122872D01*
X157935Y123231D01*
X158181Y123634D01*
X158362Y124070D01*
X158472Y124529D01*
X158500Y125000D01*
X158472Y125471D01*
X158362Y125930D01*
X158181Y126366D01*
X157935Y126769D01*
X157628Y127128D01*
X157269Y127435D01*
X156866Y127681D01*
X156430Y127862D01*
X155971Y127972D01*
X155500Y128009D01*
X155029Y127972D01*
X154570Y127862D01*
X154134Y127681D01*
X153731Y127435D01*
X153372Y127128D01*
X153065Y126769D01*
X152819Y126366D01*
X152638Y125930D01*
X152528Y125471D01*
X152506Y125187D01*
X149745Y122427D01*
Y130000D01*
X153441D01*
X153500Y129995D01*
X153735Y130014D01*
X153735Y130014D01*
X153965Y130069D01*
X154183Y130159D01*
X154384Y130283D01*
X154564Y130436D01*
X154602Y130481D01*
X157519Y133398D01*
X157564Y133436D01*
X157717Y133615D01*
X157717Y133616D01*
X157841Y133817D01*
X157931Y134035D01*
X157986Y134265D01*
X158005Y134500D01*
X158000Y134559D01*
Y141901D01*
X158269Y142065D01*
X158628Y142372D01*
X158935Y142731D01*
X159181Y143134D01*
X159362Y143570D01*
X159472Y144029D01*
X159500Y144500D01*
X159472Y144971D01*
X159362Y145430D01*
X159181Y145866D01*
X158935Y146269D01*
X158628Y146628D01*
X158269Y146935D01*
X157866Y147181D01*
X157430Y147362D01*
X156971Y147472D01*
X156500Y147509D01*
X156029Y147472D01*
X155570Y147362D01*
X155134Y147181D01*
X154731Y146935D01*
X154372Y146628D01*
X154065Y146269D01*
X153819Y145866D01*
X153638Y145430D01*
X153528Y144971D01*
X153491Y144500D01*
X153528Y144029D01*
X153638Y143570D01*
X153819Y143134D01*
X154065Y142731D01*
X154372Y142372D01*
X154731Y142065D01*
X155000Y141901D01*
Y135121D01*
X152879Y133000D01*
X149745D01*
Y278000D01*
G37*
G36*
Y107500D02*X135833D01*
X135862Y107570D01*
X135972Y108029D01*
X136000Y108500D01*
X135972Y108971D01*
X135862Y109430D01*
X135681Y109866D01*
X135435Y110269D01*
X135128Y110628D01*
X134769Y110935D01*
X134366Y111181D01*
X133930Y111362D01*
X133471Y111472D01*
X133000Y111509D01*
X132529Y111472D01*
X132070Y111362D01*
X131634Y111181D01*
X131231Y110935D01*
X130872Y110628D01*
X130750Y110485D01*
Y115250D01*
X147912D01*
X148000Y115243D01*
X148353Y115271D01*
X148353Y115271D01*
X148697Y115354D01*
X149025Y115489D01*
X149327Y115674D01*
X149596Y115904D01*
X149653Y115971D01*
X149745Y116063D01*
Y107500D01*
G37*
G36*
X145495Y129830D02*X145599Y130000D01*
X149745D01*
Y122427D01*
X147068Y119750D01*
X145495D01*
Y129830D01*
G37*
G36*
Y278000D02*X149745D01*
Y133000D01*
X145599D01*
X145495Y133170D01*
Y133991D01*
X145500Y133991D01*
X145971Y134028D01*
X146430Y134138D01*
X146866Y134319D01*
X147269Y134565D01*
X147628Y134872D01*
X147935Y135231D01*
X148181Y135634D01*
X148362Y136070D01*
X148472Y136529D01*
X148500Y137000D01*
X148472Y137471D01*
X148362Y137930D01*
X148181Y138366D01*
X147935Y138769D01*
X147628Y139128D01*
X147269Y139435D01*
X147000Y139599D01*
Y141401D01*
X147269Y141565D01*
X147628Y141872D01*
X147935Y142231D01*
X148181Y142634D01*
X148362Y143070D01*
X148472Y143529D01*
X148500Y144000D01*
X148472Y144471D01*
X148362Y144930D01*
X148181Y145366D01*
X147935Y145769D01*
X147628Y146128D01*
X147269Y146435D01*
X146866Y146681D01*
X146430Y146862D01*
X145971Y146972D01*
X145500Y147009D01*
X145495Y147009D01*
Y278000D01*
G37*
G36*
X103113Y251575D02*X103152Y251460D01*
X103278Y251108D01*
X103366Y250744D01*
X103419Y250374D01*
X103437Y250000D01*
X103419Y249626D01*
X103366Y249256D01*
X103278Y248892D01*
X103156Y248539D01*
X103113Y248411D01*
Y251575D01*
G37*
G36*
Y278000D02*X145495D01*
Y147009D01*
X145029Y146972D01*
X144570Y146862D01*
X144134Y146681D01*
X143731Y146435D01*
X143372Y146128D01*
X143065Y145769D01*
X142819Y145366D01*
X142638Y144930D01*
X142528Y144471D01*
X142491Y144000D01*
X142528Y143529D01*
X142638Y143070D01*
X142819Y142634D01*
X143065Y142231D01*
X143372Y141872D01*
X143731Y141565D01*
X144000Y141401D01*
Y139599D01*
X143731Y139435D01*
X143372Y139128D01*
X143065Y138769D01*
X142819Y138366D01*
X142638Y137930D01*
X142528Y137471D01*
X142491Y137000D01*
X142528Y136529D01*
X142638Y136070D01*
X142819Y135634D01*
X143065Y135231D01*
X143372Y134872D01*
X143731Y134565D01*
X144134Y134319D01*
X144570Y134138D01*
X145029Y134028D01*
X145495Y133991D01*
Y133170D01*
X145435Y133269D01*
X145128Y133628D01*
X144769Y133935D01*
X144366Y134181D01*
X143930Y134362D01*
X143471Y134472D01*
X143000Y134509D01*
X142529Y134472D01*
X142070Y134362D01*
X141634Y134181D01*
X141231Y133935D01*
X140872Y133628D01*
X140565Y133269D01*
X140319Y132866D01*
X140138Y132430D01*
X140028Y131971D01*
X139991Y131500D01*
X140028Y131029D01*
X140138Y130570D01*
X140319Y130134D01*
X140565Y129731D01*
X140872Y129372D01*
X141231Y129065D01*
X141634Y128819D01*
X142070Y128638D01*
X142529Y128528D01*
X143000Y128491D01*
X143471Y128528D01*
X143930Y128638D01*
X144366Y128819D01*
X144769Y129065D01*
X145128Y129372D01*
X145435Y129731D01*
X145495Y129830D01*
Y119750D01*
X130485D01*
X130269Y119935D01*
X129866Y120181D01*
X129430Y120362D01*
X128971Y120472D01*
X128500Y120509D01*
X128029Y120472D01*
X127570Y120362D01*
X127134Y120181D01*
X126731Y119935D01*
X126372Y119628D01*
X126065Y119269D01*
X125819Y118866D01*
X125638Y118430D01*
X125528Y117971D01*
X125491Y117500D01*
X125528Y117029D01*
X125638Y116570D01*
X125819Y116134D01*
X126065Y115731D01*
X126250Y115515D01*
Y110932D01*
X124068Y108750D01*
X117088D01*
X117000Y108757D01*
X116647Y108729D01*
X116378Y108664D01*
X116435Y108731D01*
X116681Y109134D01*
X116862Y109570D01*
X116972Y110029D01*
X117000Y110500D01*
X116972Y110971D01*
X116862Y111430D01*
X116681Y111866D01*
X116435Y112269D01*
X116128Y112628D01*
X115769Y112935D01*
X115366Y113181D01*
X114930Y113362D01*
X114471Y113472D01*
X114000Y113509D01*
X113529Y113472D01*
X113070Y113362D01*
X112634Y113181D01*
X112231Y112935D01*
X112015Y112750D01*
X104000D01*
X103647Y112729D01*
X103303Y112646D01*
X103113Y112568D01*
Y112802D01*
X103152Y112847D01*
X103522Y113451D01*
X103793Y114105D01*
X103958Y114794D01*
X104000Y115500D01*
X103958Y116206D01*
X103793Y116895D01*
X103522Y117549D01*
X103152Y118153D01*
X103113Y118198D01*
Y123353D01*
X103156Y123360D01*
X103268Y123397D01*
X103373Y123452D01*
X103468Y123522D01*
X103551Y123606D01*
X103619Y123702D01*
X103670Y123808D01*
X103818Y124216D01*
X103922Y124637D01*
X103984Y125067D01*
X104005Y125500D01*
X103984Y125933D01*
X103922Y126363D01*
X103818Y126784D01*
X103675Y127194D01*
X103622Y127300D01*
X103553Y127396D01*
X103470Y127481D01*
X103375Y127551D01*
X103269Y127606D01*
X103157Y127643D01*
X103113Y127651D01*
Y132802D01*
X103152Y132847D01*
X103522Y133451D01*
X103793Y134105D01*
X103958Y134794D01*
X104000Y135500D01*
X103958Y136206D01*
X103793Y136895D01*
X103522Y137549D01*
X103152Y138153D01*
X103113Y138198D01*
Y142802D01*
X103152Y142847D01*
X103522Y143451D01*
X103793Y144105D01*
X103958Y144794D01*
X104000Y145500D01*
X103958Y146206D01*
X103793Y146895D01*
X103522Y147549D01*
X103152Y148153D01*
X103113Y148198D01*
Y152802D01*
X103152Y152847D01*
X103522Y153451D01*
X103793Y154105D01*
X103958Y154794D01*
X104000Y155500D01*
X103958Y156206D01*
X103793Y156895D01*
X103522Y157549D01*
X103152Y158153D01*
X103113Y158198D01*
Y162802D01*
X103152Y162847D01*
X103522Y163451D01*
X103793Y164105D01*
X103958Y164794D01*
X104000Y165500D01*
X103958Y166206D01*
X103793Y166895D01*
X103522Y167549D01*
X103152Y168153D01*
X103113Y168198D01*
Y172802D01*
X103152Y172847D01*
X103522Y173451D01*
X103793Y174105D01*
X103958Y174794D01*
X104000Y175500D01*
X103958Y176206D01*
X103793Y176895D01*
X103522Y177549D01*
X103152Y178153D01*
X103113Y178198D01*
Y179000D01*
X106379D01*
X110601Y174777D01*
X110528Y174471D01*
X110491Y174000D01*
X110528Y173529D01*
X110638Y173070D01*
X110819Y172634D01*
X111065Y172231D01*
X111372Y171872D01*
X111731Y171565D01*
X112134Y171319D01*
X112570Y171138D01*
X113029Y171028D01*
X113500Y170991D01*
X113971Y171028D01*
X114430Y171138D01*
X114866Y171319D01*
X115269Y171565D01*
X115628Y171872D01*
X115935Y172231D01*
X116181Y172634D01*
X116362Y173070D01*
X116472Y173529D01*
X116500Y174000D01*
X116472Y174471D01*
X116362Y174930D01*
X116181Y175366D01*
X115935Y175769D01*
X115628Y176128D01*
X115269Y176435D01*
X114866Y176681D01*
X114430Y176862D01*
X113971Y176972D01*
X113500Y177009D01*
X113029Y176972D01*
X112723Y176899D01*
X108102Y181519D01*
X108064Y181564D01*
X107884Y181717D01*
X107683Y181841D01*
X107465Y181931D01*
X107235Y181986D01*
X107000Y182005D01*
X106941Y182000D01*
X103113D01*
Y182802D01*
X103152Y182847D01*
X103522Y183451D01*
X103793Y184105D01*
X103958Y184794D01*
X104000Y185500D01*
X103958Y186206D01*
X103793Y186895D01*
X103522Y187549D01*
X103152Y188153D01*
X103113Y188198D01*
Y193353D01*
X103156Y193360D01*
X103268Y193397D01*
X103373Y193452D01*
X103468Y193522D01*
X103551Y193606D01*
X103619Y193702D01*
X103670Y193808D01*
X103818Y194216D01*
X103922Y194637D01*
X103984Y195067D01*
X104005Y195500D01*
X103984Y195933D01*
X103922Y196363D01*
X103818Y196784D01*
X103675Y197194D01*
X103622Y197300D01*
X103553Y197396D01*
X103470Y197481D01*
X103375Y197551D01*
X103269Y197606D01*
X103157Y197643D01*
X103113Y197651D01*
Y201130D01*
X103183Y201159D01*
X103384Y201283D01*
X103564Y201436D01*
X103717Y201616D01*
X103841Y201817D01*
X103931Y202035D01*
X103986Y202265D01*
X104000Y202500D01*
X103986Y208735D01*
X103931Y208965D01*
X103841Y209183D01*
X103717Y209384D01*
X103564Y209564D01*
X103384Y209717D01*
X103183Y209841D01*
X103113Y209870D01*
Y247918D01*
X103162Y247772D01*
X103236Y247633D01*
X103330Y247507D01*
X103442Y247397D01*
X103571Y247306D01*
X103712Y247236D01*
X103862Y247189D01*
X104018Y247167D01*
X104175Y247168D01*
X104263Y247183D01*
X104682Y246500D01*
X105289Y245789D01*
X106000Y245182D01*
X106796Y244694D01*
X107660Y244336D01*
X108568Y244118D01*
X109500Y244045D01*
X110432Y244118D01*
X111340Y244336D01*
X112204Y244694D01*
X113000Y245182D01*
X113711Y245789D01*
X114318Y246500D01*
X114806Y247296D01*
X115164Y248160D01*
X115382Y249068D01*
X115437Y250000D01*
X115382Y250932D01*
X115164Y251840D01*
X114806Y252704D01*
X114318Y253500D01*
X113711Y254211D01*
X113000Y254818D01*
X112204Y255306D01*
X111340Y255664D01*
X110432Y255882D01*
X109500Y255955D01*
X108568Y255882D01*
X107660Y255664D01*
X106796Y255306D01*
X106000Y254818D01*
X105289Y254211D01*
X104682Y253500D01*
X104265Y252821D01*
X104176Y252836D01*
X104018Y252838D01*
X103861Y252815D01*
X103710Y252768D01*
X103569Y252698D01*
X103439Y252607D01*
X103326Y252496D01*
X103232Y252370D01*
X103158Y252230D01*
X103113Y252096D01*
Y278000D01*
G37*
G36*
Y188198D02*X102692Y188692D01*
X102153Y189152D01*
X101549Y189522D01*
X100895Y189793D01*
X100206Y189958D01*
X99500Y190014D01*
X99493Y190013D01*
Y190995D01*
X99500Y190995D01*
X99933Y191016D01*
X100363Y191078D01*
X100784Y191182D01*
X101194Y191325D01*
X101300Y191378D01*
X101396Y191447D01*
X101481Y191530D01*
X101551Y191625D01*
X101606Y191731D01*
X101643Y191843D01*
X101663Y191960D01*
X101664Y192079D01*
X101646Y192196D01*
X101610Y192309D01*
X101557Y192415D01*
X101488Y192512D01*
X101405Y192596D01*
X101309Y192667D01*
X101204Y192721D01*
X101092Y192759D01*
X100975Y192778D01*
X100856Y192779D01*
X100739Y192761D01*
X100626Y192723D01*
X100355Y192624D01*
X100075Y192556D01*
X99789Y192514D01*
X99500Y192500D01*
X99493Y192500D01*
Y198500D01*
X99500Y198500D01*
X99789Y198486D01*
X100075Y198444D01*
X100355Y198376D01*
X100628Y198280D01*
X100739Y198242D01*
X100856Y198225D01*
X100974Y198225D01*
X101091Y198245D01*
X101203Y198282D01*
X101307Y198336D01*
X101402Y198406D01*
X101485Y198491D01*
X101554Y198587D01*
X101607Y198692D01*
X101643Y198805D01*
X101660Y198921D01*
X101659Y199039D01*
X101640Y199156D01*
X101603Y199268D01*
X101548Y199373D01*
X101478Y199468D01*
X101394Y199551D01*
X101298Y199619D01*
X101192Y199670D01*
X100784Y199818D01*
X100363Y199922D01*
X99933Y199984D01*
X99500Y200005D01*
X99493Y200005D01*
Y201007D01*
X102735Y201014D01*
X102965Y201069D01*
X103113Y201130D01*
Y197651D01*
X103040Y197663D01*
X102921Y197664D01*
X102804Y197646D01*
X102691Y197610D01*
X102585Y197557D01*
X102488Y197488D01*
X102404Y197405D01*
X102333Y197309D01*
X102279Y197204D01*
X102241Y197092D01*
X102222Y196975D01*
X102221Y196856D01*
X102239Y196739D01*
X102277Y196626D01*
X102376Y196355D01*
X102444Y196075D01*
X102486Y195789D01*
X102500Y195500D01*
X102486Y195211D01*
X102444Y194925D01*
X102376Y194645D01*
X102280Y194372D01*
X102242Y194261D01*
X102225Y194144D01*
X102225Y194026D01*
X102245Y193909D01*
X102282Y193797D01*
X102336Y193693D01*
X102406Y193598D01*
X102491Y193515D01*
X102587Y193446D01*
X102692Y193393D01*
X102805Y193357D01*
X102921Y193340D01*
X103039Y193341D01*
X103113Y193353D01*
Y188198D01*
G37*
G36*
Y182000D02*X102331D01*
X102692Y182308D01*
X103113Y182802D01*
Y182000D01*
G37*
G36*
Y178198D02*X102692Y178692D01*
X102331Y179000D01*
X103113D01*
Y178198D01*
G37*
G36*
Y168198D02*X102692Y168692D01*
X102153Y169152D01*
X101549Y169522D01*
X100895Y169793D01*
X100206Y169958D01*
X99500Y170014D01*
X99493Y170013D01*
Y170987D01*
X99500Y170986D01*
X100206Y171042D01*
X100895Y171207D01*
X101549Y171478D01*
X102153Y171848D01*
X102692Y172308D01*
X103113Y172802D01*
Y168198D01*
G37*
G36*
Y158198D02*X102692Y158692D01*
X102153Y159152D01*
X101549Y159522D01*
X100895Y159793D01*
X100206Y159958D01*
X99500Y160014D01*
X99493Y160013D01*
Y160987D01*
X99500Y160986D01*
X100206Y161042D01*
X100895Y161207D01*
X101549Y161478D01*
X102153Y161848D01*
X102692Y162308D01*
X103113Y162802D01*
Y158198D01*
G37*
G36*
Y148198D02*X102692Y148692D01*
X102153Y149152D01*
X101549Y149522D01*
X100895Y149793D01*
X100206Y149958D01*
X99500Y150014D01*
X99493Y150013D01*
Y150987D01*
X99500Y150986D01*
X100206Y151042D01*
X100895Y151207D01*
X101549Y151478D01*
X102153Y151848D01*
X102692Y152308D01*
X103113Y152802D01*
Y148198D01*
G37*
G36*
Y138198D02*X102692Y138692D01*
X102153Y139152D01*
X101549Y139522D01*
X100895Y139793D01*
X100206Y139958D01*
X99500Y140014D01*
X99493Y140013D01*
Y140987D01*
X99500Y140986D01*
X100206Y141042D01*
X100895Y141207D01*
X101549Y141478D01*
X102153Y141848D01*
X102692Y142308D01*
X103113Y142802D01*
Y138198D01*
G37*
G36*
Y118198D02*X102692Y118692D01*
X102153Y119152D01*
X101549Y119522D01*
X100895Y119793D01*
X100206Y119958D01*
X99500Y120014D01*
X99493Y120013D01*
Y120995D01*
X99500Y120995D01*
X99933Y121016D01*
X100363Y121078D01*
X100784Y121182D01*
X101194Y121325D01*
X101300Y121378D01*
X101396Y121447D01*
X101481Y121530D01*
X101551Y121625D01*
X101606Y121731D01*
X101643Y121843D01*
X101663Y121960D01*
X101664Y122079D01*
X101646Y122196D01*
X101610Y122309D01*
X101557Y122415D01*
X101488Y122512D01*
X101405Y122596D01*
X101309Y122667D01*
X101204Y122721D01*
X101092Y122759D01*
X100975Y122778D01*
X100856Y122779D01*
X100739Y122761D01*
X100626Y122723D01*
X100355Y122624D01*
X100075Y122556D01*
X99789Y122514D01*
X99500Y122500D01*
X99493Y122500D01*
Y128500D01*
X99500Y128500D01*
X99789Y128486D01*
X100075Y128444D01*
X100355Y128376D01*
X100628Y128280D01*
X100739Y128242D01*
X100856Y128225D01*
X100974Y128225D01*
X101091Y128245D01*
X101203Y128282D01*
X101307Y128336D01*
X101402Y128406D01*
X101485Y128491D01*
X101554Y128587D01*
X101607Y128692D01*
X101643Y128805D01*
X101660Y128921D01*
X101659Y129039D01*
X101640Y129156D01*
X101603Y129268D01*
X101548Y129373D01*
X101478Y129468D01*
X101394Y129551D01*
X101298Y129619D01*
X101192Y129670D01*
X100784Y129818D01*
X100363Y129922D01*
X99933Y129984D01*
X99500Y130005D01*
X99493Y130005D01*
Y130987D01*
X99500Y130986D01*
X100206Y131042D01*
X100895Y131207D01*
X101549Y131478D01*
X102153Y131848D01*
X102692Y132308D01*
X103113Y132802D01*
Y127651D01*
X103040Y127663D01*
X102921Y127664D01*
X102804Y127646D01*
X102691Y127610D01*
X102585Y127557D01*
X102488Y127488D01*
X102404Y127405D01*
X102333Y127309D01*
X102279Y127204D01*
X102241Y127092D01*
X102222Y126975D01*
X102221Y126856D01*
X102239Y126739D01*
X102277Y126626D01*
X102376Y126355D01*
X102444Y126075D01*
X102486Y125789D01*
X102500Y125500D01*
X102486Y125211D01*
X102444Y124925D01*
X102376Y124645D01*
X102280Y124372D01*
X102242Y124261D01*
X102225Y124144D01*
X102225Y124026D01*
X102245Y123909D01*
X102282Y123797D01*
X102336Y123693D01*
X102406Y123598D01*
X102491Y123515D01*
X102587Y123446D01*
X102692Y123393D01*
X102805Y123357D01*
X102921Y123340D01*
X103039Y123341D01*
X103113Y123353D01*
Y118198D01*
G37*
G36*
Y112568D02*X102975Y112511D01*
X102744Y112369D01*
X103113Y112802D01*
Y112568D01*
G37*
G36*
X99493Y278000D02*X103113D01*
Y252096D01*
X103108Y252080D01*
X103081Y251924D01*
X103079Y251766D01*
X103102Y251610D01*
X103113Y251575D01*
Y248411D01*
X103106Y248389D01*
X103083Y248234D01*
X103085Y248076D01*
X103112Y247921D01*
X103113Y247918D01*
Y209870D01*
X102965Y209931D01*
X102735Y209986D01*
X102500Y210000D01*
X99493Y209993D01*
Y244057D01*
X99500Y244056D01*
X100064Y244083D01*
X100623Y244163D01*
X101172Y244296D01*
X101706Y244481D01*
X101848Y244550D01*
X101977Y244642D01*
X102091Y244752D01*
X102185Y244879D01*
X102259Y245019D01*
X102309Y245168D01*
X102336Y245324D01*
X102338Y245482D01*
X102315Y245639D01*
X102268Y245790D01*
X102198Y245931D01*
X102107Y246061D01*
X101996Y246174D01*
X101870Y246268D01*
X101730Y246342D01*
X101580Y246392D01*
X101424Y246419D01*
X101266Y246421D01*
X101110Y246398D01*
X100960Y246348D01*
X100608Y246222D01*
X100244Y246134D01*
X99874Y246081D01*
X99500Y246063D01*
X99493Y246063D01*
Y253937D01*
X99500Y253937D01*
X99874Y253919D01*
X100244Y253866D01*
X100608Y253778D01*
X100961Y253656D01*
X101111Y253606D01*
X101266Y253583D01*
X101424Y253585D01*
X101579Y253612D01*
X101728Y253662D01*
X101867Y253736D01*
X101993Y253830D01*
X102103Y253942D01*
X102194Y254071D01*
X102264Y254212D01*
X102311Y254362D01*
X102333Y254518D01*
X102332Y254675D01*
X102305Y254831D01*
X102254Y254980D01*
X102181Y255119D01*
X102087Y255245D01*
X101975Y255355D01*
X101846Y255446D01*
X101704Y255513D01*
X101172Y255704D01*
X100623Y255837D01*
X100064Y255917D01*
X99500Y255944D01*
X99493Y255943D01*
Y278000D01*
G37*
G36*
X95887Y142802D02*X96308Y142308D01*
X96847Y141848D01*
X97451Y141478D01*
X98105Y141207D01*
X98794Y141042D01*
X99493Y140987D01*
Y140013D01*
X98794Y139958D01*
X98105Y139793D01*
X97451Y139522D01*
X96847Y139152D01*
X96308Y138692D01*
X95887Y138198D01*
Y142802D01*
G37*
G36*
Y152802D02*X96308Y152308D01*
X96847Y151848D01*
X97451Y151478D01*
X98105Y151207D01*
X98794Y151042D01*
X99493Y150987D01*
Y150013D01*
X98794Y149958D01*
X98105Y149793D01*
X97451Y149522D01*
X96847Y149152D01*
X96308Y148692D01*
X95887Y148198D01*
Y152802D01*
G37*
G36*
Y162802D02*X96308Y162308D01*
X96847Y161848D01*
X97451Y161478D01*
X98105Y161207D01*
X98794Y161042D01*
X99493Y160987D01*
Y160013D01*
X98794Y159958D01*
X98105Y159793D01*
X97451Y159522D01*
X96847Y159152D01*
X96308Y158692D01*
X95887Y158198D01*
Y162802D01*
G37*
G36*
Y172802D02*X96308Y172308D01*
X96847Y171848D01*
X97451Y171478D01*
X98105Y171207D01*
X98794Y171042D01*
X99493Y170987D01*
Y170013D01*
X98794Y169958D01*
X98105Y169793D01*
X97451Y169522D01*
X96847Y169152D01*
X96308Y168692D01*
X95887Y168198D01*
Y172802D01*
G37*
G36*
Y179000D02*X96669D01*
X96308Y178692D01*
X95887Y178198D01*
Y179000D01*
G37*
G36*
Y112802D02*X95931Y112750D01*
X95887D01*
Y112802D01*
G37*
G36*
X99493Y120013D02*X98794Y119958D01*
X98105Y119793D01*
X97451Y119522D01*
X96847Y119152D01*
X96308Y118692D01*
X95887Y118198D01*
Y123349D01*
X95960Y123337D01*
X96079Y123336D01*
X96196Y123354D01*
X96309Y123390D01*
X96415Y123443D01*
X96512Y123512D01*
X96596Y123595D01*
X96667Y123691D01*
X96721Y123796D01*
X96759Y123908D01*
X96778Y124025D01*
X96779Y124144D01*
X96761Y124261D01*
X96723Y124374D01*
X96624Y124645D01*
X96556Y124925D01*
X96514Y125211D01*
X96500Y125500D01*
X96514Y125789D01*
X96556Y126075D01*
X96624Y126355D01*
X96720Y126628D01*
X96758Y126739D01*
X96775Y126856D01*
X96775Y126974D01*
X96755Y127091D01*
X96718Y127203D01*
X96664Y127307D01*
X96594Y127402D01*
X96509Y127485D01*
X96413Y127554D01*
X96308Y127607D01*
X96195Y127643D01*
X96079Y127660D01*
X95961Y127659D01*
X95887Y127647D01*
Y132802D01*
X96308Y132308D01*
X96847Y131848D01*
X97451Y131478D01*
X98105Y131207D01*
X98794Y131042D01*
X99493Y130987D01*
Y130005D01*
X99067Y129984D01*
X98637Y129922D01*
X98216Y129818D01*
X97806Y129675D01*
X97700Y129622D01*
X97604Y129553D01*
X97519Y129470D01*
X97449Y129375D01*
X97394Y129269D01*
X97357Y129157D01*
X97337Y129040D01*
X97336Y128921D01*
X97354Y128804D01*
X97390Y128691D01*
X97443Y128585D01*
X97512Y128488D01*
X97595Y128404D01*
X97691Y128333D01*
X97796Y128279D01*
X97908Y128241D01*
X98025Y128222D01*
X98144Y128221D01*
X98261Y128239D01*
X98374Y128277D01*
X98645Y128376D01*
X98925Y128444D01*
X99211Y128486D01*
X99493Y128500D01*
Y122500D01*
X99211Y122514D01*
X98925Y122556D01*
X98645Y122624D01*
X98372Y122720D01*
X98261Y122758D01*
X98144Y122775D01*
X98026Y122775D01*
X97909Y122755D01*
X97797Y122718D01*
X97693Y122664D01*
X97598Y122594D01*
X97515Y122509D01*
X97446Y122413D01*
X97393Y122308D01*
X97357Y122195D01*
X97340Y122079D01*
X97341Y121961D01*
X97360Y121844D01*
X97397Y121732D01*
X97452Y121627D01*
X97522Y121532D01*
X97606Y121449D01*
X97702Y121381D01*
X97808Y121330D01*
X98216Y121182D01*
X98637Y121078D01*
X99067Y121016D01*
X99493Y120995D01*
Y120013D01*
G37*
G36*
X95887Y118198D02*X95848Y118153D01*
X95478Y117549D01*
X95207Y116895D01*
X95042Y116206D01*
X94986Y115500D01*
X95042Y114794D01*
X95207Y114105D01*
X95478Y113451D01*
X95848Y112847D01*
X95887Y112802D01*
Y112750D01*
X91000D01*
Y177491D01*
X91471Y177528D01*
X91930Y177638D01*
X92366Y177819D01*
X92769Y178065D01*
X93128Y178372D01*
X93435Y178731D01*
X93599Y179000D01*
X95887D01*
Y178198D01*
X95848Y178153D01*
X95478Y177549D01*
X95207Y176895D01*
X95042Y176206D01*
X94986Y175500D01*
X95042Y174794D01*
X95207Y174105D01*
X95478Y173451D01*
X95848Y172847D01*
X95887Y172802D01*
Y168198D01*
X95848Y168153D01*
X95478Y167549D01*
X95207Y166895D01*
X95042Y166206D01*
X94986Y165500D01*
X95042Y164794D01*
X95207Y164105D01*
X95478Y163451D01*
X95848Y162847D01*
X95887Y162802D01*
Y158198D01*
X95848Y158153D01*
X95478Y157549D01*
X95207Y156895D01*
X95042Y156206D01*
X94986Y155500D01*
X95042Y154794D01*
X95207Y154105D01*
X95478Y153451D01*
X95848Y152847D01*
X95887Y152802D01*
Y148198D01*
X95848Y148153D01*
X95478Y147549D01*
X95207Y146895D01*
X95042Y146206D01*
X94986Y145500D01*
X95042Y144794D01*
X95207Y144105D01*
X95478Y143451D01*
X95848Y142847D01*
X95887Y142802D01*
Y138198D01*
X95848Y138153D01*
X95478Y137549D01*
X95207Y136895D01*
X95042Y136206D01*
X94986Y135500D01*
X95042Y134794D01*
X95207Y134105D01*
X95478Y133451D01*
X95848Y132847D01*
X95887Y132802D01*
Y127647D01*
X95844Y127640D01*
X95732Y127603D01*
X95627Y127548D01*
X95532Y127478D01*
X95449Y127394D01*
X95381Y127298D01*
X95330Y127192D01*
X95182Y126784D01*
X95078Y126363D01*
X95016Y125933D01*
X94995Y125500D01*
X95016Y125067D01*
X95078Y124637D01*
X95182Y124216D01*
X95325Y123806D01*
X95378Y123700D01*
X95447Y123604D01*
X95530Y123519D01*
X95625Y123449D01*
X95731Y123394D01*
X95843Y123357D01*
X95887Y123349D01*
Y118198D01*
G37*
G36*
Y182802D02*X96308Y182308D01*
X96669Y182000D01*
X95887D01*
Y182802D01*
G37*
G36*
Y201130D02*X96035Y201069D01*
X96265Y201014D01*
X96500Y201000D01*
X99493Y201007D01*
Y200005D01*
X99067Y199984D01*
X98637Y199922D01*
X98216Y199818D01*
X97806Y199675D01*
X97700Y199622D01*
X97604Y199553D01*
X97519Y199470D01*
X97449Y199375D01*
X97394Y199269D01*
X97357Y199157D01*
X97337Y199040D01*
X97336Y198921D01*
X97354Y198804D01*
X97390Y198691D01*
X97443Y198585D01*
X97512Y198488D01*
X97595Y198404D01*
X97691Y198333D01*
X97796Y198279D01*
X97908Y198241D01*
X98025Y198222D01*
X98144Y198221D01*
X98261Y198239D01*
X98374Y198277D01*
X98645Y198376D01*
X98925Y198444D01*
X99211Y198486D01*
X99493Y198500D01*
Y192500D01*
X99211Y192514D01*
X98925Y192556D01*
X98645Y192624D01*
X98372Y192720D01*
X98261Y192758D01*
X98144Y192775D01*
X98026Y192775D01*
X97909Y192755D01*
X97797Y192718D01*
X97693Y192664D01*
X97598Y192594D01*
X97515Y192509D01*
X97446Y192413D01*
X97393Y192308D01*
X97357Y192195D01*
X97340Y192079D01*
X97341Y191961D01*
X97360Y191844D01*
X97397Y191732D01*
X97452Y191627D01*
X97522Y191532D01*
X97606Y191449D01*
X97702Y191381D01*
X97808Y191330D01*
X98216Y191182D01*
X98637Y191078D01*
X99067Y191016D01*
X99493Y190995D01*
Y190013D01*
X98794Y189958D01*
X98105Y189793D01*
X97451Y189522D01*
X96847Y189152D01*
X96308Y188692D01*
X95887Y188198D01*
Y193349D01*
X95960Y193337D01*
X96079Y193336D01*
X96196Y193354D01*
X96309Y193390D01*
X96415Y193443D01*
X96512Y193512D01*
X96596Y193595D01*
X96667Y193691D01*
X96721Y193796D01*
X96759Y193908D01*
X96778Y194025D01*
X96779Y194144D01*
X96761Y194261D01*
X96723Y194374D01*
X96624Y194645D01*
X96556Y194925D01*
X96514Y195211D01*
X96500Y195500D01*
X96514Y195789D01*
X96556Y196075D01*
X96624Y196355D01*
X96720Y196628D01*
X96758Y196739D01*
X96775Y196856D01*
X96775Y196974D01*
X96755Y197091D01*
X96718Y197203D01*
X96664Y197307D01*
X96594Y197402D01*
X96509Y197485D01*
X96413Y197554D01*
X96308Y197607D01*
X96195Y197643D01*
X96079Y197660D01*
X95961Y197659D01*
X95887Y197647D01*
Y201130D01*
G37*
G36*
Y278000D02*X99493D01*
Y255943D01*
X98936Y255917D01*
X98377Y255837D01*
X97828Y255704D01*
X97294Y255519D01*
X97152Y255450D01*
X97023Y255358D01*
X96909Y255248D01*
X96815Y255121D01*
X96741Y254981D01*
X96691Y254832D01*
X96664Y254676D01*
X96662Y254518D01*
X96685Y254361D01*
X96732Y254210D01*
X96802Y254069D01*
X96893Y253939D01*
X97004Y253826D01*
X97130Y253732D01*
X97270Y253658D01*
X97420Y253608D01*
X97576Y253581D01*
X97734Y253579D01*
X97890Y253602D01*
X98040Y253652D01*
X98392Y253778D01*
X98756Y253866D01*
X99126Y253919D01*
X99493Y253937D01*
Y246063D01*
X99126Y246081D01*
X98756Y246134D01*
X98392Y246222D01*
X98039Y246344D01*
X97889Y246394D01*
X97734Y246417D01*
X97576Y246415D01*
X97421Y246388D01*
X97272Y246338D01*
X97133Y246264D01*
X97007Y246170D01*
X96897Y246058D01*
X96806Y245929D01*
X96736Y245788D01*
X96689Y245638D01*
X96667Y245482D01*
X96668Y245325D01*
X96695Y245169D01*
X96746Y245020D01*
X96819Y244881D01*
X96913Y244755D01*
X97025Y244645D01*
X97154Y244554D01*
X97296Y244487D01*
X97828Y244296D01*
X98377Y244163D01*
X98936Y244083D01*
X99493Y244057D01*
Y209993D01*
X96265Y209986D01*
X96035Y209931D01*
X95887Y209870D01*
Y247904D01*
X95892Y247920D01*
X95919Y248076D01*
X95921Y248234D01*
X95898Y248390D01*
X95887Y248425D01*
Y251589D01*
X95894Y251611D01*
X95917Y251766D01*
X95915Y251924D01*
X95888Y252079D01*
X95887Y252082D01*
Y278000D01*
G37*
G36*
Y248425D02*X95848Y248540D01*
X95722Y248892D01*
X95634Y249256D01*
X95581Y249626D01*
X95563Y250000D01*
X95581Y250374D01*
X95634Y250744D01*
X95722Y251108D01*
X95844Y251461D01*
X95887Y251589D01*
Y248425D01*
G37*
G36*
Y209870D02*X95817Y209841D01*
X95616Y209717D01*
X95436Y209564D01*
X95283Y209384D01*
X95159Y209183D01*
X95069Y208965D01*
X95014Y208735D01*
X95000Y208500D01*
X95014Y202265D01*
X95069Y202035D01*
X95159Y201817D01*
X95283Y201616D01*
X95436Y201436D01*
X95616Y201283D01*
X95817Y201159D01*
X95887Y201130D01*
Y197647D01*
X95844Y197640D01*
X95732Y197603D01*
X95627Y197548D01*
X95532Y197478D01*
X95449Y197394D01*
X95381Y197298D01*
X95330Y197192D01*
X95182Y196784D01*
X95078Y196363D01*
X95016Y195933D01*
X94995Y195500D01*
X95016Y195067D01*
X95078Y194637D01*
X95182Y194216D01*
X95325Y193806D01*
X95378Y193700D01*
X95447Y193604D01*
X95530Y193519D01*
X95625Y193449D01*
X95731Y193394D01*
X95843Y193357D01*
X95887Y193349D01*
Y188198D01*
X95848Y188153D01*
X95478Y187549D01*
X95207Y186895D01*
X95042Y186206D01*
X94986Y185500D01*
X95042Y184794D01*
X95207Y184105D01*
X95478Y183451D01*
X95848Y182847D01*
X95887Y182802D01*
Y182000D01*
X93599D01*
X93435Y182269D01*
X93128Y182628D01*
X92769Y182935D01*
X92366Y183181D01*
X91930Y183362D01*
X91471Y183472D01*
X91000Y183509D01*
Y244075D01*
X93751Y244082D01*
X94057Y244155D01*
X94348Y244275D01*
X94616Y244440D01*
X94856Y244644D01*
X95060Y244884D01*
X95225Y245152D01*
X95345Y245443D01*
X95418Y245749D01*
X95437Y246063D01*
X95434Y247304D01*
X95561Y247393D01*
X95674Y247504D01*
X95768Y247630D01*
X95842Y247770D01*
X95887Y247904D01*
Y209870D01*
G37*
G36*
X91000Y278000D02*X95887D01*
Y252082D01*
X95838Y252228D01*
X95764Y252367D01*
X95670Y252493D01*
X95558Y252603D01*
X95429Y252694D01*
X95422Y252698D01*
X95418Y254251D01*
X95345Y254557D01*
X95225Y254848D01*
X95060Y255116D01*
X94856Y255356D01*
X94616Y255560D01*
X94348Y255725D01*
X94057Y255845D01*
X93751Y255918D01*
X93437Y255937D01*
X91000Y255931D01*
Y278000D01*
G37*
G54D36*X104000Y100500D02*X95500D01*
G54D37*X104000D02*X111000D01*
X117000Y106500D01*
X125000D01*
X128500Y110000D01*
X119500Y102500D02*X127000D01*
X128500Y117500D02*X148000D01*
X155500Y125000D01*
X128500Y110000D02*Y117500D01*
X127000Y102500D02*X133000Y108500D01*
X99000Y116000D02*X99500Y115500D01*
X76000Y111000D02*X85500D01*
X86000Y110500D01*
X96000D01*
X104000D02*X114000D01*
G54D36*X105500D02*X94000D01*
G54D37*X96000Y100500D02*X78000D01*
X88500Y90500D02*X96000D01*
G54D36*X105000D01*
G54D37*X104000D02*X107500D01*
X119500Y102500D01*
X196000Y68000D02*Y108500D01*
X78000Y100500D02*X66000Y88500D01*
Y68500D01*
X76000Y53500D02*X79500D01*
X189500Y65500D02*X193500D01*
X196000Y68000D01*
X79500Y53500D02*X84500Y58500D01*
Y86500D01*
X88500Y90500D01*
G54D36*X145500Y137000D02*Y144000D01*
X153500Y131500D02*X156500Y134500D01*
Y144500D01*
X153500Y131500D02*X143000D01*
G54D37*X196000Y107000D02*Y169000D01*
X194500Y170500D01*
X192500D01*
G54D36*X168500D01*
G54D37*X186000D01*
G54D38*X168000Y165500D02*X189500D01*
G54D36*X113500Y174000D02*X107000Y180500D01*
X91000D01*
G54D39*X17000Y263000D03*
G54D35*G36*
X59000Y263500D02*Y255500D01*
X67000D01*
Y263500D01*
X59000D01*
G37*
G54D40*X43000Y259500D03*
G54D35*G36*
X32500Y235000D02*Y227000D01*
X40500D01*
Y235000D01*
X32500D01*
G37*
G54D40*X36500Y221000D03*
G54D41*X99500Y165500D03*
Y155500D03*
G54D40*X36500Y161000D03*
G54D35*G36*
X85563Y253937D02*Y246063D01*
X93437D01*
Y253937D01*
X85563D01*
G37*
G54D39*X17000Y17000D03*
G54D42*X41000Y138500D03*
Y98500D03*
Y81000D03*
Y41000D03*
G54D39*X183000Y17000D03*
G54D41*X189500Y145500D03*
Y135500D03*
Y125500D03*
Y115500D03*
Y105500D03*
Y95500D03*
Y85500D03*
Y75500D03*
Y65500D03*
G54D43*X76000Y131000D03*
X66000Y126000D03*
X76000Y121000D03*
X66000Y116000D03*
X76000Y111000D03*
X66000Y106000D03*
G54D41*X99500Y145500D03*
Y135500D03*
Y125500D03*
Y115500D03*
Y105500D03*
Y95500D03*
Y85500D03*
Y75500D03*
Y65500D03*
G54D43*X76000Y73500D03*
X66000Y68500D03*
X76000Y63500D03*
X66000Y58500D03*
X76000Y53500D03*
X66000Y48500D03*
G54D35*G36*
X96500Y208500D02*Y202500D01*
X102500D01*
Y208500D01*
X96500D01*
G37*
G54D41*X189500Y205500D03*
G54D40*X36500Y211000D03*
Y201000D03*
G54D41*X99500Y195500D03*
X189500D03*
G54D40*X36500Y191000D03*
G54D41*X99500Y185500D03*
X189500D03*
G54D40*X36500Y181000D03*
Y171000D03*
G54D41*X99500Y175500D03*
X189500D03*
Y165500D03*
Y155500D03*
G54D39*X183000Y263000D03*
G54D44*X109500Y250000D03*
X99500D03*
G54D38*X29500Y65000D03*
X34500D03*
X39500D03*
X44500D03*
X54500Y96500D03*
X59500D03*
X54500Y83500D03*
X59500D03*
X22500Y110000D03*
X27500D03*
X32500D03*
X37500D03*
X145500Y144000D03*
Y137000D03*
X139000Y124500D03*
X155500Y125000D03*
X143000Y131500D03*
X156500Y144500D03*
X168000Y165500D03*
X168500Y170500D03*
X173500Y165500D03*
X175000Y125000D03*
X170000D03*
X113500Y126500D03*
Y121000D03*
X128500Y117500D03*
X114000Y110500D03*
X133000Y108500D03*
X131500Y158500D03*
X158000D03*
X150161Y158339D03*
X126000Y158500D03*
X113500Y174000D03*
X91000Y180500D03*
X67500Y215500D03*
X62000D03*
X86500D03*
X81000D03*
G54D45*G54D46*G54D47*G54D48*G54D47*G54D49*G54D46*G54D50*G54D46*G54D48*G54D51*G54D48*G54D51*G54D48*G54D47*G54D48*G54D47*G54D48*G54D47*G54D48*G54D46*G54D49*M02*
