M48
INCH
T59C0.020
T58C0.030
T57C0.128
T56C0.045
T55C0.038
T54C0.048
T53C0.129
%
T59
X002250Y011000
X002750Y011000
X002950Y006500
X003250Y011000
X003450Y006500
X003750Y011000
X003950Y006500
X004450Y006500
X005450Y009650
X005450Y008350
X005950Y009650
X005950Y008350
X006200Y021550
X006750Y021550
X008100Y021550
X008650Y021550
X009100Y018050
X011350Y017400
X011350Y012650
X011350Y012100
X011400Y011050
X012600Y015850
X012850Y011750
X013150Y015850
X013300Y010850
X013900Y012450
X014300Y013150
X014550Y014400
X014550Y013700
X015016Y015834
X015550Y012500
X015650Y014450
X015800Y015850
X016800Y016550
X016850Y017050
X017000Y012500
X017350Y016550
X017500Y012500
T58
X006600Y012600
X006600Y011600
X006600Y010600
X006600Y006850
X006600Y005850
X006600Y004850
X007600Y013100
X007600Y012100
X007600Y011100
X007600Y007350
X007600Y006350
X007600Y005350
T55
X009950Y020550
X009950Y019550
X009950Y018550
X009950Y017550
X009950Y016550
X009950Y015550
X009950Y014550
X009950Y013550
X009950Y012550
X009950Y011550
X009950Y010550
X009950Y009550
X009950Y008550
X009950Y007550
X009950Y006550
X018950Y020550
X018950Y019550
X018950Y018550
X018950Y017550
X018950Y016550
X018950Y015550
X018950Y014550
X018950Y013550
X018950Y012550
X018950Y011550
X018950Y010550
X018950Y009550
X018950Y008550
X018950Y007550
X018950Y006550
T56
X008950Y025000
X009950Y025000
X010950Y025000
T54
X003650Y023100
X003650Y022100
X003650Y021100
X003650Y020100
X003650Y019100
X003650Y018100
X003650Y017100
X003650Y016100
X004300Y025950
X006300Y025950
T57
X004100Y013850
X004100Y009850
X004100Y008100
X004100Y004100
T53
X001700Y026300
X001700Y001700
X018300Y026300
X018300Y001700
M30
