G04 start of page 6 for group -4063 idx -4063 *
G04 Title: (unknown), componentmask *
G04 Creator: pcb 20140316 *
G04 CreationDate: Mon 17 Apr 2017 07:18:47 PM GMT UTC *
G04 For: ndholmes *
G04 Format: Gerber/RS-274X *
G04 PCB-Dimensions (mil): 2000.00 2800.00 *
G04 PCB-Coordinate-Origin: lower left *
%MOIN*%
%FSLAX25Y25*%
%LNTOPMASK*%
%ADD72R,0.0225X0.0225*%
%ADD71R,0.0690X0.0690*%
%ADD70R,0.0572X0.0572*%
%ADD69R,0.0227X0.0227*%
%ADD68R,0.0300X0.0300*%
%ADD67C,0.0600*%
%ADD66C,0.0900*%
%ADD65C,0.0760*%
%ADD64C,0.1500*%
%ADD63C,0.0660*%
%ADD62C,0.0860*%
%ADD61C,0.0001*%
%ADD60C,0.2997*%
G54D60*X17000Y263000D03*
G54D61*G36*
X58700Y263800D02*Y255200D01*
X67300D01*
Y263800D01*
X58700D01*
G37*
G54D62*X43000Y259500D03*
G54D61*G36*
X32200Y235300D02*Y226700D01*
X40800D01*
Y235300D01*
X32200D01*
G37*
G54D62*X36500Y221000D03*
G54D63*X99500Y165500D03*
Y155500D03*
G54D62*X36500Y161000D03*
G54D61*G36*
X85000Y254500D02*Y245500D01*
X94000D01*
Y254500D01*
X85000D01*
G37*
G54D60*X17000Y17000D03*
G54D64*X41000Y138500D03*
Y98500D03*
Y81000D03*
Y41000D03*
G54D60*X183000Y17000D03*
G54D63*X189500Y145500D03*
Y135500D03*
Y125500D03*
Y115500D03*
Y105500D03*
Y95500D03*
Y85500D03*
Y75500D03*
Y65500D03*
G54D65*X76000Y131000D03*
X66000Y126000D03*
X76000Y121000D03*
X66000Y116000D03*
X76000Y111000D03*
X66000Y106000D03*
G54D63*X99500Y145500D03*
Y135500D03*
Y125500D03*
Y115500D03*
Y105500D03*
Y95500D03*
Y85500D03*
Y75500D03*
Y65500D03*
G54D65*X76000Y73500D03*
X66000Y68500D03*
X76000Y63500D03*
X66000Y58500D03*
X76000Y53500D03*
X66000Y48500D03*
G54D61*G36*
X96200Y208800D02*Y202200D01*
X102800D01*
Y208800D01*
X96200D01*
G37*
G54D63*X189500Y205500D03*
G54D62*X36500Y211000D03*
Y201000D03*
G54D63*X99500Y195500D03*
X189500D03*
G54D62*X36500Y191000D03*
G54D63*X99500Y185500D03*
X189500D03*
G54D62*X36500Y181000D03*
Y171000D03*
G54D63*X99500Y175500D03*
X189500D03*
Y165500D03*
Y155500D03*
G54D60*X183000Y263000D03*
G54D66*X109500Y250000D03*
X99500D03*
G54D67*X178000Y185300D03*
G54D68*X176500Y183800D02*X179500D01*
G54D67*X178000Y178500D03*
G54D68*X176500Y180000D02*X179500D01*
G54D69*X123575Y148283D02*Y146413D01*
X120425Y148283D02*Y146413D01*
Y141587D02*Y139717D01*
X123575Y141587D02*Y139717D01*
G54D70*X112457Y158893D02*Y158107D01*
X119543Y158893D02*Y158107D01*
G54D68*X119500Y126900D02*X121100D01*
X119500Y123000D02*X121100D01*
X127700D02*X129300D01*
X127700Y126900D02*X129300D01*
X127700Y130800D02*X129300D01*
X119500D02*X121100D01*
G54D70*X132107Y249457D02*X132893D01*
X132107Y256543D02*X132893D01*
G54D71*X74500Y234835D02*Y228536D01*
Y215150D02*Y208851D01*
G54D69*X174075Y148283D02*Y146413D01*
X170925Y148283D02*Y146413D01*
Y141587D02*Y139717D01*
X174075Y141587D02*Y139717D01*
G54D70*X167914Y131393D02*Y130607D01*
X175000Y131393D02*Y130607D01*
G54D72*X157839Y150469D02*Y148622D01*
Y150000D02*Y149000D01*
X155280Y150469D02*Y148622D01*
Y150000D02*Y149000D01*
X152720Y150469D02*Y148622D01*
X150161Y150469D02*Y148622D01*
X152720Y150000D02*Y149000D01*
X150161Y150000D02*Y149000D01*
Y133378D02*Y131531D01*
X152720Y133378D02*Y131531D01*
X150161Y133000D02*Y132000D01*
X152720Y133000D02*Y132000D01*
X155280Y133378D02*Y131531D01*
X157839Y133378D02*Y131531D01*
X155280Y133000D02*Y132000D01*
X157839Y133000D02*Y132000D01*
M02*
