G04 start of page 7 for group -4062 idx -4062 *
G04 Title: (unknown), soldermask *
G04 Creator: pcb 20140316 *
G04 CreationDate: Mon 17 Apr 2017 07:18:47 PM GMT UTC *
G04 For: ndholmes *
G04 Format: Gerber/RS-274X *
G04 PCB-Dimensions (mil): 2000.00 2800.00 *
G04 PCB-Coordinate-Origin: lower left *
%MOIN*%
%FSLAX25Y25*%
%LNBOTTOMMASK*%
%ADD79C,0.0900*%
%ADD78C,0.0760*%
%ADD77C,0.1500*%
%ADD76C,0.0660*%
%ADD75C,0.0860*%
%ADD74C,0.0001*%
%ADD73C,0.2997*%
G54D73*X17000Y263000D03*
G54D74*G36*
X58700Y263800D02*Y255200D01*
X67300D01*
Y263800D01*
X58700D01*
G37*
G54D75*X43000Y259500D03*
G54D74*G36*
X32200Y235300D02*Y226700D01*
X40800D01*
Y235300D01*
X32200D01*
G37*
G54D75*X36500Y221000D03*
G54D76*X99500Y165500D03*
Y155500D03*
G54D75*X36500Y161000D03*
G54D74*G36*
X85000Y254500D02*Y245500D01*
X94000D01*
Y254500D01*
X85000D01*
G37*
G54D73*X17000Y17000D03*
G54D77*X41000Y138500D03*
Y98500D03*
Y81000D03*
Y41000D03*
G54D73*X183000Y17000D03*
G54D76*X189500Y145500D03*
Y135500D03*
Y125500D03*
Y115500D03*
Y105500D03*
Y95500D03*
Y85500D03*
Y75500D03*
Y65500D03*
G54D78*X76000Y131000D03*
X66000Y126000D03*
X76000Y121000D03*
X66000Y116000D03*
X76000Y111000D03*
X66000Y106000D03*
G54D76*X99500Y145500D03*
Y135500D03*
Y125500D03*
Y115500D03*
Y105500D03*
Y95500D03*
Y85500D03*
Y75500D03*
Y65500D03*
G54D78*X76000Y73500D03*
X66000Y68500D03*
X76000Y63500D03*
X66000Y58500D03*
X76000Y53500D03*
X66000Y48500D03*
G54D74*G36*
X96200Y208800D02*Y202200D01*
X102800D01*
Y208800D01*
X96200D01*
G37*
G54D76*X189500Y205500D03*
G54D75*X36500Y211000D03*
Y201000D03*
G54D76*X99500Y195500D03*
X189500D03*
G54D75*X36500Y191000D03*
G54D76*X99500Y185500D03*
X189500D03*
G54D75*X36500Y181000D03*
Y171000D03*
G54D76*X99500Y175500D03*
X189500D03*
Y165500D03*
Y155500D03*
G54D73*X183000Y263000D03*
G54D79*X109500Y250000D03*
X99500D03*
M02*
