G04 start of page 12 for group -3984 idx -3984 *
G04 Title: (unknown), fab *
G04 Creator: pcb 20140316 *
G04 CreationDate: Mon 17 Apr 2017 07:18:47 PM GMT UTC *
G04 For: ndholmes *
G04 Format: Gerber/RS-274X *
G04 PCB-Dimensions (mil): 2000.00 2800.00 *
G04 PCB-Coordinate-Origin: lower left *
%MOIN*%
%FSLAX25Y25*%
%LNFAB*%
%ADD93C,0.0100*%
%ADD92C,0.0060*%
%ADD91R,0.0080X0.0080*%
G54D91*X17000Y266200D02*Y259800D01*
X13800Y263000D02*X20200D01*
X15400Y264600D02*X18600D01*
X15400D02*Y261400D01*
X18600D01*
Y264600D02*Y261400D01*
X17000Y20200D02*Y13800D01*
X13800Y17000D02*X20200D01*
X15400Y18600D02*X18600D01*
X15400D02*Y15400D01*
X18600D01*
Y18600D02*Y15400D01*
X183000Y266200D02*Y259800D01*
X179800Y263000D02*X186200D01*
X181400Y264600D02*X184600D01*
X181400D02*Y261400D01*
X184600D01*
Y264600D02*Y261400D01*
X183000Y20200D02*Y13800D01*
X179800Y17000D02*X186200D01*
X181400Y18600D02*X184600D01*
X181400D02*Y15400D01*
X184600D01*
Y18600D02*Y15400D01*
X15000Y294450D02*Y288050D01*
X11800Y291250D02*X18200D01*
X13400Y292850D02*X16600D01*
X13400D02*Y289650D01*
X16600D01*
Y292850D02*Y289650D01*
G54D92*X135000Y293500D02*Y292750D01*
X136500Y291250D01*
X138000Y292750D01*
Y293500D02*Y292750D01*
X136500Y291250D02*Y287500D01*
X139800Y290500D02*X142050D01*
X139800Y287500D02*X142800D01*
X139800Y293500D02*Y287500D01*
Y293500D02*X142800D01*
X147600D02*X148350Y292750D01*
X145350Y293500D02*X147600D01*
X144600Y292750D02*X145350Y293500D01*
X144600Y292750D02*Y291250D01*
X145350Y290500D01*
X147600D01*
X148350Y289750D01*
Y288250D01*
X147600Y287500D02*X148350Y288250D01*
X145350Y287500D02*X147600D01*
X144600Y288250D02*X145350Y287500D01*
X98000Y290500D02*X101000Y293500D01*
X98000Y290500D02*X101750D01*
X101000Y293500D02*Y287500D01*
X45000Y288250D02*X45750Y287500D01*
X45000Y292750D02*Y288250D01*
Y292750D02*X45750Y293500D01*
X47250D01*
X48000Y292750D01*
Y288250D01*
X47250Y287500D02*X48000Y288250D01*
X45750Y287500D02*X47250D01*
X45000Y289000D02*X48000Y292000D01*
X49800Y287500D02*X50550D01*
X53100D02*X54600D01*
X53850Y293500D02*Y287500D01*
X52350Y292000D02*X53850Y293500D01*
X56400Y292750D02*X57150Y293500D01*
X59400D01*
X60150Y292750D01*
Y291250D01*
X56400Y287500D02*X60150Y291250D01*
X56400Y287500D02*X60150D01*
X61950D02*X64950Y290500D01*
Y292750D02*Y290500D01*
X64200Y293500D02*X64950Y292750D01*
X62700Y293500D02*X64200D01*
X61950Y292750D02*X62700Y293500D01*
X61950Y292750D02*Y291250D01*
X62700Y290500D01*
X64950D01*
X41000Y138500D02*Y135300D01*
Y138500D02*X43773Y140100D01*
X41000Y138500D02*X38227Y140100D01*
X39400Y138500D02*G75*G03X42600Y138500I1600J0D01*G01*
G75*G03X39400Y138500I-1600J0D01*G01*
X41000Y98500D02*Y95300D01*
Y98500D02*X43773Y100100D01*
X41000Y98500D02*X38227Y100100D01*
X39400Y98500D02*G75*G03X42600Y98500I1600J0D01*G01*
G75*G03X39400Y98500I-1600J0D01*G01*
X41000Y81000D02*Y77800D01*
Y81000D02*X43773Y82600D01*
X41000Y81000D02*X38227Y82600D01*
X39400Y81000D02*G75*G03X42600Y81000I1600J0D01*G01*
G75*G03X39400Y81000I-1600J0D01*G01*
X41000Y41000D02*Y37800D01*
Y41000D02*X43773Y42600D01*
X41000Y41000D02*X38227Y42600D01*
X39400Y41000D02*G75*G03X42600Y41000I1600J0D01*G01*
G75*G03X39400Y41000I-1600J0D01*G01*
X15000Y306250D02*Y303050D01*
Y306250D02*X17773Y307850D01*
X15000Y306250D02*X12227Y307850D01*
X13400Y306250D02*G75*G03X16600Y306250I1600J0D01*G01*
G75*G03X13400Y306250I-1600J0D01*G01*
X135000Y308500D02*Y307750D01*
X136500Y306250D01*
X138000Y307750D01*
Y308500D02*Y307750D01*
X136500Y306250D02*Y302500D01*
X139800Y305500D02*X142050D01*
X139800Y302500D02*X142800D01*
X139800Y308500D02*Y302500D01*
Y308500D02*X142800D01*
X147600D02*X148350Y307750D01*
X145350Y308500D02*X147600D01*
X144600Y307750D02*X145350Y308500D01*
X144600Y307750D02*Y306250D01*
X145350Y305500D01*
X147600D01*
X148350Y304750D01*
Y303250D01*
X147600Y302500D02*X148350Y303250D01*
X145350Y302500D02*X147600D01*
X144600Y303250D02*X145350Y302500D01*
X98000Y305500D02*X101000Y308500D01*
X98000Y305500D02*X101750D01*
X101000Y308500D02*Y302500D01*
X45000Y303250D02*X45750Y302500D01*
X45000Y307750D02*Y303250D01*
Y307750D02*X45750Y308500D01*
X47250D01*
X48000Y307750D01*
Y303250D01*
X47250Y302500D02*X48000Y303250D01*
X45750Y302500D02*X47250D01*
X45000Y304000D02*X48000Y307000D01*
X49800Y302500D02*X50550D01*
X53100D02*X54600D01*
X53850Y308500D02*Y302500D01*
X52350Y307000D02*X53850Y308500D01*
X56400Y307750D02*X57150Y308500D01*
X59400D01*
X60150Y307750D01*
Y306250D01*
X56400Y302500D02*X60150Y306250D01*
X56400Y302500D02*X60150D01*
X61950Y303250D02*X62700Y302500D01*
X61950Y304750D02*Y303250D01*
Y304750D02*X62700Y305500D01*
X64200D01*
X64950Y304750D01*
Y303250D01*
X64200Y302500D02*X64950Y303250D01*
X62700Y302500D02*X64200D01*
X61950Y306250D02*X62700Y305500D01*
X61950Y307750D02*Y306250D01*
Y307750D02*X62700Y308500D01*
X64200D01*
X64950Y307750D01*
Y306250D01*
X64200Y305500D02*X64950Y306250D01*
X61400Y261100D02*X64600D01*
X61400D02*Y257900D01*
X64600D01*
Y261100D02*Y257900D01*
X41400Y261100D02*X44600D01*
X41400D02*Y257900D01*
X44600D01*
Y261100D02*Y257900D01*
X34900Y232600D02*X38100D01*
X34900D02*Y229400D01*
X38100D01*
Y232600D02*Y229400D01*
X34900Y222600D02*X38100D01*
X34900D02*Y219400D01*
X38100D01*
Y222600D02*Y219400D01*
X34900Y212600D02*X38100D01*
X34900D02*Y209400D01*
X38100D01*
Y212600D02*Y209400D01*
X34900Y202600D02*X38100D01*
X34900D02*Y199400D01*
X38100D01*
Y202600D02*Y199400D01*
X34900Y192600D02*X38100D01*
X34900D02*Y189400D01*
X38100D01*
Y192600D02*Y189400D01*
X34900Y182600D02*X38100D01*
X34900D02*Y179400D01*
X38100D01*
Y182600D02*Y179400D01*
X34900Y172600D02*X38100D01*
X34900D02*Y169400D01*
X38100D01*
Y172600D02*Y169400D01*
X34900Y162600D02*X38100D01*
X34900D02*Y159400D01*
X38100D01*
Y162600D02*Y159400D01*
X13400Y322850D02*X16600D01*
X13400D02*Y319650D01*
X16600D01*
Y322850D02*Y319650D01*
X135000Y323500D02*Y322750D01*
X136500Y321250D01*
X138000Y322750D01*
Y323500D02*Y322750D01*
X136500Y321250D02*Y317500D01*
X139800Y320500D02*X142050D01*
X139800Y317500D02*X142800D01*
X139800Y323500D02*Y317500D01*
Y323500D02*X142800D01*
X147600D02*X148350Y322750D01*
X145350Y323500D02*X147600D01*
X144600Y322750D02*X145350Y323500D01*
X144600Y322750D02*Y321250D01*
X145350Y320500D01*
X147600D01*
X148350Y319750D01*
Y318250D01*
X147600Y317500D02*X148350Y318250D01*
X145350Y317500D02*X147600D01*
X144600Y318250D02*X145350Y317500D01*
X98750D02*X100250D01*
X99500Y323500D02*Y317500D01*
X98000Y322000D02*X99500Y323500D01*
X102050Y318250D02*X102800Y317500D01*
X102050Y322750D02*Y318250D01*
Y322750D02*X102800Y323500D01*
X104300D01*
X105050Y322750D01*
Y318250D01*
X104300Y317500D02*X105050Y318250D01*
X102800Y317500D02*X104300D01*
X102050Y319000D02*X105050Y322000D01*
X45000Y318250D02*X45750Y317500D01*
X45000Y322750D02*Y318250D01*
Y322750D02*X45750Y323500D01*
X47250D01*
X48000Y322750D01*
Y318250D01*
X47250Y317500D02*X48000Y318250D01*
X45750Y317500D02*X47250D01*
X45000Y319000D02*X48000Y322000D01*
X49800Y317500D02*X50550D01*
X52350Y318250D02*X53100Y317500D01*
X52350Y322750D02*Y318250D01*
Y322750D02*X53100Y323500D01*
X54600D01*
X55350Y322750D01*
Y318250D01*
X54600Y317500D02*X55350Y318250D01*
X53100Y317500D02*X54600D01*
X52350Y319000D02*X55350Y322000D01*
X57150Y320500D02*X60150Y323500D01*
X57150Y320500D02*X60900D01*
X60150Y323500D02*Y317500D01*
X62700Y318250D02*X63450Y317500D01*
X62700Y319750D02*Y318250D01*
Y319750D02*X63450Y320500D01*
X64950D01*
X65700Y319750D01*
Y318250D01*
X64950Y317500D02*X65700Y318250D01*
X63450Y317500D02*X64950D01*
X62700Y321250D02*X63450Y320500D01*
X62700Y322750D02*Y321250D01*
Y322750D02*X63450Y323500D01*
X64950D01*
X65700Y322750D01*
Y321250D01*
X64950Y320500D02*X65700Y321250D01*
X108700Y250000D02*G75*G03X110300Y250000I800J0D01*G01*
G75*G03X108700Y250000I-800J0D01*G01*
X98700D02*G75*G03X100300Y250000I800J0D01*G01*
G75*G03X98700Y250000I-800J0D01*G01*
X88700D02*G75*G03X90300Y250000I800J0D01*G01*
G75*G03X88700Y250000I-800J0D01*G01*
X14200Y336250D02*G75*G03X15800Y336250I800J0D01*G01*
G75*G03X14200Y336250I-800J0D01*G01*
X135000Y338500D02*Y337750D01*
X136500Y336250D01*
X138000Y337750D01*
Y338500D02*Y337750D01*
X136500Y336250D02*Y332500D01*
X139800Y335500D02*X142050D01*
X139800Y332500D02*X142800D01*
X139800Y338500D02*Y332500D01*
Y338500D02*X142800D01*
X147600D02*X148350Y337750D01*
X145350Y338500D02*X147600D01*
X144600Y337750D02*X145350Y338500D01*
X144600Y337750D02*Y336250D01*
X145350Y335500D01*
X147600D01*
X148350Y334750D01*
Y333250D01*
X147600Y332500D02*X148350Y333250D01*
X145350Y332500D02*X147600D01*
X144600Y333250D02*X145350Y332500D01*
X98000Y337750D02*X98750Y338500D01*
X100250D01*
X101000Y337750D01*
Y333250D01*
X100250Y332500D02*X101000Y333250D01*
X98750Y332500D02*X100250D01*
X98000Y333250D02*X98750Y332500D01*
Y335500D02*X101000D01*
X45000Y333250D02*X45750Y332500D01*
X45000Y337750D02*Y333250D01*
Y337750D02*X45750Y338500D01*
X47250D01*
X48000Y337750D01*
Y333250D01*
X47250Y332500D02*X48000Y333250D01*
X45750Y332500D02*X47250D01*
X45000Y334000D02*X48000Y337000D01*
X49800Y332500D02*X50550D01*
X52350Y333250D02*X53100Y332500D01*
X52350Y337750D02*Y333250D01*
Y337750D02*X53100Y338500D01*
X54600D01*
X55350Y337750D01*
Y333250D01*
X54600Y332500D02*X55350Y333250D01*
X53100Y332500D02*X54600D01*
X52350Y334000D02*X55350Y337000D01*
X57150Y335500D02*X60150Y338500D01*
X57150Y335500D02*X60900D01*
X60150Y338500D02*Y332500D01*
X62700Y338500D02*X65700D01*
X62700D02*Y335500D01*
X63450Y336250D01*
X64950D01*
X65700Y335500D01*
Y333250D01*
X64950Y332500D02*X65700Y333250D01*
X63450Y332500D02*X64950D01*
X62700Y333250D02*X63450Y332500D01*
X98300Y206700D02*X100700Y204300D01*
X98300D02*X100700Y206700D01*
X98300Y196700D02*X100700Y194300D01*
X98300D02*X100700Y196700D01*
X98300Y186700D02*X100700Y184300D01*
X98300D02*X100700Y186700D01*
X98300Y176700D02*X100700Y174300D01*
X98300D02*X100700Y176700D01*
X98300Y166700D02*X100700Y164300D01*
X98300D02*X100700Y166700D01*
X98300Y156700D02*X100700Y154300D01*
X98300D02*X100700Y156700D01*
X98300Y146700D02*X100700Y144300D01*
X98300D02*X100700Y146700D01*
X98300Y136700D02*X100700Y134300D01*
X98300D02*X100700Y136700D01*
X98300Y126700D02*X100700Y124300D01*
X98300D02*X100700Y126700D01*
X98300Y116700D02*X100700Y114300D01*
X98300D02*X100700Y116700D01*
X98300Y106700D02*X100700Y104300D01*
X98300D02*X100700Y106700D01*
X98300Y96700D02*X100700Y94300D01*
X98300D02*X100700Y96700D01*
X98300Y86700D02*X100700Y84300D01*
X98300D02*X100700Y86700D01*
X98300Y76700D02*X100700Y74300D01*
X98300D02*X100700Y76700D01*
X98300Y66700D02*X100700Y64300D01*
X98300D02*X100700Y66700D01*
X188300Y206700D02*X190700Y204300D01*
X188300D02*X190700Y206700D01*
X188300Y196700D02*X190700Y194300D01*
X188300D02*X190700Y196700D01*
X188300Y186700D02*X190700Y184300D01*
X188300D02*X190700Y186700D01*
X188300Y176700D02*X190700Y174300D01*
X188300D02*X190700Y176700D01*
X188300Y166700D02*X190700Y164300D01*
X188300D02*X190700Y166700D01*
X188300Y156700D02*X190700Y154300D01*
X188300D02*X190700Y156700D01*
X188300Y146700D02*X190700Y144300D01*
X188300D02*X190700Y146700D01*
X188300Y136700D02*X190700Y134300D01*
X188300D02*X190700Y136700D01*
X188300Y126700D02*X190700Y124300D01*
X188300D02*X190700Y126700D01*
X188300Y116700D02*X190700Y114300D01*
X188300D02*X190700Y116700D01*
X188300Y106700D02*X190700Y104300D01*
X188300D02*X190700Y106700D01*
X188300Y96700D02*X190700Y94300D01*
X188300D02*X190700Y96700D01*
X188300Y86700D02*X190700Y84300D01*
X188300D02*X190700Y86700D01*
X188300Y76700D02*X190700Y74300D01*
X188300D02*X190700Y76700D01*
X188300Y66700D02*X190700Y64300D01*
X188300D02*X190700Y66700D01*
X13800Y352450D02*X16200Y350050D01*
X13800D02*X16200Y352450D01*
X135000Y353500D02*Y352750D01*
X136500Y351250D01*
X138000Y352750D01*
Y353500D02*Y352750D01*
X136500Y351250D02*Y347500D01*
X139800Y350500D02*X142050D01*
X139800Y347500D02*X142800D01*
X139800Y353500D02*Y347500D01*
Y353500D02*X142800D01*
X147600D02*X148350Y352750D01*
X145350Y353500D02*X147600D01*
X144600Y352750D02*X145350Y353500D01*
X144600Y352750D02*Y351250D01*
X145350Y350500D01*
X147600D01*
X148350Y349750D01*
Y348250D01*
X147600Y347500D02*X148350Y348250D01*
X145350Y347500D02*X147600D01*
X144600Y348250D02*X145350Y347500D01*
X98000Y352750D02*X98750Y353500D01*
X100250D01*
X101000Y352750D01*
Y348250D01*
X100250Y347500D02*X101000Y348250D01*
X98750Y347500D02*X100250D01*
X98000Y348250D02*X98750Y347500D01*
Y350500D02*X101000D01*
X102800Y348250D02*X103550Y347500D01*
X102800Y352750D02*Y348250D01*
Y352750D02*X103550Y353500D01*
X105050D01*
X105800Y352750D01*
Y348250D01*
X105050Y347500D02*X105800Y348250D01*
X103550Y347500D02*X105050D01*
X102800Y349000D02*X105800Y352000D01*
X45000Y348250D02*X45750Y347500D01*
X45000Y352750D02*Y348250D01*
Y352750D02*X45750Y353500D01*
X47250D01*
X48000Y352750D01*
Y348250D01*
X47250Y347500D02*X48000Y348250D01*
X45750Y347500D02*X47250D01*
X45000Y349000D02*X48000Y352000D01*
X49800Y347500D02*X50550D01*
X52350Y348250D02*X53100Y347500D01*
X52350Y352750D02*Y348250D01*
Y352750D02*X53100Y353500D01*
X54600D01*
X55350Y352750D01*
Y348250D01*
X54600Y347500D02*X55350Y348250D01*
X53100Y347500D02*X54600D01*
X52350Y349000D02*X55350Y352000D01*
X57150Y352750D02*X57900Y353500D01*
X59400D01*
X60150Y352750D01*
Y348250D01*
X59400Y347500D02*X60150Y348250D01*
X57900Y347500D02*X59400D01*
X57150Y348250D02*X57900Y347500D01*
Y350500D02*X60150D01*
X61950Y348250D02*X62700Y347500D01*
X61950Y349750D02*Y348250D01*
Y349750D02*X62700Y350500D01*
X64200D01*
X64950Y349750D01*
Y348250D01*
X64200Y347500D02*X64950Y348250D01*
X62700Y347500D02*X64200D01*
X61950Y351250D02*X62700Y350500D01*
X61950Y352750D02*Y351250D01*
Y352750D02*X62700Y353500D01*
X64200D01*
X64950Y352750D01*
Y351250D01*
X64200Y350500D02*X64950Y351250D01*
X76000Y132600D02*Y129400D01*
X74400Y131000D02*X77600D01*
X66000Y127600D02*Y124400D01*
X64400Y126000D02*X67600D01*
X76000Y122600D02*Y119400D01*
X74400Y121000D02*X77600D01*
X66000Y117600D02*Y114400D01*
X64400Y116000D02*X67600D01*
X76000Y112600D02*Y109400D01*
X74400Y111000D02*X77600D01*
X66000Y107600D02*Y104400D01*
X64400Y106000D02*X67600D01*
X76000Y75100D02*Y71900D01*
X74400Y73500D02*X77600D01*
X66000Y70100D02*Y66900D01*
X64400Y68500D02*X67600D01*
X76000Y65100D02*Y61900D01*
X74400Y63500D02*X77600D01*
X66000Y60100D02*Y56900D01*
X64400Y58500D02*X67600D01*
X76000Y55100D02*Y51900D01*
X74400Y53500D02*X77600D01*
X66000Y50100D02*Y46900D01*
X64400Y48500D02*X67600D01*
X15000Y367850D02*Y364650D01*
X13400Y366250D02*X16600D01*
X135000Y368500D02*Y367750D01*
X136500Y366250D01*
X138000Y367750D01*
Y368500D02*Y367750D01*
X136500Y366250D02*Y362500D01*
X139800Y365500D02*X142050D01*
X139800Y362500D02*X142800D01*
X139800Y368500D02*Y362500D01*
Y368500D02*X142800D01*
X147600D02*X148350Y367750D01*
X145350Y368500D02*X147600D01*
X144600Y367750D02*X145350Y368500D01*
X144600Y367750D02*Y366250D01*
X145350Y365500D01*
X147600D01*
X148350Y364750D01*
Y363250D01*
X147600Y362500D02*X148350Y363250D01*
X145350Y362500D02*X147600D01*
X144600Y363250D02*X145350Y362500D01*
X98750D02*X100250D01*
X99500Y368500D02*Y362500D01*
X98000Y367000D02*X99500Y368500D01*
X102050Y367750D02*X102800Y368500D01*
X105050D01*
X105800Y367750D01*
Y366250D01*
X102050Y362500D02*X105800Y366250D01*
X102050Y362500D02*X105800D01*
X45000Y363250D02*X45750Y362500D01*
X45000Y367750D02*Y363250D01*
Y367750D02*X45750Y368500D01*
X47250D01*
X48000Y367750D01*
Y363250D01*
X47250Y362500D02*X48000Y363250D01*
X45750Y362500D02*X47250D01*
X45000Y364000D02*X48000Y367000D01*
X49800Y362500D02*X50550D01*
X52350Y363250D02*X53100Y362500D01*
X52350Y367750D02*Y363250D01*
Y367750D02*X53100Y368500D01*
X54600D01*
X55350Y367750D01*
Y363250D01*
X54600Y362500D02*X55350Y363250D01*
X53100Y362500D02*X54600D01*
X52350Y364000D02*X55350Y367000D01*
X57150Y367750D02*X57900Y368500D01*
X59400D01*
X60150Y367750D01*
Y363250D01*
X59400Y362500D02*X60150Y363250D01*
X57900Y362500D02*X59400D01*
X57150Y363250D02*X57900Y362500D01*
Y365500D02*X60150D01*
X61950Y363250D02*X62700Y362500D01*
X61950Y367750D02*Y363250D01*
Y367750D02*X62700Y368500D01*
X64200D01*
X64950Y367750D01*
Y363250D01*
X64200Y362500D02*X64950Y363250D01*
X62700Y362500D02*X64200D01*
X61950Y364000D02*X64950Y367000D01*
X168000Y165500D02*Y163900D01*
Y165500D02*X169387Y166300D01*
X168000Y165500D02*X166613Y166300D01*
X145500Y144000D02*Y142400D01*
Y144000D02*X146887Y144800D01*
X145500Y144000D02*X144113Y144800D01*
X145500Y137000D02*Y135400D01*
Y137000D02*X146887Y137800D01*
X145500Y137000D02*X144113Y137800D01*
X139000Y124500D02*Y122900D01*
Y124500D02*X140387Y125300D01*
X139000Y124500D02*X137613Y125300D01*
X155500Y125000D02*Y123400D01*
Y125000D02*X156887Y125800D01*
X155500Y125000D02*X154113Y125800D01*
X143000Y131500D02*Y129900D01*
Y131500D02*X144387Y132300D01*
X143000Y131500D02*X141613Y132300D01*
X156500Y144500D02*Y142900D01*
Y144500D02*X157887Y145300D01*
X156500Y144500D02*X155113Y145300D01*
X175000Y125000D02*Y123400D01*
Y125000D02*X176387Y125800D01*
X175000Y125000D02*X173613Y125800D01*
X170000Y125000D02*Y123400D01*
Y125000D02*X171387Y125800D01*
X170000Y125000D02*X168613Y125800D01*
X131500Y158500D02*Y156900D01*
Y158500D02*X132887Y159300D01*
X131500Y158500D02*X130113Y159300D01*
X126000Y158500D02*Y156900D01*
Y158500D02*X127387Y159300D01*
X126000Y158500D02*X124613Y159300D01*
X158000Y158500D02*Y156900D01*
Y158500D02*X159387Y159300D01*
X158000Y158500D02*X156613Y159300D01*
X150161Y158339D02*Y156739D01*
Y158339D02*X151548Y159139D01*
X150161Y158339D02*X148774Y159139D01*
X113500Y126500D02*Y124900D01*
Y126500D02*X114887Y127300D01*
X113500Y126500D02*X112113Y127300D01*
X113500Y121000D02*Y119400D01*
Y121000D02*X114887Y121800D01*
X113500Y121000D02*X112113Y121800D01*
X128500Y117500D02*Y115900D01*
Y117500D02*X129887Y118300D01*
X128500Y117500D02*X127113Y118300D01*
X114000Y110500D02*Y108900D01*
Y110500D02*X115387Y111300D01*
X114000Y110500D02*X112613Y111300D01*
X133000Y108500D02*Y106900D01*
Y108500D02*X134387Y109300D01*
X133000Y108500D02*X131613Y109300D01*
X29500Y65000D02*Y63400D01*
Y65000D02*X30887Y65800D01*
X29500Y65000D02*X28113Y65800D01*
X34500Y65000D02*Y63400D01*
Y65000D02*X35887Y65800D01*
X34500Y65000D02*X33113Y65800D01*
X39500Y65000D02*Y63400D01*
Y65000D02*X40887Y65800D01*
X39500Y65000D02*X38113Y65800D01*
X44500Y65000D02*Y63400D01*
Y65000D02*X45887Y65800D01*
X44500Y65000D02*X43113Y65800D01*
X22500Y110000D02*Y108400D01*
Y110000D02*X23887Y110800D01*
X22500Y110000D02*X21113Y110800D01*
X27500Y110000D02*Y108400D01*
Y110000D02*X28887Y110800D01*
X27500Y110000D02*X26113Y110800D01*
X32500Y110000D02*Y108400D01*
Y110000D02*X33887Y110800D01*
X32500Y110000D02*X31113Y110800D01*
X37500Y110000D02*Y108400D01*
Y110000D02*X38887Y110800D01*
X37500Y110000D02*X36113Y110800D01*
X54500Y96500D02*Y94900D01*
Y96500D02*X55887Y97300D01*
X54500Y96500D02*X53113Y97300D01*
X59500Y96500D02*Y94900D01*
Y96500D02*X60887Y97300D01*
X59500Y96500D02*X58113Y97300D01*
X54500Y83500D02*Y81900D01*
Y83500D02*X55887Y84300D01*
X54500Y83500D02*X53113Y84300D01*
X59500Y83500D02*Y81900D01*
Y83500D02*X60887Y84300D01*
X59500Y83500D02*X58113Y84300D01*
X168500Y170500D02*Y168900D01*
Y170500D02*X169887Y171300D01*
X168500Y170500D02*X167113Y171300D01*
X113500Y174000D02*Y172400D01*
Y174000D02*X114887Y174800D01*
X113500Y174000D02*X112113Y174800D01*
X91000Y180500D02*Y178900D01*
Y180500D02*X92387Y181300D01*
X91000Y180500D02*X89613Y181300D01*
X173500Y165500D02*Y163900D01*
Y165500D02*X174887Y166300D01*
X173500Y165500D02*X172113Y166300D01*
X67500Y215500D02*Y213900D01*
Y215500D02*X68887Y216300D01*
X67500Y215500D02*X66113Y216300D01*
X62000Y215500D02*Y213900D01*
Y215500D02*X63387Y216300D01*
X62000Y215500D02*X60613Y216300D01*
X86500Y215500D02*Y213900D01*
Y215500D02*X87887Y216300D01*
X86500Y215500D02*X85113Y216300D01*
X81000Y215500D02*Y213900D01*
Y215500D02*X82387Y216300D01*
X81000Y215500D02*X79613Y216300D01*
X15000Y381250D02*Y379650D01*
Y381250D02*X16387Y382050D01*
X15000Y381250D02*X13613Y382050D01*
X135000Y383500D02*Y382750D01*
X136500Y381250D01*
X138000Y382750D01*
Y383500D02*Y382750D01*
X136500Y381250D02*Y377500D01*
X139800Y380500D02*X142050D01*
X139800Y377500D02*X142800D01*
X139800Y383500D02*Y377500D01*
Y383500D02*X142800D01*
X147600D02*X148350Y382750D01*
X145350Y383500D02*X147600D01*
X144600Y382750D02*X145350Y383500D01*
X144600Y382750D02*Y381250D01*
X145350Y380500D01*
X147600D01*
X148350Y379750D01*
Y378250D01*
X147600Y377500D02*X148350Y378250D01*
X145350Y377500D02*X147600D01*
X144600Y378250D02*X145350Y377500D01*
X98000Y382750D02*X98750Y383500D01*
X100250D01*
X101000Y382750D01*
Y378250D01*
X100250Y377500D02*X101000Y378250D01*
X98750Y377500D02*X100250D01*
X98000Y378250D02*X98750Y377500D01*
Y380500D02*X101000D01*
X102800Y378250D02*X103550Y377500D01*
X102800Y379750D02*Y378250D01*
Y379750D02*X103550Y380500D01*
X105050D01*
X105800Y379750D01*
Y378250D01*
X105050Y377500D02*X105800Y378250D01*
X103550Y377500D02*X105050D01*
X102800Y381250D02*X103550Y380500D01*
X102800Y382750D02*Y381250D01*
Y382750D02*X103550Y383500D01*
X105050D01*
X105800Y382750D01*
Y381250D01*
X105050Y380500D02*X105800Y381250D01*
X45000Y378250D02*X45750Y377500D01*
X45000Y382750D02*Y378250D01*
Y382750D02*X45750Y383500D01*
X47250D01*
X48000Y382750D01*
Y378250D01*
X47250Y377500D02*X48000Y378250D01*
X45750Y377500D02*X47250D01*
X45000Y379000D02*X48000Y382000D01*
X49800Y377500D02*X50550D01*
X52350Y378250D02*X53100Y377500D01*
X52350Y382750D02*Y378250D01*
Y382750D02*X53100Y383500D01*
X54600D01*
X55350Y382750D01*
Y378250D01*
X54600Y377500D02*X55350Y378250D01*
X53100Y377500D02*X54600D01*
X52350Y379000D02*X55350Y382000D01*
X57150Y382750D02*X57900Y383500D01*
X60150D01*
X60900Y382750D01*
Y381250D01*
X57150Y377500D02*X60900Y381250D01*
X57150Y377500D02*X60900D01*
X62700Y378250D02*X63450Y377500D01*
X62700Y382750D02*Y378250D01*
Y382750D02*X63450Y383500D01*
X64950D01*
X65700Y382750D01*
Y378250D01*
X64950Y377500D02*X65700Y378250D01*
X63450Y377500D02*X64950D01*
X62700Y379000D02*X65700Y382000D01*
X3000Y398500D02*X3750Y397750D01*
X750Y398500D02*X3000D01*
X0Y397750D02*X750Y398500D01*
X0Y397750D02*Y396250D01*
X750Y395500D01*
X3000D01*
X3750Y394750D01*
Y393250D01*
X3000Y392500D02*X3750Y393250D01*
X750Y392500D02*X3000D01*
X0Y393250D02*X750Y392500D01*
X5550Y395500D02*Y393250D01*
X6300Y392500D01*
X8550Y395500D02*Y391000D01*
X7800Y390250D02*X8550Y391000D01*
X6300Y390250D02*X7800D01*
X5550Y391000D02*X6300Y390250D01*
Y392500D02*X7800D01*
X8550Y393250D01*
X11100Y394750D02*Y392500D01*
Y394750D02*X11850Y395500D01*
X12600D01*
X13350Y394750D01*
Y392500D01*
Y394750D02*X14100Y395500D01*
X14850D01*
X15600Y394750D01*
Y392500D01*
X10350Y395500D02*X11100Y394750D01*
X17400Y398500D02*Y392500D01*
Y393250D02*X18150Y392500D01*
X19650D01*
X20400Y393250D01*
Y394750D02*Y393250D01*
X19650Y395500D02*X20400Y394750D01*
X18150Y395500D02*X19650D01*
X17400Y394750D02*X18150Y395500D01*
X22200Y394750D02*Y393250D01*
Y394750D02*X22950Y395500D01*
X24450D01*
X25200Y394750D01*
Y393250D01*
X24450Y392500D02*X25200Y393250D01*
X22950Y392500D02*X24450D01*
X22200Y393250D02*X22950Y392500D01*
X27000Y398500D02*Y393250D01*
X27750Y392500D01*
X0Y389250D02*X29250D01*
X41750Y398500D02*Y392500D01*
X44000Y398500D02*X44750Y397750D01*
Y393250D01*
X44000Y392500D02*X44750Y393250D01*
X41000Y392500D02*X44000D01*
X41000Y398500D02*X44000D01*
X46550Y397000D02*Y396250D01*
Y394750D02*Y392500D01*
X50300Y395500D02*X51050Y394750D01*
X48800Y395500D02*X50300D01*
X48050Y394750D02*X48800Y395500D01*
X48050Y394750D02*Y393250D01*
X48800Y392500D01*
X51050Y395500D02*Y393250D01*
X51800Y392500D01*
X48800D02*X50300D01*
X51050Y393250D01*
X54350Y394750D02*Y392500D01*
Y394750D02*X55100Y395500D01*
X55850D01*
X56600Y394750D01*
Y392500D01*
Y394750D02*X57350Y395500D01*
X58100D01*
X58850Y394750D01*
Y392500D01*
X53600Y395500D02*X54350Y394750D01*
X60650Y392500D02*X61400D01*
X65900Y393250D02*X66650Y392500D01*
X65900Y397750D02*X66650Y398500D01*
X65900Y397750D02*Y393250D01*
X68450Y398500D02*X69950D01*
X69200D02*Y392500D01*
X68450D02*X69950D01*
X72500Y394750D02*Y392500D01*
Y394750D02*X73250Y395500D01*
X74000D01*
X74750Y394750D01*
Y392500D01*
X71750Y395500D02*X72500Y394750D01*
X77300Y395500D02*X79550D01*
X76550Y394750D02*X77300Y395500D01*
X76550Y394750D02*Y393250D01*
X77300Y392500D01*
X79550D01*
X81350Y398500D02*Y392500D01*
Y394750D02*X82100Y395500D01*
X83600D01*
X84350Y394750D01*
Y392500D01*
X86150Y398500D02*X86900Y397750D01*
Y393250D01*
X86150Y392500D02*X86900Y393250D01*
X41000Y389250D02*X88700D01*
X95750Y392500D02*X98000D01*
X95000Y393250D02*X95750Y392500D01*
X95000Y397750D02*Y393250D01*
Y397750D02*X95750Y398500D01*
X98000D01*
X99800Y394750D02*Y393250D01*
Y394750D02*X100550Y395500D01*
X102050D01*
X102800Y394750D01*
Y393250D01*
X102050Y392500D02*X102800Y393250D01*
X100550Y392500D02*X102050D01*
X99800Y393250D02*X100550Y392500D01*
X104600Y395500D02*Y393250D01*
X105350Y392500D01*
X106850D01*
X107600Y393250D01*
Y395500D02*Y393250D01*
X110150Y394750D02*Y392500D01*
Y394750D02*X110900Y395500D01*
X111650D01*
X112400Y394750D01*
Y392500D01*
X109400Y395500D02*X110150Y394750D01*
X114950Y398500D02*Y393250D01*
X115700Y392500D01*
X114200Y396250D02*X115700D01*
X95000Y389250D02*X117200D01*
X130750Y398500D02*Y392500D01*
X130000Y398500D02*X133000D01*
X133750Y397750D01*
Y396250D01*
X133000Y395500D02*X133750Y396250D01*
X130750Y395500D02*X133000D01*
X135550Y398500D02*Y393250D01*
X136300Y392500D01*
X140050Y395500D02*X140800Y394750D01*
X138550Y395500D02*X140050D01*
X137800Y394750D02*X138550Y395500D01*
X137800Y394750D02*Y393250D01*
X138550Y392500D01*
X140800Y395500D02*Y393250D01*
X141550Y392500D01*
X138550D02*X140050D01*
X140800Y393250D01*
X144100Y398500D02*Y393250D01*
X144850Y392500D01*
X143350Y396250D02*X144850D01*
X147100Y392500D02*X149350D01*
X146350Y393250D02*X147100Y392500D01*
X146350Y394750D02*Y393250D01*
Y394750D02*X147100Y395500D01*
X148600D01*
X149350Y394750D01*
X146350Y394000D02*X149350D01*
Y394750D02*Y394000D01*
X154150Y398500D02*Y392500D01*
X153400D02*X154150Y393250D01*
X151900Y392500D02*X153400D01*
X151150Y393250D02*X151900Y392500D01*
X151150Y394750D02*Y393250D01*
Y394750D02*X151900Y395500D01*
X153400D01*
X154150Y394750D01*
X157450Y395500D02*Y394750D01*
Y393250D02*Y392500D01*
X155950Y397750D02*Y397000D01*
Y397750D02*X156700Y398500D01*
X158200D01*
X158950Y397750D01*
Y397000D01*
X157450Y395500D02*X158950Y397000D01*
X130000Y389250D02*X160750D01*
X0Y413500D02*X3000D01*
X1500D02*Y407500D01*
X4800Y413500D02*Y407500D01*
Y409750D02*X5550Y410500D01*
X7050D01*
X7800Y409750D01*
Y407500D01*
X10350D02*X12600D01*
X9600Y408250D02*X10350Y407500D01*
X9600Y409750D02*Y408250D01*
Y409750D02*X10350Y410500D01*
X11850D01*
X12600Y409750D01*
X9600Y409000D02*X12600D01*
Y409750D02*Y409000D01*
X15150Y409750D02*Y407500D01*
Y409750D02*X15900Y410500D01*
X17400D01*
X14400D02*X15150Y409750D01*
X19950Y407500D02*X22200D01*
X19200Y408250D02*X19950Y407500D01*
X19200Y409750D02*Y408250D01*
Y409750D02*X19950Y410500D01*
X21450D01*
X22200Y409750D01*
X19200Y409000D02*X22200D01*
Y409750D02*Y409000D01*
X28950Y410500D02*X29700Y409750D01*
X27450Y410500D02*X28950D01*
X26700Y409750D02*X27450Y410500D01*
X26700Y409750D02*Y408250D01*
X27450Y407500D01*
X29700Y410500D02*Y408250D01*
X30450Y407500D01*
X27450D02*X28950D01*
X29700Y408250D01*
X33000Y409750D02*Y407500D01*
Y409750D02*X33750Y410500D01*
X35250D01*
X32250D02*X33000Y409750D01*
X37800Y407500D02*X40050D01*
X37050Y408250D02*X37800Y407500D01*
X37050Y409750D02*Y408250D01*
Y409750D02*X37800Y410500D01*
X39300D01*
X40050Y409750D01*
X37050Y409000D02*X40050D01*
Y409750D02*Y409000D01*
X44550Y407500D02*X48300Y411250D01*
Y413500D02*Y411250D01*
X44550Y413500D02*X48300D01*
X55800D02*Y407500D01*
X55050D02*X55800Y408250D01*
X53550Y407500D02*X55050D01*
X52800Y408250D02*X53550Y407500D01*
X52800Y409750D02*Y408250D01*
Y409750D02*X53550Y410500D01*
X55050D01*
X55800Y409750D01*
X57600Y412000D02*Y411250D01*
Y409750D02*Y407500D01*
X59850Y412750D02*Y407500D01*
Y412750D02*X60600Y413500D01*
X61350D01*
X59100Y410500D02*X60600D01*
X63600Y412750D02*Y407500D01*
Y412750D02*X64350Y413500D01*
X65100D01*
X62850Y410500D02*X64350D01*
X67350Y407500D02*X69600D01*
X66600Y408250D02*X67350Y407500D01*
X66600Y409750D02*Y408250D01*
Y409750D02*X67350Y410500D01*
X68850D01*
X69600Y409750D01*
X66600Y409000D02*X69600D01*
Y409750D02*Y409000D01*
X72150Y409750D02*Y407500D01*
Y409750D02*X72900Y410500D01*
X74400D01*
X71400D02*X72150Y409750D01*
X76950Y407500D02*X79200D01*
X76200Y408250D02*X76950Y407500D01*
X76200Y409750D02*Y408250D01*
Y409750D02*X76950Y410500D01*
X78450D01*
X79200Y409750D01*
X76200Y409000D02*X79200D01*
Y409750D02*Y409000D01*
X81750Y409750D02*Y407500D01*
Y409750D02*X82500Y410500D01*
X83250D01*
X84000Y409750D01*
Y407500D01*
X81000Y410500D02*X81750Y409750D01*
X86550Y413500D02*Y408250D01*
X87300Y407500D01*
X85800Y411250D02*X87300D01*
X94500Y413500D02*Y407500D01*
X93750D02*X94500Y408250D01*
X92250Y407500D02*X93750D01*
X91500Y408250D02*X92250Y407500D01*
X91500Y409750D02*Y408250D01*
Y409750D02*X92250Y410500D01*
X93750D01*
X94500Y409750D01*
X97050D02*Y407500D01*
Y409750D02*X97800Y410500D01*
X99300D01*
X96300D02*X97050Y409750D01*
X101100Y412000D02*Y411250D01*
Y409750D02*Y407500D01*
X102600Y413500D02*Y408250D01*
X103350Y407500D01*
X104850Y413500D02*Y408250D01*
X105600Y407500D01*
X110550D02*X112800D01*
X113550Y408250D01*
X112800Y409000D02*X113550Y408250D01*
X110550Y409000D02*X112800D01*
X109800Y409750D02*X110550Y409000D01*
X109800Y409750D02*X110550Y410500D01*
X112800D01*
X113550Y409750D01*
X109800Y408250D02*X110550Y407500D01*
X115350Y412000D02*Y411250D01*
Y409750D02*Y407500D01*
X116850Y410500D02*X119850D01*
X116850Y407500D02*X119850Y410500D01*
X116850Y407500D02*X119850D01*
X122400D02*X124650D01*
X121650Y408250D02*X122400Y407500D01*
X121650Y409750D02*Y408250D01*
Y409750D02*X122400Y410500D01*
X123900D01*
X124650Y409750D01*
X121650Y409000D02*X124650D01*
Y409750D02*Y409000D01*
X127200Y407500D02*X129450D01*
X130200Y408250D01*
X129450Y409000D02*X130200Y408250D01*
X127200Y409000D02*X129450D01*
X126450Y409750D02*X127200Y409000D01*
X126450Y409750D02*X127200Y410500D01*
X129450D01*
X130200Y409750D01*
X126450Y408250D02*X127200Y407500D01*
X134700Y410500D02*Y408250D01*
X135450Y407500D01*
X136950D01*
X137700Y408250D01*
Y410500D02*Y408250D01*
X140250Y407500D02*X142500D01*
X143250Y408250D01*
X142500Y409000D02*X143250Y408250D01*
X140250Y409000D02*X142500D01*
X139500Y409750D02*X140250Y409000D01*
X139500Y409750D02*X140250Y410500D01*
X142500D01*
X143250Y409750D01*
X139500Y408250D02*X140250Y407500D01*
X145800D02*X148050D01*
X145050Y408250D02*X145800Y407500D01*
X145050Y409750D02*Y408250D01*
Y409750D02*X145800Y410500D01*
X147300D01*
X148050Y409750D01*
X145050Y409000D02*X148050D01*
Y409750D02*Y409000D01*
X152850Y413500D02*Y407500D01*
X152100D02*X152850Y408250D01*
X150600Y407500D02*X152100D01*
X149850Y408250D02*X150600Y407500D01*
X149850Y409750D02*Y408250D01*
Y409750D02*X150600Y410500D01*
X152100D01*
X152850Y409750D01*
X157350Y412000D02*Y411250D01*
Y409750D02*Y407500D01*
X159600Y409750D02*Y407500D01*
Y409750D02*X160350Y410500D01*
X161100D01*
X161850Y409750D01*
Y407500D01*
X158850Y410500D02*X159600Y409750D01*
X167100Y413500D02*Y408250D01*
X167850Y407500D01*
X166350Y411250D02*X167850D01*
X169350Y413500D02*Y407500D01*
Y409750D02*X170100Y410500D01*
X171600D01*
X172350Y409750D01*
Y407500D01*
X174150Y412000D02*Y411250D01*
Y409750D02*Y407500D01*
X176400D02*X178650D01*
X179400Y408250D01*
X178650Y409000D02*X179400Y408250D01*
X176400Y409000D02*X178650D01*
X175650Y409750D02*X176400Y409000D01*
X175650Y409750D02*X176400Y410500D01*
X178650D01*
X179400Y409750D01*
X175650Y408250D02*X176400Y407500D01*
X183900Y413500D02*Y408250D01*
X184650Y407500D01*
X188400Y410500D02*X189150Y409750D01*
X186900Y410500D02*X188400D01*
X186150Y409750D02*X186900Y410500D01*
X186150Y409750D02*Y408250D01*
X186900Y407500D01*
X189150Y410500D02*Y408250D01*
X189900Y407500D01*
X186900D02*X188400D01*
X189150Y408250D01*
X191700Y410500D02*Y408250D01*
X192450Y407500D01*
X194700Y410500D02*Y406000D01*
X193950Y405250D02*X194700Y406000D01*
X192450Y405250D02*X193950D01*
X191700Y406000D02*X192450Y405250D01*
Y407500D02*X193950D01*
X194700Y408250D01*
X196500Y409750D02*Y408250D01*
Y409750D02*X197250Y410500D01*
X198750D01*
X199500Y409750D01*
Y408250D01*
X198750Y407500D02*X199500Y408250D01*
X197250Y407500D02*X198750D01*
X196500Y408250D02*X197250Y407500D01*
X201300Y410500D02*Y408250D01*
X202050Y407500D01*
X203550D01*
X204300Y408250D01*
Y410500D02*Y408250D01*
X206850Y413500D02*Y408250D01*
X207600Y407500D01*
X206100Y411250D02*X207600D01*
X209100Y406000D02*X210600Y407500D01*
X215850D02*X217350D01*
X216600Y413500D02*Y407500D01*
X215100Y412000D02*X216600Y413500D01*
X219150Y408250D02*X219900Y407500D01*
X219150Y412750D02*Y408250D01*
Y412750D02*X219900Y413500D01*
X221400D01*
X222150Y412750D01*
Y408250D01*
X221400Y407500D02*X222150Y408250D01*
X219900Y407500D02*X221400D01*
X219150Y409000D02*X222150Y412000D01*
X224700Y407500D02*X226200D01*
X225450Y413500D02*Y407500D01*
X223950Y412000D02*X225450Y413500D01*
X230700D02*Y407500D01*
Y409750D02*X231450Y410500D01*
X232950D01*
X233700Y409750D01*
Y407500D01*
X235500Y409750D02*Y408250D01*
Y409750D02*X236250Y410500D01*
X237750D01*
X238500Y409750D01*
Y408250D01*
X237750Y407500D02*X238500Y408250D01*
X236250Y407500D02*X237750D01*
X235500Y408250D02*X236250Y407500D01*
X240300Y413500D02*Y408250D01*
X241050Y407500D01*
X243300D02*X245550D01*
X242550Y408250D02*X243300Y407500D01*
X242550Y409750D02*Y408250D01*
Y409750D02*X243300Y410500D01*
X244800D01*
X245550Y409750D01*
X242550Y409000D02*X245550D01*
Y409750D02*Y409000D01*
X248100Y407500D02*X250350D01*
X251100Y408250D01*
X250350Y409000D02*X251100Y408250D01*
X248100Y409000D02*X250350D01*
X247350Y409750D02*X248100Y409000D01*
X247350Y409750D02*X248100Y410500D01*
X250350D01*
X251100Y409750D01*
X247350Y408250D02*X248100Y407500D01*
X256350Y413500D02*Y408250D01*
X257100Y407500D01*
X255600Y411250D02*X257100D01*
X258600Y409750D02*Y408250D01*
Y409750D02*X259350Y410500D01*
X260850D01*
X261600Y409750D01*
Y408250D01*
X260850Y407500D02*X261600Y408250D01*
X259350Y407500D02*X260850D01*
X258600Y408250D02*X259350Y407500D01*
X264150Y413500D02*Y408250D01*
X264900Y407500D01*
X263400Y411250D02*X264900D01*
X268650Y410500D02*X269400Y409750D01*
X267150Y410500D02*X268650D01*
X266400Y409750D02*X267150Y410500D01*
X266400Y409750D02*Y408250D01*
X267150Y407500D01*
X269400Y410500D02*Y408250D01*
X270150Y407500D01*
X267150D02*X268650D01*
X269400Y408250D01*
X271950Y413500D02*Y408250D01*
X272700Y407500D01*
G54D93*X0Y280000D02*X200000D01*
Y0D01*
X0D01*
Y280000D01*
G54D92*X13675Y-9500D02*X16675D01*
X17425Y-8750D01*
Y-7250D02*Y-8750D01*
X16675Y-6500D02*X17425Y-7250D01*
X14425Y-6500D02*X16675D01*
X14425Y-3500D02*Y-9500D01*
X13675Y-3500D02*X16675D01*
X17425Y-4250D01*
Y-5750D01*
X16675Y-6500D02*X17425Y-5750D01*
X19225Y-7250D02*Y-8750D01*
Y-7250D02*X19975Y-6500D01*
X21475D01*
X22225Y-7250D01*
Y-8750D01*
X21475Y-9500D02*X22225Y-8750D01*
X19975Y-9500D02*X21475D01*
X19225Y-8750D02*X19975Y-9500D01*
X26275Y-6500D02*X27025Y-7250D01*
X24775Y-6500D02*X26275D01*
X24025Y-7250D02*X24775Y-6500D01*
X24025Y-7250D02*Y-8750D01*
X24775Y-9500D01*
X27025Y-6500D02*Y-8750D01*
X27775Y-9500D01*
X24775D02*X26275D01*
X27025Y-8750D01*
X30325Y-7250D02*Y-9500D01*
Y-7250D02*X31075Y-6500D01*
X32575D01*
X29575D02*X30325Y-7250D01*
X37375Y-3500D02*Y-9500D01*
X36625D02*X37375Y-8750D01*
X35125Y-9500D02*X36625D01*
X34375Y-8750D02*X35125Y-9500D01*
X34375Y-7250D02*Y-8750D01*
Y-7250D02*X35125Y-6500D01*
X36625D01*
X37375Y-7250D01*
X41875D02*Y-8750D01*
Y-7250D02*X42625Y-6500D01*
X44125D01*
X44875Y-7250D01*
Y-8750D01*
X44125Y-9500D02*X44875Y-8750D01*
X42625Y-9500D02*X44125D01*
X41875Y-8750D02*X42625Y-9500D01*
X46675Y-6500D02*Y-8750D01*
X47425Y-9500D01*
X48925D01*
X49675Y-8750D01*
Y-6500D02*Y-8750D01*
X52225Y-3500D02*Y-8750D01*
X52975Y-9500D01*
X51475Y-5750D02*X52975D01*
X54475Y-3500D02*Y-8750D01*
X55225Y-9500D01*
X56725Y-5000D02*Y-5750D01*
Y-7250D02*Y-9500D01*
X58975Y-7250D02*Y-9500D01*
Y-7250D02*X59725Y-6500D01*
X60475D01*
X61225Y-7250D01*
Y-9500D01*
X58225Y-6500D02*X58975Y-7250D01*
X63775Y-9500D02*X66025D01*
X63025Y-8750D02*X63775Y-9500D01*
X63025Y-7250D02*Y-8750D01*
Y-7250D02*X63775Y-6500D01*
X65275D01*
X66025Y-7250D01*
X63025Y-8000D02*X66025D01*
Y-7250D02*Y-8000D01*
X70525Y-5000D02*Y-5750D01*
Y-7250D02*Y-9500D01*
X72775D02*X75025D01*
X75775Y-8750D01*
X75025Y-8000D02*X75775Y-8750D01*
X72775Y-8000D02*X75025D01*
X72025Y-7250D02*X72775Y-8000D01*
X72025Y-7250D02*X72775Y-6500D01*
X75025D01*
X75775Y-7250D01*
X72025Y-8750D02*X72775Y-9500D01*
X81025Y-3500D02*Y-8750D01*
X81775Y-9500D01*
X80275Y-5750D02*X81775D01*
X83275Y-3500D02*Y-9500D01*
Y-7250D02*X84025Y-6500D01*
X85525D01*
X86275Y-7250D01*
Y-9500D01*
X88825D02*X91075D01*
X88075Y-8750D02*X88825Y-9500D01*
X88075Y-7250D02*Y-8750D01*
Y-7250D02*X88825Y-6500D01*
X90325D01*
X91075Y-7250D01*
X88075Y-8000D02*X91075D01*
Y-7250D02*Y-8000D01*
X96325Y-6500D02*X98575D01*
X95575Y-7250D02*X96325Y-6500D01*
X95575Y-7250D02*Y-8750D01*
X96325Y-9500D01*
X98575D01*
X101125D02*X103375D01*
X100375Y-8750D02*X101125Y-9500D01*
X100375Y-7250D02*Y-8750D01*
Y-7250D02*X101125Y-6500D01*
X102625D01*
X103375Y-7250D01*
X100375Y-8000D02*X103375D01*
Y-7250D02*Y-8000D01*
X105925Y-7250D02*Y-9500D01*
Y-7250D02*X106675Y-6500D01*
X107425D01*
X108175Y-7250D01*
Y-9500D01*
X105175Y-6500D02*X105925Y-7250D01*
X110725Y-3500D02*Y-8750D01*
X111475Y-9500D01*
X109975Y-5750D02*X111475D01*
X113725Y-9500D02*X115975D01*
X112975Y-8750D02*X113725Y-9500D01*
X112975Y-7250D02*Y-8750D01*
Y-7250D02*X113725Y-6500D01*
X115225D01*
X115975Y-7250D01*
X112975Y-8000D02*X115975D01*
Y-7250D02*Y-8000D01*
X118525Y-7250D02*Y-9500D01*
Y-7250D02*X119275Y-6500D01*
X120775D01*
X117775D02*X118525Y-7250D01*
X122575Y-3500D02*Y-8750D01*
X123325Y-9500D01*
X124825Y-5000D02*Y-5750D01*
Y-7250D02*Y-9500D01*
X127075Y-7250D02*Y-9500D01*
Y-7250D02*X127825Y-6500D01*
X128575D01*
X129325Y-7250D01*
Y-9500D01*
X126325Y-6500D02*X127075Y-7250D01*
X131875Y-9500D02*X134125D01*
X131125Y-8750D02*X131875Y-9500D01*
X131125Y-7250D02*Y-8750D01*
Y-7250D02*X131875Y-6500D01*
X133375D01*
X134125Y-7250D01*
X131125Y-8000D02*X134125D01*
Y-7250D02*Y-8000D01*
X138625Y-7250D02*Y-8750D01*
Y-7250D02*X139375Y-6500D01*
X140875D01*
X141625Y-7250D01*
Y-8750D01*
X140875Y-9500D02*X141625Y-8750D01*
X139375Y-9500D02*X140875D01*
X138625Y-8750D02*X139375Y-9500D01*
X144175Y-4250D02*Y-9500D01*
Y-4250D02*X144925Y-3500D01*
X145675D01*
X143425Y-6500D02*X144925D01*
X150625Y-3500D02*Y-8750D01*
X151375Y-9500D01*
X149875Y-5750D02*X151375D01*
X152875Y-3500D02*Y-9500D01*
Y-7250D02*X153625Y-6500D01*
X155125D01*
X155875Y-7250D01*
Y-9500D01*
X157675Y-5000D02*Y-5750D01*
Y-7250D02*Y-9500D01*
X159925D02*X162175D01*
X162925Y-8750D01*
X162175Y-8000D02*X162925Y-8750D01*
X159925Y-8000D02*X162175D01*
X159175Y-7250D02*X159925Y-8000D01*
X159175Y-7250D02*X159925Y-6500D01*
X162175D01*
X162925Y-7250D01*
X159175Y-8750D02*X159925Y-9500D01*
X168175Y-7250D02*Y-11750D01*
X167425Y-6500D02*X168175Y-7250D01*
X168925Y-6500D01*
X170425D01*
X171175Y-7250D01*
Y-8750D01*
X170425Y-9500D02*X171175Y-8750D01*
X168925Y-9500D02*X170425D01*
X168175Y-8750D02*X168925Y-9500D01*
X175225Y-6500D02*X175975Y-7250D01*
X173725Y-6500D02*X175225D01*
X172975Y-7250D02*X173725Y-6500D01*
X172975Y-7250D02*Y-8750D01*
X173725Y-9500D01*
X175975Y-6500D02*Y-8750D01*
X176725Y-9500D01*
X173725D02*X175225D01*
X175975Y-8750D01*
X179275Y-3500D02*Y-8750D01*
X180025Y-9500D01*
X178525Y-5750D02*X180025D01*
X181525Y-3500D02*Y-9500D01*
Y-7250D02*X182275Y-6500D01*
X183775D01*
X184525Y-7250D01*
Y-9500D01*
X200750Y308500D02*Y302500D01*
X203000Y308500D02*X203750Y307750D01*
Y303250D01*
X203000Y302500D02*X203750Y303250D01*
X200000Y302500D02*X203000D01*
X200000Y308500D02*X203000D01*
X207800Y305500D02*X208550Y304750D01*
X206300Y305500D02*X207800D01*
X205550Y304750D02*X206300Y305500D01*
X205550Y304750D02*Y303250D01*
X206300Y302500D01*
X208550Y305500D02*Y303250D01*
X209300Y302500D01*
X206300D02*X207800D01*
X208550Y303250D01*
X211850Y308500D02*Y303250D01*
X212600Y302500D01*
X211100Y306250D02*X212600D01*
X214850Y302500D02*X217100D01*
X214100Y303250D02*X214850Y302500D01*
X214100Y304750D02*Y303250D01*
Y304750D02*X214850Y305500D01*
X216350D01*
X217100Y304750D01*
X214100Y304000D02*X217100D01*
Y304750D02*Y304000D01*
X218900Y306250D02*X219650D01*
X218900Y304750D02*X219650D01*
X224150Y308500D02*Y302500D01*
Y308500D02*X226400Y306250D01*
X228650Y308500D01*
Y302500D01*
X230450Y304750D02*Y303250D01*
Y304750D02*X231200Y305500D01*
X232700D01*
X233450Y304750D01*
Y303250D01*
X232700Y302500D02*X233450Y303250D01*
X231200Y302500D02*X232700D01*
X230450Y303250D02*X231200Y302500D01*
X236000Y304750D02*Y302500D01*
Y304750D02*X236750Y305500D01*
X237500D01*
X238250Y304750D01*
Y302500D01*
X235250Y305500D02*X236000Y304750D01*
X243500Y302500D02*X245000D01*
X244250Y308500D02*Y302500D01*
X242750Y307000D02*X244250Y308500D01*
X246800Y302500D02*X250550Y306250D01*
Y308500D02*Y306250D01*
X246800Y308500D02*X250550D01*
X255050Y307750D02*Y302500D01*
Y307750D02*X255800Y308500D01*
X258050D01*
X258800Y307750D01*
Y302500D01*
X255050Y305500D02*X258800D01*
X261350Y304750D02*Y300250D01*
X260600Y305500D02*X261350Y304750D01*
X262100Y305500D01*
X263600D01*
X264350Y304750D01*
Y303250D01*
X263600Y302500D02*X264350Y303250D01*
X262100Y302500D02*X263600D01*
X261350Y303250D02*X262100Y302500D01*
X266900Y304750D02*Y302500D01*
Y304750D02*X267650Y305500D01*
X269150D01*
X266150D02*X266900Y304750D01*
X273650Y307750D02*X274400Y308500D01*
X276650D01*
X277400Y307750D01*
Y306250D01*
X273650Y302500D02*X277400Y306250D01*
X273650Y302500D02*X277400D01*
X279200Y303250D02*X279950Y302500D01*
X279200Y307750D02*Y303250D01*
Y307750D02*X279950Y308500D01*
X281450D01*
X282200Y307750D01*
Y303250D01*
X281450Y302500D02*X282200Y303250D01*
X279950Y302500D02*X281450D01*
X279200Y304000D02*X282200Y307000D01*
X284750Y302500D02*X286250D01*
X285500Y308500D02*Y302500D01*
X284000Y307000D02*X285500Y308500D01*
X288050Y302500D02*X291800Y306250D01*
Y308500D02*Y306250D01*
X288050Y308500D02*X291800D01*
X296300Y303250D02*X297050Y302500D01*
X296300Y307750D02*Y303250D01*
Y307750D02*X297050Y308500D01*
X298550D01*
X299300Y307750D01*
Y303250D01*
X298550Y302500D02*X299300Y303250D01*
X297050Y302500D02*X298550D01*
X296300Y304000D02*X299300Y307000D01*
X301100Y302500D02*X304850Y306250D01*
Y308500D02*Y306250D01*
X301100Y308500D02*X304850D01*
X306650Y306250D02*X307400D01*
X306650Y304750D02*X307400D01*
X309950Y302500D02*X311450D01*
X310700Y308500D02*Y302500D01*
X309200Y307000D02*X310700Y308500D01*
X313250Y303250D02*X314000Y302500D01*
X313250Y304750D02*Y303250D01*
Y304750D02*X314000Y305500D01*
X315500D01*
X316250Y304750D01*
Y303250D01*
X315500Y302500D02*X316250Y303250D01*
X314000Y302500D02*X315500D01*
X313250Y306250D02*X314000Y305500D01*
X313250Y307750D02*Y306250D01*
Y307750D02*X314000Y308500D01*
X315500D01*
X316250Y307750D01*
Y306250D01*
X315500Y305500D02*X316250Y306250D01*
X318050D02*X318800D01*
X318050Y304750D02*X318800D01*
X320600Y305500D02*X323600Y308500D01*
X320600Y305500D02*X324350D01*
X323600Y308500D02*Y302500D01*
X326150D02*X329900Y306250D01*
Y308500D02*Y306250D01*
X326150Y308500D02*X329900D01*
X335150D02*Y302500D01*
X334400Y308500D02*X337400D01*
X338150Y307750D01*
Y306250D01*
X337400Y305500D02*X338150Y306250D01*
X335150Y305500D02*X337400D01*
X339950Y308500D02*Y302500D01*
Y308500D02*X342200Y306250D01*
X344450Y308500D01*
Y302500D01*
X351950Y308500D02*X352700Y307750D01*
X349700Y308500D02*X351950D01*
X348950Y307750D02*X349700Y308500D01*
X348950Y307750D02*Y303250D01*
X349700Y302500D01*
X351950D01*
X352700Y303250D01*
Y304750D02*Y303250D01*
X351950Y305500D02*X352700Y304750D01*
X350450Y305500D02*X351950D01*
X354500Y308500D02*Y302500D01*
Y308500D02*X356750Y306250D01*
X359000Y308500D01*
Y302500D01*
X360800Y308500D02*X363800D01*
X362300D02*Y302500D01*
X368300Y308500D02*Y303250D01*
X369050Y302500D01*
X370550D01*
X371300Y303250D01*
Y308500D02*Y303250D01*
X373100Y308500D02*X376100D01*
X374600D02*Y302500D01*
X378650D02*X380900D01*
X377900Y303250D02*X378650Y302500D01*
X377900Y307750D02*Y303250D01*
Y307750D02*X378650Y308500D01*
X380900D01*
X200000Y322750D02*Y317500D01*
Y322750D02*X200750Y323500D01*
X203000D01*
X203750Y322750D01*
Y317500D01*
X200000Y320500D02*X203750D01*
X205550D02*Y318250D01*
X206300Y317500D01*
X207800D01*
X208550Y318250D01*
Y320500D02*Y318250D01*
X211100Y323500D02*Y318250D01*
X211850Y317500D01*
X210350Y321250D02*X211850D01*
X213350Y323500D02*Y317500D01*
Y319750D02*X214100Y320500D01*
X215600D01*
X216350Y319750D01*
Y317500D01*
X218150Y319750D02*Y318250D01*
Y319750D02*X218900Y320500D01*
X220400D01*
X221150Y319750D01*
Y318250D01*
X220400Y317500D02*X221150Y318250D01*
X218900Y317500D02*X220400D01*
X218150Y318250D02*X218900Y317500D01*
X223700Y319750D02*Y317500D01*
Y319750D02*X224450Y320500D01*
X225950D01*
X222950D02*X223700Y319750D01*
X227750Y321250D02*X228500D01*
X227750Y319750D02*X228500D01*
X233000Y323500D02*Y317500D01*
Y323500D02*Y322750D01*
X236750Y319000D01*
Y323500D02*Y317500D01*
X240800Y320500D02*X241550Y319750D01*
X239300Y320500D02*X240800D01*
X238550Y319750D02*X239300Y320500D01*
X238550Y319750D02*Y318250D01*
X239300Y317500D01*
X241550Y320500D02*Y318250D01*
X242300Y317500D01*
X239300D02*X240800D01*
X241550Y318250D01*
X244850Y323500D02*Y318250D01*
X245600Y317500D01*
X244100Y321250D02*X245600D01*
X247100Y323500D02*Y317500D01*
Y319750D02*X247850Y320500D01*
X249350D01*
X250100Y319750D01*
Y317500D01*
X254150Y320500D02*X254900Y319750D01*
X252650Y320500D02*X254150D01*
X251900Y319750D02*X252650Y320500D01*
X251900Y319750D02*Y318250D01*
X252650Y317500D01*
X254900Y320500D02*Y318250D01*
X255650Y317500D01*
X252650D02*X254150D01*
X254900Y318250D01*
X258200Y319750D02*Y317500D01*
Y319750D02*X258950Y320500D01*
X259700D01*
X260450Y319750D01*
Y317500D01*
X257450Y320500D02*X258200Y319750D01*
X265700Y323500D02*Y317500D01*
X267950Y323500D02*X268700Y322750D01*
Y318250D01*
X267950Y317500D02*X268700Y318250D01*
X264950Y317500D02*X267950D01*
X264950Y323500D02*X267950D01*
X270500Y317500D02*X271250D01*
X275750Y323500D02*Y317500D01*
X279500Y323500D02*Y317500D01*
X275750Y320500D02*X279500D01*
X281300Y319750D02*Y318250D01*
Y319750D02*X282050Y320500D01*
X283550D01*
X284300Y319750D01*
Y318250D01*
X283550Y317500D02*X284300Y318250D01*
X282050Y317500D02*X283550D01*
X281300Y318250D02*X282050Y317500D01*
X286100Y323500D02*Y318250D01*
X286850Y317500D01*
X289100Y319750D02*Y317500D01*
Y319750D02*X289850Y320500D01*
X290600D01*
X291350Y319750D01*
Y317500D01*
Y319750D02*X292100Y320500D01*
X292850D01*
X293600Y319750D01*
Y317500D01*
X288350Y320500D02*X289100Y319750D01*
X296150Y317500D02*X298400D01*
X295400Y318250D02*X296150Y317500D01*
X295400Y319750D02*Y318250D01*
Y319750D02*X296150Y320500D01*
X297650D01*
X298400Y319750D01*
X295400Y319000D02*X298400D01*
Y319750D02*Y319000D01*
X300950Y317500D02*X303200D01*
X303950Y318250D01*
X303200Y319000D02*X303950Y318250D01*
X300950Y319000D02*X303200D01*
X300200Y319750D02*X300950Y319000D01*
X300200Y319750D02*X300950Y320500D01*
X303200D01*
X303950Y319750D01*
X300200Y318250D02*X300950Y317500D01*
X200000Y338500D02*X203000D01*
X201500D02*Y332500D01*
X204800Y337000D02*Y336250D01*
Y334750D02*Y332500D01*
X207050Y338500D02*Y333250D01*
X207800Y332500D01*
X206300Y336250D02*X207800D01*
X209300Y338500D02*Y333250D01*
X210050Y332500D01*
X212300D02*X214550D01*
X211550Y333250D02*X212300Y332500D01*
X211550Y334750D02*Y333250D01*
Y334750D02*X212300Y335500D01*
X213800D01*
X214550Y334750D01*
X211550Y334000D02*X214550D01*
Y334750D02*Y334000D01*
X216350Y336250D02*X217100D01*
X216350Y334750D02*X217100D01*
X221600Y333250D02*X222350Y332500D01*
X221600Y337750D02*X222350Y338500D01*
X221600Y337750D02*Y333250D01*
X224150Y335500D02*Y333250D01*
X224900Y332500D01*
X226400D01*
X227150Y333250D01*
Y335500D02*Y333250D01*
X229700Y334750D02*Y332500D01*
Y334750D02*X230450Y335500D01*
X231200D01*
X231950Y334750D01*
Y332500D01*
X228950Y335500D02*X229700Y334750D01*
X233750Y338500D02*Y332500D01*
Y334750D02*X236000Y332500D01*
X233750Y334750D02*X235250Y336250D01*
X238550Y334750D02*Y332500D01*
Y334750D02*X239300Y335500D01*
X240050D01*
X240800Y334750D01*
Y332500D01*
X237800Y335500D02*X238550Y334750D01*
X242600D02*Y333250D01*
Y334750D02*X243350Y335500D01*
X244850D01*
X245600Y334750D01*
Y333250D01*
X244850Y332500D02*X245600Y333250D01*
X243350Y332500D02*X244850D01*
X242600Y333250D02*X243350Y332500D01*
X247400Y335500D02*Y333250D01*
X248150Y332500D01*
X248900D01*
X249650Y333250D01*
Y335500D02*Y333250D01*
X250400Y332500D01*
X251150D01*
X251900Y333250D01*
Y335500D02*Y333250D01*
X254450Y334750D02*Y332500D01*
Y334750D02*X255200Y335500D01*
X255950D01*
X256700Y334750D01*
Y332500D01*
X253700Y335500D02*X254450Y334750D01*
X258500Y338500D02*X259250Y337750D01*
Y333250D01*
X258500Y332500D02*X259250Y333250D01*
X263750Y335500D02*X266750D01*
X271250Y338500D02*Y332500D01*
Y338500D02*X274250D01*
X271250Y335500D02*X273500D01*
X278300D02*X279050Y334750D01*
X276800Y335500D02*X278300D01*
X276050Y334750D02*X276800Y335500D01*
X276050Y334750D02*Y333250D01*
X276800Y332500D01*
X279050Y335500D02*Y333250D01*
X279800Y332500D01*
X276800D02*X278300D01*
X279050Y333250D01*
X281600Y338500D02*Y332500D01*
Y333250D02*X282350Y332500D01*
X283850D01*
X284600Y333250D01*
Y334750D02*Y333250D01*
X283850Y335500D02*X284600Y334750D01*
X282350Y335500D02*X283850D01*
X281600Y334750D02*X282350Y335500D01*
X287150Y334750D02*Y332500D01*
Y334750D02*X287900Y335500D01*
X289400D01*
X286400D02*X287150Y334750D01*
X291200Y337000D02*Y336250D01*
Y334750D02*Y332500D01*
X293450Y335500D02*X295700D01*
X292700Y334750D02*X293450Y335500D01*
X292700Y334750D02*Y333250D01*
X293450Y332500D01*
X295700D01*
X299750Y335500D02*X300500Y334750D01*
X298250Y335500D02*X299750D01*
X297500Y334750D02*X298250Y335500D01*
X297500Y334750D02*Y333250D01*
X298250Y332500D01*
X300500Y335500D02*Y333250D01*
X301250Y332500D01*
X298250D02*X299750D01*
X300500Y333250D01*
X303800Y338500D02*Y333250D01*
X304550Y332500D01*
X303050Y336250D02*X304550D01*
X306050Y337000D02*Y336250D01*
Y334750D02*Y332500D01*
X307550Y334750D02*Y333250D01*
Y334750D02*X308300Y335500D01*
X309800D01*
X310550Y334750D01*
Y333250D01*
X309800Y332500D02*X310550Y333250D01*
X308300Y332500D02*X309800D01*
X307550Y333250D02*X308300Y332500D01*
X313100Y334750D02*Y332500D01*
Y334750D02*X313850Y335500D01*
X314600D01*
X315350Y334750D01*
Y332500D01*
X312350Y335500D02*X313100Y334750D01*
X320600Y338500D02*Y332500D01*
X322850Y338500D02*X323600Y337750D01*
Y333250D01*
X322850Y332500D02*X323600Y333250D01*
X319850Y332500D02*X322850D01*
X319850Y338500D02*X322850D01*
X326150Y334750D02*Y332500D01*
Y334750D02*X326900Y335500D01*
X328400D01*
X325400D02*X326150Y334750D01*
X332450Y335500D02*X333200Y334750D01*
X330950Y335500D02*X332450D01*
X330200Y334750D02*X330950Y335500D01*
X330200Y334750D02*Y333250D01*
X330950Y332500D01*
X333200Y335500D02*Y333250D01*
X333950Y332500D01*
X330950D02*X332450D01*
X333200Y333250D01*
X335750Y335500D02*Y333250D01*
X336500Y332500D01*
X337250D01*
X338000Y333250D01*
Y335500D02*Y333250D01*
X338750Y332500D01*
X339500D01*
X340250Y333250D01*
Y335500D02*Y333250D01*
X342050Y337000D02*Y336250D01*
Y334750D02*Y332500D01*
X344300Y334750D02*Y332500D01*
Y334750D02*X345050Y335500D01*
X345800D01*
X346550Y334750D01*
Y332500D01*
X343550Y335500D02*X344300Y334750D01*
X350600Y335500D02*X351350Y334750D01*
X349100Y335500D02*X350600D01*
X348350Y334750D02*X349100Y335500D01*
X348350Y334750D02*Y333250D01*
X349100Y332500D01*
X350600D01*
X351350Y333250D01*
X348350Y331000D02*X349100Y330250D01*
X350600D01*
X351350Y331000D01*
Y335500D02*Y331000D01*
M02*
