G04 start of page 10 for group -4015 idx -4015 *
G04 Title: (unknown), toppaste *
G04 Creator: pcb 20140316 *
G04 CreationDate: Mon 17 Apr 2017 07:18:47 PM GMT UTC *
G04 For: ndholmes *
G04 Format: Gerber/RS-274X *
G04 PCB-Dimensions (mil): 2000.00 2800.00 *
G04 PCB-Coordinate-Origin: lower left *
%MOIN*%
%FSLAX25Y25*%
%LNTOPPASTE*%
%ADD90R,0.0630X0.0630*%
%ADD89R,0.0120X0.0120*%
%ADD88R,0.0512X0.0512*%
%ADD87R,0.0240X0.0240*%
%ADD86R,0.0167X0.0167*%
%ADD85R,0.0300X0.0300*%
%ADD84C,0.0600*%
G54D84*X178000Y185300D03*
G54D85*X176500Y183800D02*X179500D01*
G54D84*X178000Y178500D03*
G54D85*X176500Y180000D02*X179500D01*
G54D86*X123575Y148283D02*Y146413D01*
X120425Y148283D02*Y146413D01*
Y141587D02*Y139717D01*
X123575Y141587D02*Y139717D01*
G54D87*X119500Y130800D02*X121100D01*
X119500Y126900D02*X121100D01*
X119500Y123000D02*X121100D01*
X127700D02*X129300D01*
X127700Y126900D02*X129300D01*
X127700Y130800D02*X129300D01*
G54D88*X112457Y158893D02*Y158107D01*
X119543Y158893D02*Y158107D01*
X167914Y131393D02*Y130607D01*
X175000Y131393D02*Y130607D01*
G54D86*X174075Y148283D02*Y146413D01*
X170925Y148283D02*Y146413D01*
Y141587D02*Y139717D01*
X174075Y141587D02*Y139717D01*
G54D89*X157839Y150000D02*Y149000D01*
X155280Y150000D02*Y149000D01*
X152720Y150000D02*Y149000D01*
X150161Y150000D02*Y149000D01*
Y133000D02*Y132000D01*
X152720Y133000D02*Y132000D01*
X155280Y133000D02*Y132000D01*
X157839Y133000D02*Y132000D01*
G54D88*X132107Y249457D02*X132893D01*
X132107Y256543D02*X132893D01*
G54D90*X74500Y234835D02*Y228536D01*
Y215150D02*Y208851D01*
M02*
